STARTFONT 2.1
FONT -FontForge-Source Code Pro-Bold-R-Normal--32-320-72-72-M-190-ISO10646-1
SIZE 32 72 72
FONTBOUNDINGBOX 33 49 -7 -15
COMMENT "Generated by fontforge, http://fontforge.sourceforge.net"
COMMENT "Copyright 2010, 2012 Adobe Systems Incorporated (http://www.adobe.com/), with Reserved Font Name `Source'."
STARTPROPERTIES 40
FOUNDRY "FontForge"
FAMILY_NAME "Source Code Pro"
WEIGHT_NAME "Bold"
SLANT "R"
SETWIDTH_NAME "Normal"
ADD_STYLE_NAME ""
PIXEL_SIZE 32
POINT_SIZE 320
RESOLUTION_X 72
RESOLUTION_Y 72
SPACING "M"
AVERAGE_WIDTH 190
CHARSET_REGISTRY "ISO10646"
CHARSET_ENCODING "1"
FONTNAME_REGISTRY ""
CHARSET_COLLECTIONS "ASCII ISOLatin1Encoding ISO8859-2 ISO8859-5 ISO8859-7 ISO8859-9 ISO8859-4 ISO10646-1"
FONT_NAME "SourceCodePro-Bold"
FACE_NAME "Source Code Pro Bold"
COPYRIGHT "Copyright 2010, 2012 Adobe Systems Incorporated (http://www.adobe.com/), with Reserved Font Name `Source'."
FONT_VERSION "2.030;PS 1.000;hotconv 16.6.51;makeotf.lib2.5.65220"
FONT_ASCENT 24
FONT_DESCENT 8
UNDERLINE_POSITION -3
UNDERLINE_THICKNESS 2
X_HEIGHT 15
CAP_HEIGHT 20
RAW_ASCENT 750
RAW_DESCENT 250
NORM_SPACE 19
RELATIVE_WEIGHT 70
RELATIVE_SETWIDTH 50
SUPERSCRIPT_X 0
SUPERSCRIPT_Y 11
SUPERSCRIPT_SIZE 19
SUBSCRIPT_X 0
SUBSCRIPT_Y 2
SUBSCRIPT_SIZE 19
FIGURE_WIDTH 19
AVG_LOWERCASE_WIDTH 190
AVG_UPPERCASE_WIDTH 190
ENDPROPERTIES
CHARS 1564
STARTCHAR space
ENCODING 32
SWIDTH 600 0
DWIDTH 19 0
BBX 1 1 0 0
BITMAP
00
ENDCHAR
STARTCHAR exclam
ENCODING 33
SWIDTH 600 0
DWIDTH 19 0
BBX 7 21 6 0
BITMAP
7C
7C
7C
7C
7C
3C
3C
3C
38
38
38
38
38
00
00
38
7C
FE
FE
7C
38
ENDCHAR
STARTCHAR quotedbl
ENCODING 34
SWIDTH 600 0
DWIDTH 19 0
BBX 14 12 3 10
BITMAP
F8FC
F8FC
F8F8
F8F8
F8F8
F8F8
F878
F878
F078
7078
7078
7070
ENDCHAR
STARTCHAR numbersign
ENCODING 35
SWIDTH 600 0
DWIDTH 19 0
BBX 15 20 2 0
BITMAP
0E38
0E38
0E38
7E38
7E38
7FFE
7FFE
1C7E
1C70
1C70
FC70
FFFC
FFFC
FFFC
1860
38E0
38E0
38E0
38E0
38E0
ENDCHAR
STARTCHAR dollar
ENCODING 36
SWIDTH 600 0
DWIDTH 19 0
BBX 15 28 2 -4
BITMAP
0380
0380
0380
0380
0FE0
1FF8
3FFC
7FFC
7C38
7810
7E00
7F80
3FE0
1FF8
07FC
01FC
007E
203E
783E
7FFC
FFFC
3FF8
0FE0
0380
0380
0380
0380
0380
ENDCHAR
STARTCHAR percent
ENCODING 37
SWIDTH 600 0
DWIDTH 19 0
BBX 18 21 1 0
BITMAP
3E0000
7F0100
FF8380
F387C0
E38F00
E38E00
E39C00
F3B800
FF9000
7F0000
3E1E00
007F00
047F80
0EF380
1CE380
3CE380
78E380
F0F380
E07F80
407F00
001E00
ENDCHAR
STARTCHAR ampersand
ENCODING 38
SWIDTH 600 0
DWIDTH 19 0
BBX 18 21 1 0
BITMAP
078000
1FE000
3FE000
3FF000
3CF000
3CF000
3CF000
3FE000
3FC000
1F87C0
3F0780
7F8780
FFCF80
FBEF00
F1FF00
F0FE00
F87F00
FFFFC0
7FFF80
3FF780
1FC180
ENDCHAR
STARTCHAR quotesingle
ENCODING 39
SWIDTH 600 0
DWIDTH 19 0
BBX 5 12 7 10
BITMAP
F8
F8
F8
F8
F8
F8
F8
F8
78
70
70
70
ENDCHAR
STARTCHAR parenleft
ENCODING 40
SWIDTH 600 0
DWIDTH 19 0
BBX 9 29 6 -6
BITMAP
0200
0700
0F80
1F00
1E00
3C00
3C00
7800
7800
F000
F000
F000
F000
F000
F000
F000
F000
F000
F000
F000
7800
7800
3C00
3C00
1E00
1F00
0F80
0700
0200
ENDCHAR
STARTCHAR parenright
ENCODING 41
SWIDTH 600 0
DWIDTH 19 0
BBX 9 29 4 -6
BITMAP
2000
7000
F800
7C00
3E00
1E00
0F00
0F00
0F00
0780
0780
0780
0780
0780
0780
0780
0780
0780
0780
0780
0F00
0F00
0F00
1E00
3E00
7C00
F800
7000
2000
ENDCHAR
STARTCHAR asterisk
ENCODING 42
SWIDTH 600 0
DWIDTH 19 0
BBX 15 16 2 3
BITMAP
0380
0380
0380
0380
4386
FFBE
FFFE
7FFC
1FF0
07C0
0FE0
0FE0
1EF0
1C78
3838
1010
ENDCHAR
STARTCHAR plus
ENCODING 43
SWIDTH 600 0
DWIDTH 19 0
BBX 15 16 2 3
BITMAP
0380
0380
0380
0380
0380
0380
FFFE
FFFE
FFFE
FFFE
0380
0380
0380
0380
0380
0380
ENDCHAR
STARTCHAR comma
ENCODING 44
SWIDTH 600 0
DWIDTH 19 0
BBX 8 14 6 -7
BITMAP
3C
7E
FE
FF
FF
7F
3F
0F
0E
1E
3C
FC
F8
60
ENDCHAR
STARTCHAR hyphen
ENCODING 45
SWIDTH 600 0
DWIDTH 19 0
BBX 15 4 2 9
BITMAP
FFFE
FFFE
FFFE
FFFE
ENDCHAR
STARTCHAR period
ENCODING 46
SWIDTH 600 0
DWIDTH 19 0
BBX 7 8 6 0
BITMAP
3C
7E
FE
FE
FE
FE
7E
38
ENDCHAR
STARTCHAR slash
ENCODING 47
SWIDTH 600 0
DWIDTH 19 0
BBX 15 28 2 -5
BITMAP
001E
003C
003C
003C
0078
0078
00F0
00F0
00F0
01E0
01E0
01E0
03C0
03C0
0780
0780
0780
0F00
0F00
0F00
1E00
1E00
3C00
3C00
3C00
7800
7800
F800
ENDCHAR
STARTCHAR zero
ENCODING 48
SWIDTH 600 0
DWIDTH 19 0
BBX 15 20 2 0
BITMAP
07E0
1FF0
3FF8
7FFC
7C7C
F83E
F01E
F39E
F7DE
F7DE
F7DE
F39E
F01E
F01E
F83E
7C7C
7FFC
3FF8
1FF0
07C0
ENDCHAR
STARTCHAR one
ENCODING 49
SWIDTH 600 0
DWIDTH 19 0
BBX 14 21 3 0
BITMAP
03C0
1FC0
FFC0
FFC0
FFC0
07C0
07C0
07C0
07C0
07C0
07C0
07C0
07C0
07C0
07C0
07C0
07C0
FFFC
FFFC
FFFC
FFFC
ENDCHAR
STARTCHAR two
ENCODING 50
SWIDTH 600 0
DWIDTH 19 0
BBX 15 20 2 0
BITMAP
0FC0
3FF0
7FF8
FFF8
70FC
207C
003C
007C
007C
00F8
00F0
01F0
03E0
0FC0
1F80
3F00
7FFE
FFFE
FFFE
FFFE
ENDCHAR
STARTCHAR three
ENCODING 51
SWIDTH 600 0
DWIDTH 19 0
BBX 16 20 1 0
BITMAP
07F0
1FFC
7FFE
7FFE
383E
101E
007E
07FC
07F0
07F8
07FC
007E
001F
001F
201F
783F
7FFE
FFFE
3FF8
0FE0
ENDCHAR
STARTCHAR four
ENCODING 52
SWIDTH 600 0
DWIDTH 19 0
BBX 17 20 1 0
BITMAP
00FC00
01FC00
01FC00
03FC00
07FC00
0FBC00
0F3C00
1E3C00
3E3C00
7C3C00
783C00
FFFF80
FFFF80
FFFF80
FFFF80
003C00
003C00
003C00
003C00
003C00
ENDCHAR
STARTCHAR five
ENCODING 53
SWIDTH 600 0
DWIDTH 19 0
BBX 16 20 1 0
BITMAP
1FFE
1FFE
3FFE
3FFE
3E00
3E00
3C00
3FF0
3FFC
3FFE
1FFF
083F
001F
001F
201F
383F
7FFE
FFFC
3FF8
0FE0
ENDCHAR
STARTCHAR six
ENCODING 54
SWIDTH 600 0
DWIDTH 19 0
BBX 15 20 2 0
BITMAP
03F0
0FFC
1FFE
3FFC
7E1C
7C00
F800
F9F0
F7FC
FFFC
FFFE
FE3E
F81E
F81E
781E
7C3E
7FFE
3FFC
1FF8
07E0
ENDCHAR
STARTCHAR seven
ENCODING 55
SWIDTH 600 0
DWIDTH 19 0
BBX 15 20 2 0
BITMAP
FFFE
FFFE
FFFE
FFFE
003C
0078
00F0
00F0
01E0
01E0
03C0
03C0
07C0
07C0
0780
0780
0F80
0F80
0F80
0F80
ENDCHAR
STARTCHAR eight
ENCODING 56
SWIDTH 600 0
DWIDTH 19 0
BBX 15 20 2 0
BITMAP
07E0
1FF8
3FFC
7FFC
7C3C
783C
783C
7E38
3FF0
1FF0
1FFC
78FC
703E
F01E
F01E
F83E
FFFE
7FFC
3FF8
0FE0
ENDCHAR
STARTCHAR nine
ENCODING 57
SWIDTH 600 0
DWIDTH 19 0
BBX 15 20 2 0
BITMAP
0FC0
3FF0
7FF8
7FFC
F87C
F03E
F01E
F03E
F87E
FFFE
7FFE
3FDE
1F1E
003E
003C
30FC
7FF8
FFF8
7FE0
1F80
ENDCHAR
STARTCHAR colon
ENCODING 58
SWIDTH 600 0
DWIDTH 19 0
BBX 7 18 6 0
BITMAP
3C
7E
FE
FE
FE
FE
7E
38
00
00
3C
7E
FE
FE
FE
FE
7E
38
ENDCHAR
STARTCHAR semicolon
ENCODING 59
SWIDTH 600 0
DWIDTH 19 0
BBX 8 25 6 -7
BITMAP
3C
7E
FE
FE
FE
FE
7E
38
00
00
00
3C
7E
FE
FF
FF
7F
3F
0F
0E
1E
3C
FC
F8
60
ENDCHAR
STARTCHAR less
ENCODING 60
SWIDTH 600 0
DWIDTH 19 0
BBX 12 20 4 1
BITMAP
0010
0030
00F0
01F0
07E0
0FC0
3F80
FE00
FC00
F000
F000
FC00
FE00
3F80
0FC0
07E0
01F0
00F0
0030
0010
ENDCHAR
STARTCHAR equal
ENCODING 61
SWIDTH 600 0
DWIDTH 19 0
BBX 15 12 2 5
BITMAP
FFFE
FFFE
FFFE
FFFE
0000
0000
0000
0000
FFFE
FFFE
FFFE
FFFE
ENDCHAR
STARTCHAR greater
ENCODING 62
SWIDTH 600 0
DWIDTH 19 0
BBX 12 20 3 1
BITMAP
8000
C000
F000
FC00
7E00
3F80
0FC0
07F0
01F0
00F0
00F0
01F0
07F0
0FC0
3F80
7E00
FC00
F000
C000
8000
ENDCHAR
STARTCHAR question
ENCODING 63
SWIDTH 600 0
DWIDTH 19 0
BBX 13 22 3 0
BITMAP
0F80
3FE0
7FF0
FFF8
30F8
00F8
00F8
00F0
01F0
03E0
07C0
0F80
0F00
0F00
0000
0000
0F00
1F80
1F80
1F80
1F80
0F00
ENDCHAR
STARTCHAR at
ENCODING 64
SWIDTH 600 0
DWIDTH 19 0
BBX 17 26 1 -5
BITMAP
01F000
07FC00
1FFE00
1E0F00
3C0700
780700
780300
700380
F00780
F07F80
E1FF80
E3F780
E3C780
E38780
E38780
E3FF80
F3FF80
F1FB80
70F380
780000
780000
3C0000
1F0600
0FFE00
07FF00
01F800
ENDCHAR
STARTCHAR A
ENCODING 65
SWIDTH 600 0
DWIDTH 19 0
BBX 19 21 0 0
BITMAP
01F800
03F800
03F800
03FC00
07BC00
07BC00
07BC00
0F9E00
0F1E00
0F1E00
0F1F00
1E0F00
1FFF00
1FFF80
3FFF80
3FFF80
3C07C0
7C07C0
7C07C0
7803C0
F803E0
ENDCHAR
STARTCHAR B
ENCODING 66
SWIDTH 600 0
DWIDTH 19 0
BBX 16 21 2 0
BITMAP
FFF0
FFF8
FFFC
FFFE
F83E
F83E
F83E
F87C
FFFC
FFF0
FFFC
FFFE
F83F
F81F
F81F
F81F
F83F
FFFE
FFFE
FFFC
FFF0
ENDCHAR
STARTCHAR C
ENCODING 67
SWIDTH 600 0
DWIDTH 19 0
BBX 16 21 2 0
BITMAP
03F8
0FFC
1FFF
3FFE
7F0C
7C08
FC00
F800
F800
F800
F800
F800
F800
F800
F800
7C04
7F0E
3FFF
1FFF
0FFE
03F8
ENDCHAR
STARTCHAR D
ENCODING 68
SWIDTH 600 0
DWIDTH 19 0
BBX 16 21 2 0
BITMAP
FFC0
FFF0
FFF8
FFFC
F8FE
F83E
F83F
F81F
F81F
F81F
F81F
F81F
F81F
F81F
F83F
F83E
F8FE
FFFC
FFF8
FFF0
FFC0
ENDCHAR
STARTCHAR E
ENCODING 69
SWIDTH 600 0
DWIDTH 19 0
BBX 14 21 3 0
BITMAP
FFFC
FFFC
FFFC
FFFC
F800
F800
F800
F800
FFF0
FFF0
FFF0
FFF0
F800
F800
F800
F800
F800
FFFC
FFFC
FFFC
FFFC
ENDCHAR
STARTCHAR F
ENCODING 70
SWIDTH 600 0
DWIDTH 19 0
BBX 14 21 3 0
BITMAP
FFFC
FFFC
FFFC
FFFC
F800
F800
F800
F800
F800
FFF8
FFF8
FFF8
FFF8
F800
F800
F800
F800
F800
F800
F800
F800
ENDCHAR
STARTCHAR G
ENCODING 71
SWIDTH 600 0
DWIDTH 19 0
BBX 17 21 1 0
BITMAP
01F800
07FE00
1FFF00
1FFE00
3F0C00
7E0400
7C0000
7C0000
780000
F87F80
F87F80
F87F80
F87F80
7C0F80
7C0F80
7E0F80
3F0F80
3FFF80
1FFF80
07FE00
01F800
ENDCHAR
STARTCHAR H
ENCODING 72
SWIDTH 600 0
DWIDTH 19 0
BBX 15 21 2 0
BITMAP
F83E
F83E
F83E
F83E
F83E
F83E
F83E
F83E
FFFE
FFFE
FFFE
FFFE
F83E
F83E
F83E
F83E
F83E
F83E
F83E
F83E
F83E
ENDCHAR
STARTCHAR I
ENCODING 73
SWIDTH 600 0
DWIDTH 19 0
BBX 15 21 2 0
BITMAP
FFFE
FFFE
FFFE
FFFE
07C0
07C0
07C0
07C0
07C0
07C0
07C0
07C0
07C0
07C0
07C0
07C0
07C0
FFFE
FFFE
FFFE
FFFE
ENDCHAR
STARTCHAR J
ENCODING 74
SWIDTH 600 0
DWIDTH 19 0
BBX 15 21 2 0
BITMAP
3FFE
3FFE
3FFE
3FFE
003E
003E
003E
003E
003E
003E
003E
003E
003E
003E
003C
207C
787C
FFFC
7FF8
3FF0
0FC0
ENDCHAR
STARTCHAR K
ENCODING 75
SWIDTH 600 0
DWIDTH 19 0
BBX 17 21 2 0
BITMAP
F81F00
F83E00
F87E00
F87C00
F8F800
F9F000
F9F000
FBE000
FFC000
FFE000
FFE000
FFF000
FEF000
FCF800
FC7800
F87C00
F83E00
F83E00
F81F00
F81F00
F80F80
ENDCHAR
STARTCHAR L
ENCODING 76
SWIDTH 600 0
DWIDTH 19 0
BBX 14 21 3 0
BITMAP
F800
F800
F800
F800
F800
F800
F800
F800
F800
F800
F800
F800
F800
F800
F800
F800
F800
FFFC
FFFC
FFFC
FFFC
ENDCHAR
STARTCHAR M
ENCODING 77
SWIDTH 600 0
DWIDTH 19 0
BBX 15 21 2 0
BITMAP
F83E
F83E
F83E
FC7E
FC7E
FC7E
EE6E
EEEE
EEEE
F6EE
F7CE
F7DE
F7DE
F39E
F39E
F01E
F01E
F01E
F01E
F01E
F01E
ENDCHAR
STARTCHAR N
ENCODING 78
SWIDTH 600 0
DWIDTH 19 0
BBX 15 21 2 0
BITMAP
F81E
FC1E
FC1E
FC1E
FE1E
FE1E
FF1E
F71E
F79E
F79E
F39E
FBDE
F9DE
F9FE
F8FE
F8FE
F8FE
F87E
F87E
F83E
F83E
ENDCHAR
STARTCHAR O
ENCODING 79
SWIDTH 600 0
DWIDTH 19 0
BBX 17 21 1 0
BITMAP
03F000
0FF800
1FFE00
3FFE00
7E3F00
7C1F00
7C0F80
F80F80
F80F80
F80F80
F80F80
F80F80
F80F80
F80F80
7C0F80
7C1F00
7E3F00
3FFE00
1FFE00
0FF800
03F000
ENDCHAR
STARTCHAR P
ENCODING 80
SWIDTH 600 0
DWIDTH 19 0
BBX 16 21 2 0
BITMAP
FFE0
FFFC
FFFE
FFFE
F83F
F81F
F81F
F81F
F81F
F83F
FFFE
FFFC
FFF8
FFE0
F800
F800
F800
F800
F800
F800
F800
ENDCHAR
STARTCHAR Q
ENCODING 81
SWIDTH 600 0
DWIDTH 19 0
BBX 18 27 1 -6
BITMAP
03F000
0FF800
1FFC00
3FFE00
7E3F00
7C1F00
7C0F00
F80F80
F80F80
F80F80
F80F80
F80F80
F80F80
F80F80
7C0F80
7C1F00
7E3F00
3FFE00
1FFE00
1FFC00
07F000
01F000
01F800
00FF80
007F80
003F80
000FC0
ENDCHAR
STARTCHAR R
ENCODING 82
SWIDTH 600 0
DWIDTH 19 0
BBX 17 21 2 0
BITMAP
FFE000
FFFC00
FFFE00
FFFE00
F83F00
F81F00
F81F00
F81F00
F83E00
FFFE00
FFFC00
FFF800
FFF000
F8F800
F8F800
F87C00
F87C00
F83E00
F83E00
F81F00
F81F80
ENDCHAR
STARTCHAR S
ENCODING 83
SWIDTH 600 0
DWIDTH 19 0
BBX 16 21 2 0
BITMAP
07E0
1FF8
3FFE
7FFC
7C1C
F808
F800
7E00
7F80
3FF0
1FFC
07FE
01FE
007F
001F
201F
783E
FFFE
FFFC
3FF8
0FE0
ENDCHAR
STARTCHAR T
ENCODING 84
SWIDTH 600 0
DWIDTH 19 0
BBX 17 21 1 0
BITMAP
FFFF80
FFFF80
FFFF80
FFFF80
03E000
03E000
03E000
03E000
03E000
03E000
03E000
03E000
03E000
03E000
03E000
03E000
03E000
03E000
03E000
03E000
03E000
ENDCHAR
STARTCHAR U
ENCODING 85
SWIDTH 600 0
DWIDTH 19 0
BBX 15 21 2 0
BITMAP
F81E
F81E
F81E
F81E
F81E
F81E
F81E
F81E
F81E
F81E
F81E
F81E
F81E
F81E
F83E
F83E
7C7E
7FFC
3FFC
1FF8
0FE0
ENDCHAR
STARTCHAR V
ENCODING 86
SWIDTH 600 0
DWIDTH 19 0
BBX 19 21 0 0
BITMAP
FC03E0
7C03C0
7C07C0
3C07C0
3E0780
3E0780
3E0F80
1E0F00
1F0F00
1F0F00
0F1F00
0F1E00
0F9E00
079E00
07BC00
07BC00
07FC00
03FC00
03F800
03F800
01F800
ENDCHAR
STARTCHAR W
ENCODING 87
SWIDTH 600 0
DWIDTH 19 0
BBX 19 21 0 0
BITMAP
F803E0
F803E0
F803E0
7803E0
7803E0
78E3C0
78F3C0
78F3C0
7CF3C0
7DF3C0
3DF3C0
3DBBC0
3DBBC0
3FBB80
3FBB80
3FBB80
3F9F80
3F1F80
1F1F80
1F1F80
1F1F80
ENDCHAR
STARTCHAR X
ENCODING 88
SWIDTH 600 0
DWIDTH 19 0
BBX 18 21 1 0
BITMAP
F80F80
7C1F00
7C1F00
3E1E00
3E3E00
1F3C00
0F7C00
0FF800
07F800
07F000
07F000
07F000
0FF800
0F7800
1F7C00
1E7C00
3E3E00
3C1F00
7C1F00
F80F80
F80FC0
ENDCHAR
STARTCHAR Y
ENCODING 89
SWIDTH 600 0
DWIDTH 19 0
BBX 18 21 1 0
BITMAP
F807C0
F80F80
7C0F80
7C1F00
3C1F00
3E3E00
1E3E00
1F3C00
0F7C00
0F7800
07F800
07F000
03F000
03E000
03E000
03E000
03E000
03E000
03E000
03E000
03E000
ENDCHAR
STARTCHAR Z
ENCODING 90
SWIDTH 600 0
DWIDTH 19 0
BBX 16 21 2 0
BITMAP
7FFE
7FFE
7FFE
7FFE
007C
007C
00F8
01F0
03F0
03E0
07C0
0F80
0F80
1F00
3E00
3E00
7C00
FFFF
FFFF
FFFF
FFFF
ENDCHAR
STARTCHAR bracketleft
ENCODING 91
SWIDTH 600 0
DWIDTH 19 0
BBX 10 28 6 -5
BITMAP
FFC0
FFC0
FFC0
F000
F000
F000
F000
F000
F000
F000
F000
F000
F000
F000
F000
F000
F000
F000
F000
F000
F000
F000
F000
F000
F000
F000
FFC0
FFC0
ENDCHAR
STARTCHAR backslash
ENCODING 92
SWIDTH 600 0
DWIDTH 19 0
BBX 15 28 2 -5
BITMAP
F000
7800
7800
3C00
3C00
3C00
1E00
1E00
0E00
0F00
0F00
0780
0780
0780
03C0
03C0
01E0
01E0
01E0
00F0
00F0
00F0
0078
0078
003C
003C
003C
001E
ENDCHAR
STARTCHAR bracketright
ENCODING 93
SWIDTH 600 0
DWIDTH 19 0
BBX 10 28 3 -5
BITMAP
FFC0
FFC0
FFC0
03C0
03C0
03C0
03C0
03C0
03C0
03C0
03C0
03C0
03C0
03C0
03C0
03C0
03C0
03C0
03C0
03C0
03C0
03C0
03C0
03C0
03C0
03C0
FFC0
FFC0
ENDCHAR
STARTCHAR asciicircum
ENCODING 94
SWIDTH 600 0
DWIDTH 19 0
BBX 13 13 3 8
BITMAP
0780
0F80
0F80
1FC0
1DC0
1DE0
3DE0
3CE0
78F0
78F0
7878
F078
F078
ENDCHAR
STARTCHAR underscore
ENCODING 95
SWIDTH 600 0
DWIDTH 19 0
BBX 15 4 2 -5
BITMAP
FFFE
FFFE
FFFE
FFFE
ENDCHAR
STARTCHAR grave
ENCODING 96
SWIDTH 600 0
DWIDTH 19 0
BBX 8 8 4 18
BITMAP
10
30
78
FC
3E
1F
0E
04
ENDCHAR
STARTCHAR a
ENCODING 97
SWIDTH 600 0
DWIDTH 19 0
BBX 15 16 2 0
BITMAP
07E0
3FF8
7FFC
7FFC
307E
003E
03FE
1FFE
7FFE
FC3E
F83E
F87E
FFFE
FFFE
7FDE
1F1E
ENDCHAR
STARTCHAR b
ENCODING 98
SWIDTH 600 0
DWIDTH 19 0
BBX 16 23 2 0
BITMAP
F800
F800
F800
F800
F800
F800
F800
F9F0
FFF8
FFFC
FFFE
FC3E
F83E
F81F
F81F
F81F
F81F
F83E
FC7E
FFFE
FFFC
F7F8
F1E0
ENDCHAR
STARTCHAR c
ENCODING 99
SWIDTH 600 0
DWIDTH 19 0
BBX 16 16 2 0
BITMAP
03F0
0FFC
3FFE
3FFC
7E0C
7C00
F800
F800
F800
F800
FC04
7E0C
7FFE
3FFE
1FFD
03F0
ENDCHAR
STARTCHAR d
ENCODING 100
SWIDTH 600 0
DWIDTH 19 0
BBX 16 23 1 0
BITMAP
001F
001F
001F
001F
001F
001F
001F
07DF
1FFF
3FFF
3FFF
7E3F
7C1F
7C1F
F81F
781F
781F
7C1F
7E3F
7FFF
3FFF
1FEF
078F
ENDCHAR
STARTCHAR e
ENCODING 101
SWIDTH 600 0
DWIDTH 19 0
BBX 16 16 2 0
BITMAP
07E0
1FF8
3FFC
7FFE
781E
FFFE
FFFE
FFFF
FFFE
F800
F800
FC0C
7FFC
3FFE
1FFC
07F0
ENDCHAR
STARTCHAR f
ENCODING 102
SWIDTH 600 0
DWIDTH 19 0
BBX 16 23 3 0
BITMAP
00FC
03FF
07FE
0FFE
0F82
0F80
0F80
FFFC
FFFC
FFFC
FFFC
0F80
0F80
0F80
0F80
0F80
0F80
0F80
0F80
0F80
0F80
0F80
0F80
ENDCHAR
STARTCHAR g
ENCODING 103
SWIDTH 600 0
DWIDTH 19 0
BBX 16 23 2 -7
BITMAP
0FFF
3FFF
7FFF
7FFF
FC7F
F878
F87C
787C
7FF8
3FF8
3FE0
7000
7FF8
7FFE
7FFF
3FFF
700F
F00F
F01F
FFFE
FFFE
7FF8
1FE0
ENDCHAR
STARTCHAR h
ENCODING 104
SWIDTH 600 0
DWIDTH 19 0
BBX 15 23 2 0
BITMAP
F800
F800
F800
F800
F800
F800
F800
F9F8
FBFC
FFFE
FFFE
FE3E
FC3E
F81E
F81E
F81E
F81E
F81E
F81E
F81E
F81E
F81E
F81E
ENDCHAR
STARTCHAR i
ENCODING 105
SWIDTH 600 0
DWIDTH 19 0
BBX 11 24 3 0
BITMAP
03C0
07E0
07E0
07E0
07E0
03C0
0000
0000
FFE0
FFE0
FFE0
FFE0
03E0
03E0
03E0
03E0
03E0
03E0
03E0
03E0
03E0
03E0
03E0
03E0
ENDCHAR
STARTCHAR j
ENCODING 106
SWIDTH 600 0
DWIDTH 19 0
BBX 13 31 1 -7
BITMAP
00F0
01F8
01F8
01F8
01F8
00F0
0000
0000
3FF8
3FF8
3FF8
3FF8
00F8
00F8
00F8
00F8
00F8
00F8
00F8
00F8
00F8
00F8
00F8
00F8
00F8
00F0
41F0
7FF0
7FE0
FFC0
3F00
ENDCHAR
STARTCHAR k
ENCODING 107
SWIDTH 600 0
DWIDTH 19 0
BBX 17 23 2 0
BITMAP
F80000
F80000
F80000
F80000
F80000
F80000
F80000
F81F00
F83E00
F87C00
F8F800
F9F000
FBE000
FFC000
FFE000
FFF000
FEF000
FCF800
FC7C00
F87C00
F83E00
F81F00
F81F80
ENDCHAR
STARTCHAR l
ENCODING 108
SWIDTH 600 0
DWIDTH 19 0
BBX 15 23 2 0
BITMAP
FF80
FF80
FF80
FF80
0780
0780
0780
0780
0780
0780
0780
0780
0780
0780
0780
0780
0780
0780
07C4
07FE
03FE
03FE
00FC
ENDCHAR
STARTCHAR m
ENCODING 109
SWIDTH 600 0
DWIDTH 19 0
BBX 17 16 1 0
BITMAP
F38F00
F7DF80
FFFF80
FFFF80
F9E780
F9E780
F9E780
F9E780
F9E780
F9E780
F9E780
F9E780
F9E780
F9E780
F9E780
F9E780
ENDCHAR
STARTCHAR n
ENCODING 110
SWIDTH 600 0
DWIDTH 19 0
BBX 15 16 2 0
BITMAP
F1F8
F3FC
FFFE
FFFE
FE3E
FC3E
F81E
F81E
F81E
F81E
F81E
F81E
F81E
F81E
F81E
F81E
ENDCHAR
STARTCHAR o
ENCODING 111
SWIDTH 600 0
DWIDTH 19 0
BBX 17 16 1 0
BITMAP
03F000
0FF800
1FFE00
3FFE00
7E3F00
7C1F00
7C0F80
F80F80
780F80
7C0F80
7C1F00
7E3F00
3FFE00
1FFE00
0FF800
03F000
ENDCHAR
STARTCHAR p
ENCODING 112
SWIDTH 600 0
DWIDTH 19 0
BBX 16 23 2 -7
BITMAP
F1F0
F7F8
FFFC
FFFE
FC3E
F83E
F81F
F81F
F81F
F81F
F83E
FC7E
FFFE
FFFC
FFF8
F9E0
F800
F800
F800
F800
F800
F800
F800
ENDCHAR
STARTCHAR q
ENCODING 113
SWIDTH 600 0
DWIDTH 19 0
BBX 16 23 1 -7
BITMAP
07CF
1FEF
3FFF
3FFF
7E1F
7C1F
7C1F
F81F
781F
781F
7C1F
7E3F
7FFF
3FFF
1FFF
079F
001F
001F
001F
001F
001F
001F
001F
ENDCHAR
STARTCHAR r
ENCODING 114
SWIDTH 600 0
DWIDTH 19 0
BBX 14 16 4 0
BITMAP
F0F8
F3FC
F7F8
FFF8
FE00
FC00
F800
F000
F000
F000
F000
F000
F000
F000
F000
F000
ENDCHAR
STARTCHAR s
ENCODING 115
SWIDTH 600 0
DWIDTH 19 0
BBX 15 16 2 0
BITMAP
0FE0
3FF8
7FFE
7FFC
7C18
7C08
7FC0
3FF8
1FFC
01FE
403E
783E
FFFE
FFFC
3FF8
0FE0
ENDCHAR
STARTCHAR t
ENCODING 116
SWIDTH 600 0
DWIDTH 19 0
BBX 16 21 2 0
BITMAP
0F00
0F00
0F00
0F00
0F00
FFFE
FFFE
FFFE
FFFE
0F00
0F00
0F00
0F00
0F00
0F00
0F80
0F82
0FFE
07FE
07FE
01FD
ENDCHAR
STARTCHAR u
ENCODING 117
SWIDTH 600 0
DWIDTH 19 0
BBX 15 16 2 0
BITMAP
F83E
F83E
F83E
F83E
F83E
F83E
F83E
F83E
F83E
F83E
F87E
F8FE
FFFE
7FDE
7F9E
1F1E
ENDCHAR
STARTCHAR v
ENCODING 118
SWIDTH 600 0
DWIDTH 19 0
BBX 17 16 1 0
BITMAP
F80780
780F80
7C0F00
7C0F00
3C1F00
3E1E00
3E1E00
1E3C00
1F3C00
0F3C00
0F7800
0F7800
07F800
07F000
07F000
03F000
ENDCHAR
STARTCHAR w
ENCODING 119
SWIDTH 600 0
DWIDTH 19 0
BBX 19 16 0 0
BITMAP
F801E0
F801E0
78F3E0
78F3E0
78F3C0
79F3C0
7DB3C0
7DB3C0
7DBBC0
3DBBC0
3FBB80
3FBF80
3F9F80
3F9F80
3F1F80
1F1F80
ENDCHAR
STARTCHAR x
ENCODING 120
SWIDTH 600 0
DWIDTH 19 0
BBX 17 16 1 0
BITMAP
7C1F80
3E1F00
3E3E00
1F3C00
0F7C00
0FF800
07F800
03F000
07F000
0FF000
0FF800
1F7C00
3E3E00
3E3E00
7C1F00
F80F80
ENDCHAR
STARTCHAR y
ENCODING 121
SWIDTH 600 0
DWIDTH 19 0
BBX 17 23 1 -7
BITMAP
F80780
780F80
7C0F00
7C0F00
3C1F00
3E1E00
1E1E00
1E3C00
0F3C00
0F3C00
0F7800
07F800
07F800
03F000
03F000
01E000
01E000
03E000
07C000
3FC000
3F8000
7F0000
7E0000
ENDCHAR
STARTCHAR z
ENCODING 122
SWIDTH 600 0
DWIDTH 19 0
BBX 15 16 2 0
BITMAP
7FFE
7FFE
7FFE
7FFC
00FC
01F8
03F0
07E0
0FC0
0F80
1F00
3E00
7FFE
FFFE
FFFE
FFFE
ENDCHAR
STARTCHAR braceleft
ENCODING 123
SWIDTH 600 0
DWIDTH 19 0
BBX 13 28 3 -5
BITMAP
01F8
07F8
07F8
0780
0F00
0F00
0700
0700
0700
0700
0700
0F00
1F00
FF00
F800
FF00
1F00
0700
0700
0700
0700
0700
0F00
0F00
0F00
0780
07F8
01F8
ENDCHAR
STARTCHAR bar
ENCODING 124
SWIDTH 600 0
DWIDTH 19 0
BBX 4 32 8 -8
BITMAP
F0
F0
F0
F0
F0
F0
F0
F0
F0
F0
F0
F0
F0
F0
F0
F0
F0
F0
F0
F0
F0
F0
F0
F0
F0
F0
F0
F0
F0
F0
F0
F0
ENDCHAR
STARTCHAR braceright
ENCODING 125
SWIDTH 600 0
DWIDTH 19 0
BBX 13 28 3 -5
BITMAP
FC00
FF00
FF00
0F80
0780
0780
0780
0780
0780
0700
0700
0780
07C0
03F8
00F8
03F8
07C0
0780
0700
0700
0780
0780
0780
0780
0780
0F00
FF00
FC00
ENDCHAR
STARTCHAR asciitilde
ENCODING 126
SWIDTH 600 0
DWIDTH 19 0
BBX 16 7 2 7
BITMAP
1E0C
3F0F
7F9E
7FFE
F3FC
E1F8
6070
ENDCHAR
STARTCHAR uni00A0
ENCODING 160
SWIDTH 600 0
DWIDTH 19 0
BBX 1 1 0 0
BITMAP
00
ENDCHAR
STARTCHAR exclamdown
ENCODING 161
SWIDTH 600 0
DWIDTH 19 0
BBX 7 23 6 -7
BITMAP
38
7C
FE
FE
7C
38
00
00
38
38
38
38
38
38
3C
3C
3C
7C
7C
7C
7C
7C
7C
ENDCHAR
STARTCHAR cent
ENCODING 162
SWIDTH 600 0
DWIDTH 19 0
BBX 14 22 3 -1
BITMAP
01C0
01C0
01C0
07E0
1FF8
3FFC
7FF0
7DD0
F9C0
F9C0
F9C0
F9C0
F9C0
F9C0
7DD0
7FF8
3FF8
1FFC
07E0
01C0
01C0
01C0
ENDCHAR
STARTCHAR sterling
ENCODING 163
SWIDTH 600 0
DWIDTH 19 0
BBX 16 20 2 0
BITMAP
03F8
0FFC
1FFE
1FFF
3F0C
3E00
3E00
1E00
FFF8
FFF8
FFF8
0F00
0F00
0F00
1E00
3E00
7FFF
FFFF
FFFF
FFFF
ENDCHAR
STARTCHAR currency
ENCODING 164
SWIDTH 600 0
DWIDTH 19 0
BBX 17 17 1 2
BITMAP
200200
700700
FBEF80
7FFF00
3FFE00
3FFE00
3E3E00
3C1E00
3C1F00
3C1E00
3E3E00
3FFE00
3FFE00
7FFF00
FBEF80
700700
200200
ENDCHAR
STARTCHAR yen
ENCODING 165
SWIDTH 600 0
DWIDTH 19 0
BBX 17 20 1 0
BITMAP
F80F80
7C0F00
7C1F00
3E1E00
1E3E00
1E3C00
0F7800
0F7800
07F000
7FFF00
7FFF00
03E000
03E000
7FFF00
7FFF00
03E000
03E000
03E000
03E000
03E000
ENDCHAR
STARTCHAR brokenbar
ENCODING 166
SWIDTH 600 0
DWIDTH 19 0
BBX 4 32 8 -8
BITMAP
F0
F0
F0
F0
F0
F0
F0
F0
F0
F0
F0
F0
F0
F0
00
00
00
00
F0
F0
F0
F0
F0
F0
F0
F0
F0
F0
F0
F0
F0
F0
ENDCHAR
STARTCHAR section
ENCODING 167
SWIDTH 600 0
DWIDTH 19 0
BBX 15 25 2 -3
BITMAP
07C0
1FF0
1FF8
3FF8
3C30
3C20
3E00
1FC0
3FF0
7FF8
F0FC
F03E
F81E
7C1E
7F1E
3FFC
0FF8
03F0
00F8
2078
38F8
7FF8
7FF0
3FE0
0FC0
ENDCHAR
STARTCHAR dieresis
ENCODING 168
SWIDTH 600 0
DWIDTH 19 0
BBX 13 5 3 18
BITMAP
7870
78F8
FCF8
78F8
7870
ENDCHAR
STARTCHAR copyright
ENCODING 169
SWIDTH 600 0
DWIDTH 19 0
BBX 18 20 1 0
BITMAP
03F000
0FFC00
3C1E00
300700
600300
E3F180
C7F980
CFF180
CE01C0
DE00C0
DE00C0
CE01C0
CFA180
C7F180
E7FB80
608300
300700
3C1E00
0FFC00
03F000
ENDCHAR
STARTCHAR ordfeminine
ENCODING 170
SWIDTH 600 0
DWIDTH 19 0
BBX 10 11 5 12
BITMAP
3E00
FF80
FF80
43C0
03C0
1FC0
FFC0
F3C0
E3C0
FFC0
7DC0
ENDCHAR
STARTCHAR guillemotleft
ENCODING 171
SWIDTH 600 0
DWIDTH 19 0
BBX 16 15 1 1
BITMAP
0402
0F07
1E0F
3E1E
7C7C
F87C
F078
F070
F078
F87C
7C7C
3E1E
1E0F
0F07
0402
ENDCHAR
STARTCHAR logicalnot
ENCODING 172
SWIDTH 600 0
DWIDTH 19 0
BBX 15 10 2 3
BITMAP
FFFE
FFFE
FFFE
FFFE
001E
001E
001E
001E
001E
001E
ENDCHAR
STARTCHAR uni00AD
ENCODING 173
SWIDTH 600 0
DWIDTH 19 0
BBX 15 4 2 9
BITMAP
FFFE
FFFE
FFFE
FFFE
ENDCHAR
STARTCHAR registered
ENCODING 174
SWIDTH 600 0
DWIDTH 19 0
BBX 13 13 3 10
BITMAP
0F80
3FE0
3070
6030
CF98
CD98
CD98
CF18
CD98
6070
7070
3FE0
0F80
ENDCHAR
STARTCHAR macron
ENCODING 175
SWIDTH 600 0
DWIDTH 19 0
BBX 9 3 5 19
BITMAP
FF80
FF80
FF80
ENDCHAR
STARTCHAR degree
ENCODING 176
SWIDTH 600 0
DWIDTH 19 0
BBX 9 9 5 13
BITMAP
3E00
7F00
E380
E180
C180
E180
E380
7F00
3E00
ENDCHAR
STARTCHAR plusminus
ENCODING 177
SWIDTH 600 0
DWIDTH 19 0
BBX 15 18 2 0
BITMAP
0380
0380
0380
0380
0380
FFFE
FFFE
FFFE
FFFE
0380
0380
0380
0000
0000
FFFE
FFFE
FFFE
FFFE
ENDCHAR
STARTCHAR two.sups
ENCODING 178
SWIDTH 600 0
DWIDTH 19 0
BBX 11 13 4 12
BITMAP
1F00
7F80
FFC0
63C0
41C0
01C0
0380
0780
0F00
1E00
7FE0
7FE0
7FE0
ENDCHAR
STARTCHAR three.sups
ENCODING 179
SWIDTH 600 0
DWIDTH 19 0
BBX 11 14 4 11
BITMAP
1F00
7F80
7FC0
23C0
01C0
03C0
0F80
0F80
01C0
41E0
61E0
FFC0
7FC0
1F00
ENDCHAR
STARTCHAR acute
ENCODING 180
SWIDTH 600 0
DWIDTH 19 0
BBX 8 8 7 18
BITMAP
04
0E
1F
3F
7E
F8
70
20
ENDCHAR
STARTCHAR uni00B5
ENCODING 181
SWIDTH 600 0
DWIDTH 19 0
BBX 17 23 2 -7
BITMAP
F83E00
F83E00
F83E00
F83E00
F83E00
F83E00
F83E00
F83E00
F83C00
F83C00
F87C00
FCFE00
FFFF00
FFDF00
FFDF80
F70F80
F00000
F80000
F80000
F80000
F80000
F80000
F80000
ENDCHAR
STARTCHAR paragraph
ENCODING 182
SWIDTH 600 0
DWIDTH 19 0
BBX 15 23 2 -3
BITMAP
0FBE
3FBE
7FBE
FFBE
FFBE
FFBE
FFBE
FFBE
FFBE
FFBE
FFBE
7FBE
3FBE
1FBE
01BE
003E
003E
003E
003E
003E
003E
003E
003E
ENDCHAR
STARTCHAR periodcentered
ENCODING 183
SWIDTH 600 0
DWIDTH 19 0
BBX 7 8 6 8
BITMAP
3C
7E
FE
FE
FE
FE
7E
38
ENDCHAR
STARTCHAR cedilla
ENCODING 184
SWIDTH 600 0
DWIDTH 19 0
BBX 7 8 6 -8
BITMAP
38
30
7C
1C
1E
1C
FC
F0
ENDCHAR
STARTCHAR one.sups
ENCODING 185
SWIDTH 600 0
DWIDTH 19 0
BBX 11 13 5 12
BITMAP
0F00
7F00
7F00
7F00
0F00
0F00
0F00
0F00
0F00
0F00
FFE0
FFE0
FFE0
ENDCHAR
STARTCHAR ordmasculine
ENCODING 186
SWIDTH 600 0
DWIDTH 19 0
BBX 11 11 4 12
BITMAP
1F00
3F80
7FC0
71E0
F1E0
F0E0
F1E0
71E0
7FC0
3F80
1F00
ENDCHAR
STARTCHAR guillemotright
ENCODING 187
SWIDTH 600 0
DWIDTH 19 0
BBX 16 15 2 1
BITMAP
4020
F070
F8F8
7C3C
3E3E
1E1F
1E0F
0E0F
1E0F
1E1F
3E3E
7C3C
F878
F0F0
4020
ENDCHAR
STARTCHAR onequarter
ENCODING 188
SWIDTH 600 0
DWIDTH 19 0
BBX 18 20 1 0
BITMAP
1E0100
7E0380
7E07C0
7E0F00
1E0E00
1E1C00
1E3800
1E1000
1E0000
1E0000
001800
041C00
0E3800
1C3700
3C7700
787700
F0FFC0
E0FFC0
400700
000700
ENDCHAR
STARTCHAR onehalf
ENCODING 189
SWIDTH 600 0
DWIDTH 19 0
BBX 18 20 1 0
BITMAP
1E0100
7E0380
7E07C0
7E0F00
1E0E00
1E1C00
1E3800
1E1000
1E0000
1E0000
001E00
047F80
0E7F80
1C2780
3C0380
780700
F00E00
E03F80
407F80
007F80
ENDCHAR
STARTCHAR threequarters
ENCODING 190
SWIDTH 600 0
DWIDTH 19 0
BBX 18 21 1 0
BITMAP
3C0000
FE0100
FF0380
4F07C0
0F0780
1E0F00
1F1E00
473800
FF1000
FF0000
7C0000
001800
041C00
0E3800
1E3700
3C7700
787700
F0FFC0
60FFC0
200700
000700
ENDCHAR
STARTCHAR questiondown
ENCODING 191
SWIDTH 600 0
DWIDTH 19 0
BBX 13 23 3 -7
BITMAP
0780
0FC0
0FC0
0FC0
0FC0
0780
0000
0000
0780
0780
0780
0F80
1F00
3E00
7C00
7800
F800
F800
FC70
7FF8
7FF8
3FE0
0FC0
ENDCHAR
STARTCHAR Agrave
ENCODING 192
SWIDTH 600 0
DWIDTH 19 0
BBX 19 29 0 0
BITMAP
010000
038000
07C000
07F000
01F800
00F000
002000
000000
01F800
03F800
03F800
03FC00
07BC00
07BC00
07BC00
0F9E00
0F1E00
0F1E00
0F1F00
1E0F00
1FFF00
1FFF80
3FFF80
3FFF80
3C07C0
7C07C0
7C07C0
7803C0
F803E0
ENDCHAR
STARTCHAR Aacute
ENCODING 193
SWIDTH 600 0
DWIDTH 19 0
BBX 19 29 0 0
BITMAP
001000
003800
007C00
00FC00
03F000
01E000
008000
000000
01F800
03F800
03F800
03FC00
07BC00
07BC00
07BC00
0F9E00
0F1E00
0F1E00
0F1F00
1E0F00
1FFF00
1FFF80
3FFF80
3FFF80
3C07C0
7C07C0
7C07C0
7803C0
F803E0
ENDCHAR
STARTCHAR Acircumflex
ENCODING 194
SWIDTH 600 0
DWIDTH 19 0
BBX 19 27 0 0
BITMAP
01F800
03F800
07BC00
0F1E00
060C00
000000
01F800
03F800
03F800
03FC00
07BC00
07BC00
07BC00
0F9E00
0F1E00
0F1E00
0F1F00
1E0F00
1FFF00
1FFF80
3FFF80
3FFF80
3C07C0
7C07C0
7C07C0
7803C0
F803E0
ENDCHAR
STARTCHAR Atilde
ENCODING 195
SWIDTH 600 0
DWIDTH 19 0
BBX 19 27 0 0
BITMAP
078700
0FE700
0FFF00
1E7E00
1C3C00
000000
01F800
03F800
03F800
03FC00
07BC00
07BC00
07BC00
0F9E00
0F1E00
0F1E00
0F1F00
1E0F00
1FFF00
1FFF80
3FFF80
3FFF80
3C07C0
7C07C0
7C07C0
7803C0
F803E0
ENDCHAR
STARTCHAR Adieresis
ENCODING 196
SWIDTH 600 0
DWIDTH 19 0
BBX 19 27 0 0
BITMAP
070E00
0F1E00
0F1E00
0F1E00
070E00
000000
01F800
03F800
03F800
03FC00
07BC00
07BC00
07BC00
0F9E00
0F1E00
0F1E00
0F1F00
1E0F00
1FFF00
1FFF80
3FFF80
3FFF80
3C07C0
7C07C0
7C07C0
7803C0
F803E0
ENDCHAR
STARTCHAR Aring
ENCODING 197
SWIDTH 600 0
DWIDTH 19 0
BBX 19 29 0 0
BITMAP
00F000
03F800
039800
031800
039800
03F800
00F000
000000
01F800
03F800
03F800
03FC00
07BC00
07BC00
07BC00
0F9E00
0F1E00
0F1E00
0F1F00
1E0F00
1FFF00
1FFF80
3FFF80
3FFF80
3C07C0
7C07C0
7C07C0
7803C0
F803E0
ENDCHAR
STARTCHAR AE
ENCODING 198
SWIDTH 600 0
DWIDTH 19 0
BBX 19 21 0 0
BITMAP
01FFE0
03FFE0
03FFE0
03FFE0
07FC00
07BC00
07BC00
0FBC00
0FBFC0
0F3FC0
1F3FC0
1F3FC0
1E3C00
3FFC00
3FFC00
3FFC00
7FFC00
7C3FE0
7C3FE0
F83FE0
F83FE0
ENDCHAR
STARTCHAR Ccedilla
ENCODING 199
SWIDTH 600 0
DWIDTH 19 0
BBX 16 29 2 -8
BITMAP
03F8
0FFC
1FFF
3FFE
7F0C
7C08
FC00
F800
F800
F800
F800
F800
F800
F800
F800
7C04
7F0E
3FFF
1FFF
0FFE
03F8
00C0
01C0
03E0
00F0
0070
00F0
07E0
0380
ENDCHAR
STARTCHAR Egrave
ENCODING 200
SWIDTH 600 0
DWIDTH 19 0
BBX 14 29 3 0
BITMAP
0400
0E00
1F00
1F80
07C0
03C0
0080
0000
FFFC
FFFC
FFFC
FFFC
F800
F800
F800
F800
FFF0
FFF0
FFF0
FFF0
F800
F800
F800
F800
F800
FFFC
FFFC
FFFC
FFFC
ENDCHAR
STARTCHAR Eacute
ENCODING 201
SWIDTH 600 0
DWIDTH 19 0
BBX 14 29 3 0
BITMAP
0040
00E0
01F0
07E0
0FC0
0700
0200
0000
FFFC
FFFC
FFFC
FFFC
F800
F800
F800
F800
FFF0
FFF0
FFF0
FFF0
F800
F800
F800
F800
F800
FFFC
FFFC
FFFC
FFFC
ENDCHAR
STARTCHAR Ecircumflex
ENCODING 202
SWIDTH 600 0
DWIDTH 19 0
BBX 14 27 3 0
BITMAP
0FC0
0FE0
1EF0
3C78
1830
0000
FFFC
FFFC
FFFC
FFFC
F800
F800
F800
F800
FFF0
FFF0
FFF0
FFF0
F800
F800
F800
F800
F800
FFFC
FFFC
FFFC
FFFC
ENDCHAR
STARTCHAR Edieresis
ENCODING 203
SWIDTH 600 0
DWIDTH 19 0
BBX 14 27 3 0
BITMAP
3870
3C78
7C78
3C78
3870
0000
FFFC
FFFC
FFFC
FFFC
F800
F800
F800
F800
FFF0
FFF0
FFF0
FFF0
F800
F800
F800
F800
F800
FFFC
FFFC
FFFC
FFFC
ENDCHAR
STARTCHAR Igrave
ENCODING 204
SWIDTH 600 0
DWIDTH 19 0
BBX 15 29 2 0
BITMAP
0400
0E00
1F00
1FC0
07E0
03C0
0080
0000
FFFE
FFFE
FFFE
FFFE
07C0
07C0
07C0
07C0
07C0
07C0
07C0
07C0
07C0
07C0
07C0
07C0
07C0
FFFE
FFFE
FFFE
FFFE
ENDCHAR
STARTCHAR Iacute
ENCODING 205
SWIDTH 600 0
DWIDTH 19 0
BBX 15 29 2 0
BITMAP
0040
00E0
01F0
03F0
0FC0
0780
0200
0000
FFFE
FFFE
FFFE
FFFE
07C0
07C0
07C0
07C0
07C0
07C0
07C0
07C0
07C0
07C0
07C0
07C0
07C0
FFFE
FFFE
FFFE
FFFE
ENDCHAR
STARTCHAR Icircumflex
ENCODING 206
SWIDTH 600 0
DWIDTH 19 0
BBX 15 27 2 0
BITMAP
07E0
0FE0
1EF0
3C78
1830
0000
FFFE
FFFE
FFFE
FFFE
07C0
07C0
07C0
07C0
07C0
07C0
07C0
07C0
07C0
07C0
07C0
07C0
07C0
FFFE
FFFE
FFFE
FFFE
ENDCHAR
STARTCHAR Idieresis
ENCODING 207
SWIDTH 600 0
DWIDTH 19 0
BBX 15 27 2 0
BITMAP
1C38
3C78
3C78
3C78
1C38
0000
FFFE
FFFE
FFFE
FFFE
07C0
07C0
07C0
07C0
07C0
07C0
07C0
07C0
07C0
07C0
07C0
07C0
07C0
FFFE
FFFE
FFFE
FFFE
ENDCHAR
STARTCHAR Eth
ENCODING 208
SWIDTH 600 0
DWIDTH 19 0
BBX 18 21 0 0
BITMAP
3FF000
3FFC00
3FFE00
3FFF00
3E3F80
3E0F80
3E0FC0
3E07C0
3E07C0
FFC7C0
FFC7C0
3E07C0
3E07C0
3E07C0
3E0FC0
3E0F80
3E3F80
3FFF00
3FFE00
3FFC00
3FF000
ENDCHAR
STARTCHAR Ntilde
ENCODING 209
SWIDTH 600 0
DWIDTH 19 0
BBX 15 27 2 0
BITMAP
0E1C
3F9C
3FFC
39F8
38F0
0000
F81E
FC1E
FC1E
FC1E
FE1E
FE1E
FF1E
F71E
F79E
F79E
F39E
FBDE
F9DE
F9FE
F8FE
F8FE
F8FE
F87E
F87E
F83E
F83E
ENDCHAR
STARTCHAR Ograve
ENCODING 210
SWIDTH 600 0
DWIDTH 19 0
BBX 17 29 1 0
BITMAP
020000
070000
0F8000
0FE000
03F000
01E000
004000
000000
03F000
0FF800
1FFE00
3FFE00
7E3F00
7C1F00
7C0F80
F80F80
F80F80
F80F80
F80F80
F80F80
F80F80
F80F80
7C0F80
7C1F00
7E3F00
3FFE00
1FFE00
0FF800
03F000
ENDCHAR
STARTCHAR Oacute
ENCODING 211
SWIDTH 600 0
DWIDTH 19 0
BBX 17 29 1 0
BITMAP
002000
007000
00F800
01F800
07E000
03C000
010000
000000
03F000
0FF800
1FFE00
3FFE00
7E3F00
7C1F00
7C0F80
F80F80
F80F80
F80F80
F80F80
F80F80
F80F80
F80F80
7C0F80
7C1F00
7E3F00
3FFE00
1FFE00
0FF800
03F000
ENDCHAR
STARTCHAR Ocircumflex
ENCODING 212
SWIDTH 600 0
DWIDTH 19 0
BBX 17 27 1 0
BITMAP
03F000
07F000
0F7800
1E3C00
0C1800
000000
03F000
0FF800
1FFE00
3FFE00
7E3F00
7C1F00
7C0F80
F80F80
F80F80
F80F80
F80F80
F80F80
F80F80
F80F80
7C0F80
7C1F00
7E3F00
3FFE00
1FFE00
0FF800
03F000
ENDCHAR
STARTCHAR Otilde
ENCODING 213
SWIDTH 600 0
DWIDTH 19 0
BBX 17 27 1 0
BITMAP
0F0E00
1FCE00
1FFE00
3CFC00
387800
000000
03F000
0FF800
1FFE00
3FFE00
7E3F00
7C1F00
7C0F80
F80F80
F80F80
F80F80
F80F80
F80F80
F80F80
F80F80
7C0F80
7C1F00
7E3F00
3FFE00
1FFE00
0FF800
03F000
ENDCHAR
STARTCHAR Odieresis
ENCODING 214
SWIDTH 600 0
DWIDTH 19 0
BBX 17 27 1 0
BITMAP
0E1C00
1E3C00
1E3C00
1E3C00
0E1C00
000000
03F000
0FF800
1FFE00
3FFE00
7E3F00
7C1F00
7C0F80
F80F80
F80F80
F80F80
F80F80
F80F80
F80F80
F80F80
7C0F80
7C1F00
7E3F00
3FFE00
1FFE00
0FF800
03F000
ENDCHAR
STARTCHAR multiply
ENCODING 215
SWIDTH 600 0
DWIDTH 19 0
BBX 14 14 3 4
BITMAP
2010
7038
F07C
78F0
3DE0
1FC0
0F80
0F80
1FC0
3DE0
78F0
F078
603C
2010
ENDCHAR
STARTCHAR Oslash
ENCODING 216
SWIDTH 600 0
DWIDTH 19 0
BBX 18 23 1 -1
BITMAP
000100
03F380
0FFFC0
1FFF00
3FFF00
7E3F00
7C3F00
7C3F80
F87F80
F8FF80
F9EF80
F9CF80
FBCF80
FF8F80
FF0F80
7F0F80
7E1F00
7E3F00
3FFE00
7FFE00
FFF800
E3F000
600000
ENDCHAR
STARTCHAR Ugrave
ENCODING 217
SWIDTH 600 0
DWIDTH 19 0
BBX 15 29 2 0
BITMAP
0400
0E00
1F00
1FC0
07E0
03C0
0080
0000
F81E
F81E
F81E
F81E
F81E
F81E
F81E
F81E
F81E
F81E
F81E
F81E
F81E
F81E
F83E
F83E
7C7E
7FFC
3FFC
1FF8
0FE0
ENDCHAR
STARTCHAR Uacute
ENCODING 218
SWIDTH 600 0
DWIDTH 19 0
BBX 15 29 2 0
BITMAP
0040
00E0
01F0
03F0
0FC0
0780
0200
0000
F81E
F81E
F81E
F81E
F81E
F81E
F81E
F81E
F81E
F81E
F81E
F81E
F81E
F81E
F83E
F83E
7C7E
7FFC
3FFC
1FF8
0FE0
ENDCHAR
STARTCHAR Ucircumflex
ENCODING 219
SWIDTH 600 0
DWIDTH 19 0
BBX 15 27 2 0
BITMAP
07E0
0FE0
1EF0
3C78
1830
0000
F81E
F81E
F81E
F81E
F81E
F81E
F81E
F81E
F81E
F81E
F81E
F81E
F81E
F81E
F83E
F83E
7C7E
7FFC
3FFC
1FF8
0FE0
ENDCHAR
STARTCHAR Udieresis
ENCODING 220
SWIDTH 600 0
DWIDTH 19 0
BBX 15 27 2 0
BITMAP
1C38
3C78
3C78
3C78
1C38
0000
F81E
F81E
F81E
F81E
F81E
F81E
F81E
F81E
F81E
F81E
F81E
F81E
F81E
F81E
F83E
F83E
7C7E
7FFC
3FFC
1FF8
0FE0
ENDCHAR
STARTCHAR Yacute
ENCODING 221
SWIDTH 600 0
DWIDTH 19 0
BBX 18 29 1 0
BITMAP
002000
007000
00F800
01F800
07E000
03C000
010000
000000
F807C0
F80F80
7C0F80
7C1F00
3C1F00
3E3E00
1E3E00
1F3C00
0F7C00
0F7800
07F800
07F000
03F000
03E000
03E000
03E000
03E000
03E000
03E000
03E000
03E000
ENDCHAR
STARTCHAR Thorn
ENCODING 222
SWIDTH 600 0
DWIDTH 19 0
BBX 16 21 2 0
BITMAP
F800
F800
F800
FFF0
FFFC
FFFE
FFFE
F83F
F81F
F81F
F81F
F81F
F83F
FFFE
FFFC
FFF8
FFE0
F800
F800
F800
F800
ENDCHAR
STARTCHAR germandbls
ENCODING 223
SWIDTH 600 0
DWIDTH 19 0
BBX 16 23 2 0
BITMAP
0FC0
3FF0
7FF0
7FF8
FCF8
F878
F878
F878
F8F0
F8F0
F9E0
F9F0
F9F8
F9FC
F8FE
F87F
F81F
F80F
F88F
F9FF
F9FF
FBFE
F8F8
ENDCHAR
STARTCHAR agrave
ENCODING 224
SWIDTH 600 0
DWIDTH 19 0
BBX 15 26 2 0
BITMAP
0400
0E00
1F00
1F80
0FC0
07E0
01C0
0080
0000
0000
07E0
3FF8
7FFC
7FFC
307E
003E
03FE
1FFE
7FFE
FC3E
F83E
F87E
FFFE
FFFE
7FDE
1F1E
ENDCHAR
STARTCHAR aacute
ENCODING 225
SWIDTH 600 0
DWIDTH 19 0
BBX 15 26 2 0
BITMAP
0020
0070
00F8
00FC
01F0
03E0
01C0
0080
0000
0000
07E0
3FF8
7FFC
7FFC
307E
003E
03FE
1FFE
7FFE
FC3E
F83E
F87E
FFFE
FFFE
7FDE
1F1E
ENDCHAR
STARTCHAR acircumflex
ENCODING 226
SWIDTH 600 0
DWIDTH 19 0
BBX 15 24 2 0
BITMAP
07E0
07F0
0FF8
1E78
3C3C
0808
0000
0000
07E0
3FF8
7FFC
7FFC
307E
003E
03FE
1FFE
7FFE
FC3E
F83E
F87E
FFFE
FFFE
7FDE
1F1E
ENDCHAR
STARTCHAR atilde
ENCODING 227
SWIDTH 600 0
DWIDTH 19 0
BBX 15 23 2 0
BITMAP
0F00
1F9C
3FFC
3DFC
3870
0000
0000
07E0
3FF8
7FFC
7FFC
307E
003E
03FE
1FFE
7FFE
FC3E
F83E
F87E
FFFE
FFFE
7FDE
1F1E
ENDCHAR
STARTCHAR adieresis
ENCODING 228
SWIDTH 600 0
DWIDTH 19 0
BBX 15 23 2 0
BITMAP
1C38
3E7C
3E7C
3E7C
1C38
0000
0000
07E0
3FF8
7FFC
7FFC
307E
003E
03FE
1FFE
7FFE
FC3E
F83E
F87E
FFFE
FFFE
7FDE
1F1E
ENDCHAR
STARTCHAR aring
ENCODING 229
SWIDTH 600 0
DWIDTH 19 0
BBX 15 25 2 0
BITMAP
03E0
07F0
0E70
0E30
0E70
07F0
03E0
0000
0000
07E0
3FF8
7FFC
7FFC
307E
003E
03FE
1FFE
7FFE
FC3E
F83E
F87E
FFFE
FFFE
7FDE
1F1E
ENDCHAR
STARTCHAR ae
ENCODING 230
SWIDTH 600 0
DWIDTH 19 0
BBX 18 16 1 0
BITMAP
1E1E00
7F7F00
FFFF80
7FFF80
63E3C0
01FFC0
0FFFC0
3FFFC0
7FFFC0
F9C000
F1E000
F1F100
FFFF80
FFFF80
FF7FC0
3C1F00
ENDCHAR
STARTCHAR ccedilla
ENCODING 231
SWIDTH 600 0
DWIDTH 19 0
BBX 16 24 2 -8
BITMAP
03F0
0FFC
3FFE
3FFC
7E0C
7C00
F800
F800
F800
F800
FC04
7E0C
7FFE
3FFE
1FFD
03F0
01C0
01C0
03E0
00F0
0070
00F0
07E0
0380
ENDCHAR
STARTCHAR egrave
ENCODING 232
SWIDTH 600 0
DWIDTH 19 0
BBX 16 26 2 0
BITMAP
0400
0E00
1F00
3F80
0F80
07C0
03C0
0080
0000
0000
07E0
1FF8
3FFC
7FFE
781E
FFFE
FFFE
FFFF
FFFE
F800
F800
FC0C
7FFC
3FFE
1FFC
07F0
ENDCHAR
STARTCHAR eacute
ENCODING 233
SWIDTH 600 0
DWIDTH 19 0
BBX 16 26 2 0
BITMAP
0020
0070
00F8
01FC
01F0
03E0
07C0
0100
0000
0000
07E0
1FF8
3FFC
7FFE
781E
FFFE
FFFE
FFFF
FFFE
F800
F800
FC0C
7FFC
3FFE
1FFC
07F0
ENDCHAR
STARTCHAR ecircumflex
ENCODING 234
SWIDTH 600 0
DWIDTH 19 0
BBX 16 24 2 0
BITMAP
07E0
0FF0
0FF0
1E78
3C3C
1818
0000
0000
07E0
1FF8
3FFC
7FFE
781E
FFFE
FFFE
FFFF
FFFE
F800
F800
FC0C
7FFC
3FFE
1FFC
07F0
ENDCHAR
STARTCHAR edieresis
ENCODING 235
SWIDTH 600 0
DWIDTH 19 0
BBX 16 23 2 0
BITMAP
1C38
3E7C
3E7C
3E7C
1C38
0000
0000
07E0
1FF8
3FFC
7FFE
781E
FFFE
FFFE
FFFF
FFFE
F800
F800
FC0C
7FFC
3FFE
1FFC
07F0
ENDCHAR
STARTCHAR igrave
ENCODING 236
SWIDTH 600 0
DWIDTH 19 0
BBX 11 26 3 0
BITMAP
0400
0E00
1F00
3F80
0F80
07C0
03E0
0080
0000
0000
FFE0
FFE0
FFE0
FFE0
03E0
03E0
03E0
03E0
03E0
03E0
03E0
03E0
03E0
03E0
03E0
03E0
ENDCHAR
STARTCHAR iacute
ENCODING 237
SWIDTH 600 0
DWIDTH 19 0
BBX 14 26 3 0
BITMAP
0020
0070
00F8
01FC
01F0
03E0
03C0
0100
0000
0000
FFE0
FFE0
FFE0
FFE0
03E0
03E0
03E0
03E0
03E0
03E0
03E0
03E0
03E0
03E0
03E0
03E0
ENDCHAR
STARTCHAR icircumflex
ENCODING 238
SWIDTH 600 0
DWIDTH 19 0
BBX 14 24 3 0
BITMAP
07E0
0FF0
0FF0
1E78
3C3C
1818
0000
0000
FFE0
FFE0
FFE0
FFE0
03E0
03E0
03E0
03E0
03E0
03E0
03E0
03E0
03E0
03E0
03E0
03E0
ENDCHAR
STARTCHAR idieresis
ENCODING 239
SWIDTH 600 0
DWIDTH 19 0
BBX 14 23 3 0
BITMAP
1C38
3E7C
3E7C
3E7C
1C38
0000
0000
FFE0
FFE0
FFE0
FFE0
03E0
03E0
03E0
03E0
03E0
03E0
03E0
03E0
03E0
03E0
03E0
03E0
ENDCHAR
STARTCHAR eth
ENCODING 240
SWIDTH 600 0
DWIDTH 19 0
BBX 17 23 1 0
BITMAP
040400
0F0E00
1FFF00
07F800
03F000
0FF800
3E7C00
183E00
07DE00
1FFF00
3FFF00
7FFF00
7C3F00
781F80
780F80
F80F80
780F00
780F00
7E1F00
3FFE00
3FFE00
0FF800
03E000
ENDCHAR
STARTCHAR ntilde
ENCODING 241
SWIDTH 600 0
DWIDTH 19 0
BBX 15 23 2 0
BITMAP
0E00
1F9C
3FFC
39F8
38F0
0000
0000
F1F8
F3FC
FFFE
FFFE
FE3E
FC3E
F81E
F81E
F81E
F81E
F81E
F81E
F81E
F81E
F81E
F81E
ENDCHAR
STARTCHAR ograve
ENCODING 242
SWIDTH 600 0
DWIDTH 19 0
BBX 17 26 1 0
BITMAP
020000
060000
0F0000
1F8000
07C000
03E000
01C000
008000
000000
000000
03F000
0FF800
1FFE00
3FFE00
7E3F00
7C1F00
7C0F80
F80F80
780F80
7C0F80
7C1F00
7E3F00
3FFE00
1FFE00
0FF800
03F000
ENDCHAR
STARTCHAR oacute
ENCODING 243
SWIDTH 600 0
DWIDTH 19 0
BBX 17 26 1 0
BITMAP
001000
003800
007C00
00FC00
01F800
03E000
01C000
008000
000000
000000
03F000
0FF800
1FFE00
3FFE00
7E3F00
7C1F00
7C0F80
F80F80
780F80
7C0F80
7C1F00
7E3F00
3FFE00
1FFE00
0FF800
03F000
ENDCHAR
STARTCHAR ocircumflex
ENCODING 244
SWIDTH 600 0
DWIDTH 19 0
BBX 17 24 1 0
BITMAP
03E000
07F000
0FF800
1F7C00
1E1C00
080800
000000
000000
03F000
0FF800
1FFE00
3FFE00
7E3F00
7C1F00
7C0F80
F80F80
780F80
7C0F80
7C1F00
7E3F00
3FFE00
1FFE00
0FF800
03F000
ENDCHAR
STARTCHAR otilde
ENCODING 245
SWIDTH 600 0
DWIDTH 19 0
BBX 17 23 1 0
BITMAP
070000
1FDE00
1FFC00
1DFC00
1C7800
000000
000000
03F000
0FF800
1FFE00
3FFE00
7E3F00
7C1F00
7C0F80
F80F80
780F80
7C0F80
7C1F00
7E3F00
3FFE00
1FFE00
0FF800
03F000
ENDCHAR
STARTCHAR odieresis
ENCODING 246
SWIDTH 600 0
DWIDTH 19 0
BBX 17 23 1 0
BITMAP
1E1C00
1E3E00
3F3E00
1E3E00
1E1C00
000000
000000
03F000
0FF800
1FFE00
3FFE00
7E3F00
7C1F00
7C0F80
F80F80
780F80
7C0F80
7C1F00
7E3F00
3FFE00
1FFE00
0FF800
03F000
ENDCHAR
STARTCHAR divide
ENCODING 247
SWIDTH 600 0
DWIDTH 19 0
BBX 15 18 2 2
BITMAP
0380
07C0
07C0
07C0
0380
0000
0000
FFFE
FFFE
FFFE
FFFE
0000
0000
0380
07C0
07C0
07C0
0380
ENDCHAR
STARTCHAR oslash
ENCODING 248
SWIDTH 600 0
DWIDTH 19 0
BBX 17 18 1 -1
BITMAP
000200
03F300
0FFF00
1FFE00
3FFE00
7E3F00
7C7F00
7CEF80
F9EF80
79CF80
7B8F80
7F1F00
7E3F00
3FFE00
3FFE00
7FF800
73F000
200000
ENDCHAR
STARTCHAR ugrave
ENCODING 249
SWIDTH 600 0
DWIDTH 19 0
BBX 15 26 2 0
BITMAP
0400
0C00
1E00
3F00
0F80
07C0
0380
0100
0000
0000
F83E
F83E
F83E
F83E
F83E
F83E
F83E
F83E
F83E
F83E
F87E
F8FE
FFFE
7FDE
7F9E
1F1E
ENDCHAR
STARTCHAR uacute
ENCODING 250
SWIDTH 600 0
DWIDTH 19 0
BBX 15 26 2 0
BITMAP
0040
0060
00F8
01F8
03E0
07C0
0380
0100
0000
0000
F83E
F83E
F83E
F83E
F83E
F83E
F83E
F83E
F83E
F83E
F87E
F8FE
FFFE
7FDE
7F9E
1F1E
ENDCHAR
STARTCHAR ucircumflex
ENCODING 251
SWIDTH 600 0
DWIDTH 19 0
BBX 15 24 2 0
BITMAP
07C0
0FE0
1FF0
3EF8
3838
1010
0000
0000
F83E
F83E
F83E
F83E
F83E
F83E
F83E
F83E
F83E
F83E
F87E
F8FE
FFFE
7FDE
7F9E
1F1E
ENDCHAR
STARTCHAR udieresis
ENCODING 252
SWIDTH 600 0
DWIDTH 19 0
BBX 15 23 2 0
BITMAP
3C78
3C78
7EFC
3C78
3C78
0000
0000
F83E
F83E
F83E
F83E
F83E
F83E
F83E
F83E
F83E
F83E
F87E
F8FE
FFFE
7FDE
7F9E
1F1E
ENDCHAR
STARTCHAR yacute
ENCODING 253
SWIDTH 600 0
DWIDTH 19 0
BBX 17 33 1 -7
BITMAP
001000
003800
007C00
00FC00
01F800
01F000
03C000
008000
000000
000000
F80780
780F80
7C0F00
7C0F00
3C1F00
3E1E00
1E1E00
1E3C00
0F3C00
0F3C00
0F7800
07F800
07F800
03F000
03F000
01E000
01E000
03E000
07C000
3FC000
3F8000
7F0000
7E0000
ENDCHAR
STARTCHAR thorn
ENCODING 254
SWIDTH 600 0
DWIDTH 19 0
BBX 16 30 2 -7
BITMAP
F800
F800
F800
F800
F800
F800
F800
F9F0
FFF8
FFFC
FFFE
FC3E
F83E
F81F
F81F
F81F
F81F
F83E
FC7E
FFFE
FFFC
FFF8
F9E0
F800
F800
F800
F800
F800
F800
F800
ENDCHAR
STARTCHAR ydieresis
ENCODING 255
SWIDTH 600 0
DWIDTH 19 0
BBX 17 30 1 -7
BITMAP
0E1C00
1F3E00
1F3E00
1F3E00
0E1C00
000000
000000
F80780
780F80
7C0F00
7C0F00
3C1F00
3E1E00
1E1E00
1E3C00
0F3C00
0F3C00
0F7800
07F800
07F800
03F000
03F000
01E000
01E000
03E000
07C000
3FC000
3F8000
7F0000
7E0000
ENDCHAR
STARTCHAR Amacron
ENCODING 256
SWIDTH 600 0
DWIDTH 19 0
BBX 19 26 0 0
BITMAP
07FC00
07FC00
07FC00
000000
000000
01F800
03F800
03F800
03FC00
07BC00
07BC00
07BC00
0F9E00
0F1E00
0F1E00
0F1F00
1E0F00
1FFF00
1FFF80
3FFF80
3FFF80
3C07C0
7C07C0
7C07C0
7803C0
F803E0
ENDCHAR
STARTCHAR amacron
ENCODING 257
SWIDTH 600 0
DWIDTH 19 0
BBX 15 22 2 0
BITMAP
1FF8
1FF8
1FF8
0000
0000
0000
07E0
3FF8
7FFC
7FFC
307E
003E
03FE
1FFE
7FFE
FC3E
F83E
F87E
FFFE
FFFE
7FDE
1F1E
ENDCHAR
STARTCHAR Abreve
ENCODING 258
SWIDTH 600 0
DWIDTH 19 0
BBX 19 27 0 0
BITMAP
0E0E00
071E00
07FC00
03FC00
01F000
000000
01F800
03F800
03F800
03FC00
07BC00
07BC00
07BC00
0F9E00
0F1E00
0F1E00
0F1F00
1E0F00
1FFF00
1FFF80
3FFF80
3FFF80
3C07C0
7C07C0
7C07C0
7803C0
F803E0
ENDCHAR
STARTCHAR abreve
ENCODING 259
SWIDTH 600 0
DWIDTH 19 0
BBX 15 23 2 0
BITMAP
1C1C
1E38
1FF8
0FF0
03E0
0000
0000
07E0
3FF8
7FFC
7FFC
307E
003E
03FE
1FFE
7FFE
FC3E
F83E
F87E
FFFE
FFFE
7FDE
1F1E
ENDCHAR
STARTCHAR Aogonek
ENCODING 260
SWIDTH 600 0
DWIDTH 19 0
BBX 20 29 0 -8
BITMAP
01F800
03F800
03F800
03FC00
07BC00
07BC00
07BC00
0F9E00
0F1E00
0F1E00
0F1F00
1E0F00
1FFF00
1FFF80
3FFF80
3FFF80
3C07C0
7C07C0
7C07C0
7803C0
F803E0
000180
000300
000700
000720
000FE0
0007E0
0007F0
0003C0
ENDCHAR
STARTCHAR aogonek
ENCODING 261
SWIDTH 600 0
DWIDTH 19 0
BBX 16 23 2 -7
BITMAP
07E0
3FF8
7FFC
7FFC
307E
003E
03FE
1FFE
7FFE
FC3E
F83E
F87E
FFFE
FFFE
7FDE
1F1E
001C
0070
0070
0070
007E
007F
003E
ENDCHAR
STARTCHAR Cacute
ENCODING 262
SWIDTH 600 0
DWIDTH 19 0
BBX 16 29 2 0
BITMAP
0010
0038
007C
01F8
03F0
01C0
0080
0000
03F8
0FFC
1FFF
3FFE
7F0C
7C08
FC00
F800
F800
F800
F800
F800
F800
F800
F800
7C04
7F0E
3FFF
1FFF
0FFE
03F8
ENDCHAR
STARTCHAR cacute
ENCODING 263
SWIDTH 600 0
DWIDTH 19 0
BBX 16 26 2 0
BITMAP
0010
0038
007C
00FE
01F8
01F0
03E0
0080
0000
0000
03F0
0FFC
3FFE
3FFC
7E0C
7C00
F800
F800
F800
F800
FC04
7E0C
7FFE
3FFE
1FFD
03F0
ENDCHAR
STARTCHAR Ccircumflex
ENCODING 264
SWIDTH 600 0
DWIDTH 19 0
BBX 16 27 2 0
BITMAP
03F0
03F8
07BC
0F1E
0608
0000
03F8
0FFC
1FFF
3FFE
7F0C
7C08
FC00
F800
F800
F800
F800
F800
F800
F800
F800
7C04
7F0E
3FFF
1FFF
0FFE
03F8
ENDCHAR
STARTCHAR ccircumflex
ENCODING 265
SWIDTH 600 0
DWIDTH 19 0
BBX 16 24 2 0
BITMAP
03F0
07F8
07F8
0F3C
1E1E
0C0C
0000
0000
03F0
0FFC
3FFE
3FFC
7E0C
7C00
F800
F800
F800
F800
FC04
7E0C
7FFE
3FFE
1FFD
03F0
ENDCHAR
STARTCHAR Cdotaccent
ENCODING 266
SWIDTH 600 0
DWIDTH 19 0
BBX 16 28 2 0
BITMAP
01E0
01F0
03F0
01F0
01E0
0000
0000
03F8
0FFC
1FFF
3FFE
7F0C
7C08
FC00
F800
F800
F800
F800
F800
F800
F800
F800
7C04
7F0E
3FFF
1FFF
0FFE
03F8
ENDCHAR
STARTCHAR cdotaccent
ENCODING 267
SWIDTH 600 0
DWIDTH 19 0
BBX 16 24 2 0
BITMAP
01E0
03F0
03F0
03F0
03F0
01E0
0000
0000
03F0
0FFC
3FFE
3FFC
7E0C
7C00
F800
F800
F800
F800
FC04
7E0C
7FFE
3FFE
1FFD
03F0
ENDCHAR
STARTCHAR Ccaron
ENCODING 268
SWIDTH 600 0
DWIDTH 19 0
BBX 16 27 2 0
BITMAP
0608
0F1E
07BC
03F8
03F0
0000
03F8
0FFC
1FFF
3FFE
7F0C
7C08
FC00
F800
F800
F800
F800
F800
F800
F800
F800
7C04
7F0E
3FFF
1FFF
0FFE
03F8
ENDCHAR
STARTCHAR ccaron
ENCODING 269
SWIDTH 600 0
DWIDTH 19 0
BBX 16 24 2 0
BITMAP
0C0C
1E1E
0F3C
07F8
07F8
03F0
0000
0000
03F0
0FFC
3FFE
3FFC
7E0C
7C00
F800
F800
F800
F800
FC04
7E0C
7FFE
3FFE
1FFD
03F0
ENDCHAR
STARTCHAR Dcaron
ENCODING 270
SWIDTH 600 0
DWIDTH 19 0
BBX 16 27 2 0
BITMAP
1830
3C78
1EF0
0FE0
07E0
0000
FFC0
FFF0
FFF8
FFFC
F8FE
F83E
F83F
F81F
F81F
F81F
F81F
F81F
F81F
F81F
F83F
F83E
F8FE
FFFC
FFF8
FFF0
FFC0
ENDCHAR
STARTCHAR dcaron
ENCODING 271
SWIDTH 600 0
DWIDTH 19 0
BBX 19 26 1 0
BITMAP
0001E0
0001E0
0001E0
007DE0
007DE0
007DE0
007DE0
007DE0
007DE0
003C00
0F3C00
1FBC00
3FFC00
7FFC00
7CFC00
F87C00
F87C00
F87C00
F87C00
F87C00
F87C00
7CFC00
7FFC00
7FFC00
3FBC00
0F3C00
ENDCHAR
STARTCHAR Dcroat
ENCODING 272
SWIDTH 600 0
DWIDTH 19 0
BBX 18 21 0 0
BITMAP
3FF000
3FFC00
3FFE00
3FFF00
3E3F80
3E0F80
3E0FC0
3E07C0
3E07C0
FFC7C0
FFC7C0
3E07C0
3E07C0
3E07C0
3E0FC0
3E0F80
3E3F80
3FFF00
3FFE00
3FFC00
3FF000
ENDCHAR
STARTCHAR dcroat
ENCODING 273
SWIDTH 600 0
DWIDTH 19 0
BBX 18 23 1 0
BITMAP
001F00
001F00
03FFC0
03FFC0
001F00
001F00
07DF00
1FFF00
3FFF00
3FFF00
7E3F00
7C1F00
7C1F00
781F00
F81F00
781F00
7C1F00
7C1F00
7E3F00
3FFF00
3FFF00
1FEF00
078F00
ENDCHAR
STARTCHAR Emacron
ENCODING 274
SWIDTH 600 0
DWIDTH 19 0
BBX 14 26 3 0
BITMAP
3FF0
3FF0
3FF0
0000
0000
FFFC
FFFC
FFFC
FFFC
F800
F800
F800
F800
FFF0
FFF0
FFF0
FFF0
F800
F800
F800
F800
F800
FFFC
FFFC
FFFC
FFFC
ENDCHAR
STARTCHAR emacron
ENCODING 275
SWIDTH 600 0
DWIDTH 19 0
BBX 16 22 2 0
BITMAP
1FF8
1FF8
1FF8
0000
0000
0000
07E0
1FF8
3FFC
7FFE
781E
FFFE
FFFE
FFFF
FFFE
F800
F800
FC0C
7FFC
3FFE
1FFC
07F0
ENDCHAR
STARTCHAR Ebreve
ENCODING 276
SWIDTH 600 0
DWIDTH 19 0
BBX 14 27 3 0
BITMAP
3838
3C70
1FF0
1FE0
07C0
0000
FFFC
FFFC
FFFC
FFFC
F800
F800
F800
F800
FFF0
FFF0
FFF0
FFF0
F800
F800
F800
F800
F800
FFFC
FFFC
FFFC
FFFC
ENDCHAR
STARTCHAR ebreve
ENCODING 277
SWIDTH 600 0
DWIDTH 19 0
BBX 16 23 2 0
BITMAP
1C38
1C38
1FF8
0FF0
07E0
0000
0000
07E0
1FF8
3FFC
7FFE
781E
FFFE
FFFE
FFFF
FFFE
F800
F800
FC0C
7FFC
3FFE
1FFC
07F0
ENDCHAR
STARTCHAR Edotaccent
ENCODING 278
SWIDTH 600 0
DWIDTH 19 0
BBX 14 28 3 0
BITMAP
0380
07C0
0FC0
07C0
0780
0000
0000
FFFC
FFFC
FFFC
FFFC
F800
F800
F800
F800
FFF0
FFF0
FFF0
FFF0
F800
F800
F800
F800
F800
FFFC
FFFC
FFFC
FFFC
ENDCHAR
STARTCHAR edotaccent
ENCODING 279
SWIDTH 600 0
DWIDTH 19 0
BBX 16 24 2 0
BITMAP
03C0
07E0
07E0
07E0
07E0
03C0
0000
0000
07E0
1FF8
3FFC
7FFE
781E
FFFE
FFFE
FFFF
FFFE
F800
F800
FC0C
7FFC
3FFE
1FFC
07F0
ENDCHAR
STARTCHAR Eogonek
ENCODING 280
SWIDTH 600 0
DWIDTH 19 0
BBX 15 29 3 -8
BITMAP
FFFC
FFFC
FFFC
FFFC
F800
F800
F800
F800
FFF0
FFF0
FFF0
FFF0
F800
F800
F800
F800
F800
FFFC
FFFC
FFFC
FFFC
0030
0070
00E0
00E4
00FC
00FC
00FE
0078
ENDCHAR
STARTCHAR eogonek
ENCODING 281
SWIDTH 600 0
DWIDTH 19 0
BBX 16 23 2 -7
BITMAP
07E0
1FF8
3FFC
7FFE
781E
FFFE
FFFE
FFFF
FFFE
F800
F800
FC0C
7FFC
3FFE
1FFC
07F8
0070
00E0
00E0
00E0
00FC
00FE
007C
ENDCHAR
STARTCHAR Ecaron
ENCODING 282
SWIDTH 600 0
DWIDTH 19 0
BBX 14 27 3 0
BITMAP
1830
3C78
1EF0
0FE0
0FC0
0000
FFFC
FFFC
FFFC
FFFC
F800
F800
F800
F800
FFF0
FFF0
FFF0
FFF0
F800
F800
F800
F800
F800
FFFC
FFFC
FFFC
FFFC
ENDCHAR
STARTCHAR ecaron
ENCODING 283
SWIDTH 600 0
DWIDTH 19 0
BBX 16 24 2 0
BITMAP
1818
3C3C
1E78
0FF0
0FF0
07E0
0000
0000
07E0
1FF8
3FFC
7FFE
781E
FFFE
FFFE
FFFF
FFFE
F800
F800
FC0C
7FFC
3FFE
1FFC
07F0
ENDCHAR
STARTCHAR Gcircumflex
ENCODING 284
SWIDTH 600 0
DWIDTH 19 0
BBX 17 27 1 0
BITMAP
01F800
03F800
07BC00
0F1E00
060C00
000000
01F800
07FE00
1FFF00
1FFE00
3F0C00
7E0400
7C0000
7C0000
780000
F87F80
F87F80
F87F80
F87F80
7C0F80
7C0F80
7E0F80
3F0F80
3FFF80
1FFF80
07FE00
01F800
ENDCHAR
STARTCHAR gcircumflex
ENCODING 285
SWIDTH 600 0
DWIDTH 19 0
BBX 16 31 2 -7
BITMAP
07E0
0FE0
1FF0
1EF8
3C3C
1010
0000
0000
0FFF
3FFF
7FFF
7FFF
FC7F
F878
F87C
787C
7FF8
3FF8
3FE0
7000
7FF8
7FFE
7FFF
3FFF
700F
F00F
F01F
FFFE
FFFE
7FF8
1FE0
ENDCHAR
STARTCHAR Gbreve
ENCODING 286
SWIDTH 600 0
DWIDTH 19 0
BBX 17 27 1 0
BITMAP
0E0E00
071E00
07FC00
03FC00
01F000
000000
01F800
07FE00
1FFF00
1FFE00
3F0C00
7E0400
7C0000
7C0000
780000
F87F80
F87F80
F87F80
F87F80
7C0F80
7C0F80
7E0F80
3F0F80
3FFF80
1FFF80
07FE00
01F800
ENDCHAR
STARTCHAR gbreve
ENCODING 287
SWIDTH 600 0
DWIDTH 19 0
BBX 16 30 2 -7
BITMAP
3838
1C78
1FF8
0FF0
07C0
0000
0000
0FFF
3FFF
7FFF
7FFF
FC7F
F878
F87C
787C
7FF8
3FF8
3FE0
7000
7FF8
7FFE
7FFF
3FFF
700F
F00F
F01F
FFFE
FFFE
7FF8
1FE0
ENDCHAR
STARTCHAR Gdotaccent
ENCODING 288
SWIDTH 600 0
DWIDTH 19 0
BBX 17 28 1 0
BITMAP
00E000
01F000
01F000
01F000
00E000
000000
000000
01F800
07FE00
1FFF00
1FFE00
3F0C00
7E0400
7C0000
7C0000
780000
F87F80
F87F80
F87F80
F87F80
7C0F80
7C0F80
7E0F80
3F0F80
3FFF80
1FFF80
07FE00
01F800
ENDCHAR
STARTCHAR gdotaccent
ENCODING 289
SWIDTH 600 0
DWIDTH 19 0
BBX 16 31 2 -7
BITMAP
03C0
07C0
07E0
07E0
07E0
03C0
0000
0000
0FFF
3FFF
7FFF
7FFF
FC7F
F878
F87C
787C
7FF8
3FF8
3FE0
7000
7FF8
7FFE
7FFF
3FFF
700F
F00F
F01F
FFFE
FFFE
7FF8
1FE0
ENDCHAR
STARTCHAR uni0122
ENCODING 290
SWIDTH 600 0
DWIDTH 19 0
BBX 17 29 1 -8
BITMAP
01F800
07FE00
1FFF00
1FFE00
3F0C00
7E0400
7C0000
7C0000
780000
F87F80
F87F80
F87F80
F87F80
7C0F80
7C0F80
7E0F80
3F0F80
3FFF80
1FFF80
07FE00
01F800
000000
000000
00E000
01F000
007000
007000
03F000
03C000
ENDCHAR
STARTCHAR uni0123
ENCODING 291
SWIDTH 600 0
DWIDTH 19 0
BBX 16 31 2 -7
BITMAP
01E0
07E0
0700
0700
07C0
0380
0000
0000
0FFF
3FFF
7FFF
7FFF
FC7F
F878
F87C
787C
7FF8
3FF8
3FE0
7000
7FF8
7FFE
7FFF
3FFF
700F
F00F
F01F
FFFE
FFFE
7FF8
1FE0
ENDCHAR
STARTCHAR Hcircumflex
ENCODING 292
SWIDTH 600 0
DWIDTH 19 0
BBX 15 27 2 0
BITMAP
07E0
0FE0
1EF0
3C78
1830
0000
F83E
F83E
F83E
F83E
F83E
F83E
F83E
F83E
FFFE
FFFE
FFFE
FFFE
F83E
F83E
F83E
F83E
F83E
F83E
F83E
F83E
F83E
ENDCHAR
STARTCHAR hcircumflex
ENCODING 293
SWIDTH 600 0
DWIDTH 19 0
BBX 18 29 -1 0
BITMAP
1F8000
3F8000
7BC000
F1E000
60C000
000000
1F0000
1F0000
1F0000
1F0000
1F0000
1F0000
1F0000
1F3F00
1F7F80
1FFFC0
1FFFC0
1FC7C0
1F87C0
1F03C0
1F03C0
1F03C0
1F03C0
1F03C0
1F03C0
1F03C0
1F03C0
1F03C0
1F03C0
ENDCHAR
STARTCHAR Hbar
ENCODING 294
SWIDTH 600 0
DWIDTH 19 0
BBX 19 21 0 0
BITMAP
3E0F80
3E0F80
3E0F80
FFFFE0
FFFFE0
3E0F80
3E0F80
3E0F80
3FFF80
3FFF80
3FFF80
3FFF80
3E0F80
3E0F80
3E0F80
3E0F80
3E0F80
3E0F80
3E0F80
3E0F80
3E0F80
ENDCHAR
STARTCHAR hbar
ENCODING 295
SWIDTH 600 0
DWIDTH 19 0
BBX 17 23 0 0
BITMAP
3E0000
3E0000
FFF800
FFF800
3E0000
3E0000
3E7C00
3EFF00
3FFF00
3FFF80
3F8F80
3E0F80
3E0780
3E0780
3E0780
3E0780
3E0780
3E0780
3E0780
3E0780
3E0780
3E0780
3E0780
ENDCHAR
STARTCHAR Itilde
ENCODING 296
SWIDTH 600 0
DWIDTH 19 0
BBX 15 27 2 0
BITMAP
1E1C
3F9C
3FFC
79F8
70F0
0000
FFFE
FFFE
FFFE
FFFE
07C0
07C0
07C0
07C0
07C0
07C0
07C0
07C0
07C0
07C0
07C0
07C0
07C0
FFFE
FFFE
FFFE
FFFE
ENDCHAR
STARTCHAR itilde
ENCODING 297
SWIDTH 600 0
DWIDTH 19 0
BBX 14 23 3 0
BITMAP
0E00
1F9C
3FFC
39F8
38F0
0000
0000
FFE0
FFE0
FFE0
FFE0
03E0
03E0
03E0
03E0
03E0
03E0
03E0
03E0
03E0
03E0
03E0
03E0
ENDCHAR
STARTCHAR Imacron
ENCODING 298
SWIDTH 600 0
DWIDTH 19 0
BBX 15 26 2 0
BITMAP
1FF0
1FF0
1FF0
0000
0000
FFFE
FFFE
FFFE
FFFE
07C0
07C0
07C0
07C0
07C0
07C0
07C0
07C0
07C0
07C0
07C0
07C0
07C0
FFFE
FFFE
FFFE
FFFE
ENDCHAR
STARTCHAR imacron
ENCODING 299
SWIDTH 600 0
DWIDTH 19 0
BBX 13 22 3 0
BITMAP
1FF8
1FF8
1FF8
0000
0000
0000
FFE0
FFE0
FFE0
FFE0
03E0
03E0
03E0
03E0
03E0
03E0
03E0
03E0
03E0
03E0
03E0
03E0
ENDCHAR
STARTCHAR Ibreve
ENCODING 300
SWIDTH 600 0
DWIDTH 19 0
BBX 15 27 2 0
BITMAP
3838
1C78
1FF0
0FF0
07C0
0000
FFFE
FFFE
FFFE
FFFE
07C0
07C0
07C0
07C0
07C0
07C0
07C0
07C0
07C0
07C0
07C0
07C0
07C0
FFFE
FFFE
FFFE
FFFE
ENDCHAR
STARTCHAR ibreve
ENCODING 301
SWIDTH 600 0
DWIDTH 19 0
BBX 13 23 3 0
BITMAP
1C38
1C38
1FF8
0FF0
07E0
0000
0000
FFE0
FFE0
FFE0
FFE0
03E0
03E0
03E0
03E0
03E0
03E0
03E0
03E0
03E0
03E0
03E0
03E0
ENDCHAR
STARTCHAR Iogonek
ENCODING 302
SWIDTH 600 0
DWIDTH 19 0
BBX 15 29 2 -8
BITMAP
FFFE
FFFE
FFFE
FFFE
07C0
07C0
07C0
07C0
07C0
07C0
07C0
07C0
07C0
07C0
07C0
07C0
07C0
FFFE
FFFE
FFFE
FFFE
0380
0700
0700
0F40
0FE0
0FE0
07E0
03C0
ENDCHAR
STARTCHAR iogonek
ENCODING 303
SWIDTH 600 0
DWIDTH 19 0
BBX 12 31 3 -7
BITMAP
03C0
07E0
07E0
07E0
07E0
03C0
0000
0000
FFE0
FFE0
FFE0
FFE0
03E0
03E0
03E0
03E0
03E0
03E0
03E0
03E0
03E0
03E0
03E0
03E0
0380
0700
0700
0F00
07E0
07F0
03E0
ENDCHAR
STARTCHAR Idotaccent
ENCODING 304
SWIDTH 600 0
DWIDTH 19 0
BBX 15 28 2 0
BITMAP
0380
07C0
07C0
07C0
0380
0000
0000
FFFE
FFFE
FFFE
FFFE
07C0
07C0
07C0
07C0
07C0
07C0
07C0
07C0
07C0
07C0
07C0
07C0
07C0
FFFE
FFFE
FFFE
FFFE
ENDCHAR
STARTCHAR dotlessi
ENCODING 305
SWIDTH 600 0
DWIDTH 19 0
BBX 11 16 3 0
BITMAP
FFE0
FFE0
FFE0
FFE0
03E0
03E0
03E0
03E0
03E0
03E0
03E0
03E0
03E0
03E0
03E0
03E0
ENDCHAR
STARTCHAR IJ
ENCODING 306
SWIDTH 600 0
DWIDTH 19 0
BBX 15 27 2 -6
BITMAP
F83E
F83E
F83E
F83E
F83E
F83E
F83E
F83E
F83E
F83E
F83E
F83E
F83E
F83E
F83E
F83E
F83E
F83E
F83E
F83E
F83E
003E
003E
01FC
03FC
03F8
03F0
ENDCHAR
STARTCHAR ij
ENCODING 307
SWIDTH 600 0
DWIDTH 19 0
BBX 16 30 2 -7
BITMAP
781C
F83E
FC3F
F83E
781C
0000
0000
F83E
F83E
F83E
F83E
F83E
F83E
F83E
F83E
F83E
F83E
F83E
F83E
F83E
F83E
F83E
F83E
003E
003E
003E
01FE
01FC
01F8
01F0
ENDCHAR
STARTCHAR Jcircumflex
ENCODING 308
SWIDTH 600 0
DWIDTH 19 0
BBX 15 27 2 0
BITMAP
03E0
07F0
0F78
1E3C
0C18
0000
3FFE
3FFE
3FFE
3FFE
003E
003E
003E
003E
003E
003E
003E
003E
003E
003E
003C
207C
787C
FFFC
7FF8
3FF0
0FC0
ENDCHAR
STARTCHAR jcircumflex
ENCODING 309
SWIDTH 600 0
DWIDTH 19 0
BBX 16 31 1 -7
BITMAP
01F8
03FC
03FC
079E
0F0F
0606
0000
0000
3FF8
3FF8
3FF8
3FF8
00F8
00F8
00F8
00F8
00F8
00F8
00F8
00F8
00F8
00F8
00F8
00F8
00F8
00F0
41F0
7FF0
7FE0
FFC0
3F00
ENDCHAR
STARTCHAR uni0136
ENCODING 310
SWIDTH 600 0
DWIDTH 19 0
BBX 17 29 2 -8
BITMAP
F81F00
F83E00
F87E00
F87C00
F8F800
F9F000
F9F000
FBE000
FFC000
FFE000
FFE000
FFF000
FEF000
FCF800
FC7800
F87C00
F83E00
F83E00
F81F00
F81F00
F80F80
000000
000000
01C000
03E000
00E000
00E000
07E000
078000
ENDCHAR
STARTCHAR uni0137
ENCODING 311
SWIDTH 600 0
DWIDTH 19 0
BBX 17 31 2 -8
BITMAP
F80000
F80000
F80000
F80000
F80000
F80000
F80000
F81F00
F83E00
F87C00
F8F800
F9F000
FBE000
FFC000
FFE000
FFF000
FEF000
FCF800
FC7C00
F87C00
F83E00
F81F00
F81F00
000080
000000
01C000
03E000
00E000
00E000
07E000
078000
ENDCHAR
STARTCHAR kgreenlandic
ENCODING 312
SWIDTH 600 0
DWIDTH 19 0
BBX 17 16 2 0
BITMAP
F81F00
F83E00
F87C00
F8F800
F9F000
FBE000
FFC000
FFE000
FFF000
FFF000
FEF800
FC7C00
F87C00
F83E00
F81F00
F81F80
ENDCHAR
STARTCHAR Lacute
ENCODING 313
SWIDTH 600 0
DWIDTH 19 0
BBX 14 29 3 0
BITMAP
0400
0E00
3E00
7F00
FC00
7000
2000
0000
F800
F800
F800
F800
F800
F800
F800
F800
F800
F800
F800
F800
F800
F800
F800
F800
F800
FFFC
FFFC
FFFC
FFFC
ENDCHAR
STARTCHAR lacute
ENCODING 314
SWIDTH 600 0
DWIDTH 19 0
BBX 15 31 2 0
BITMAP
0080
01C0
03E0
07F0
0F80
0F00
0400
0000
FF80
FF80
FF80
FF80
0780
0780
0780
0780
0780
0780
0780
0780
0780
0780
0780
0780
0780
0780
07C4
07FE
03FE
03FE
00FC
ENDCHAR
STARTCHAR uni013B
ENCODING 315
SWIDTH 600 0
DWIDTH 19 0
BBX 14 29 3 -8
BITMAP
F800
F800
F800
F800
F800
F800
F800
F800
F800
F800
F800
F800
F800
F800
F800
F800
F800
FFFC
FFFC
FFFC
FFFC
0000
0000
0380
03C0
05E0
01E0
0FC0
0F00
ENDCHAR
STARTCHAR uni013C
ENCODING 316
SWIDTH 600 0
DWIDTH 19 0
BBX 15 31 2 -8
BITMAP
FF80
FF80
FF80
FF80
0780
0780
0780
0780
0780
0780
0780
0780
0780
0780
0780
0780
0780
0780
07C4
07FE
03FE
03FE
00FC
0000
0000
00E0
00F0
0178
0078
03F0
03C0
ENDCHAR
STARTCHAR Lcaron
ENCODING 317
SWIDTH 600 0
DWIDTH 19 0
BBX 14 25 3 0
BITMAP
0078
0078
0078
0078
F878
F870
F870
F870
F870
F800
F800
F800
F800
F800
F800
F800
F800
F800
F800
F800
F800
FFFC
FFFC
FFFC
FFFC
ENDCHAR
STARTCHAR lcaron
ENCODING 318
SWIDTH 600 0
DWIDTH 19 0
BBX 15 26 2 0
BITMAP
001E
001E
001E
FF9E
FF9E
FF9E
FF9E
079E
079C
0780
0780
0780
0780
0780
0780
0780
0780
0780
0780
0780
0780
07C4
07FE
03FE
03FE
00FC
ENDCHAR
STARTCHAR Ldot
ENCODING 319
SWIDTH 600 0
DWIDTH 19 0
BBX 15 21 3 0
BITMAP
F800
F800
F800
F800
F800
F800
F800
F83C
F87E
F87E
F87E
F87E
F83C
F800
F800
F800
F800
FFFC
FFFC
FFFC
FFFC
ENDCHAR
STARTCHAR ldot
ENCODING 320
SWIDTH 600 0
DWIDTH 19 0
BBX 21 23 0 0
BITMAP
FFC000
FFC000
FFC000
FFC000
07C000
07C000
07C000
07C000
07C000
07C0F0
07C1F8
07C1F8
07C1F8
07C1F8
07C0F0
07C000
07C000
07C000
07E200
03FE00
03FE00
01FF00
00FE00
ENDCHAR
STARTCHAR Lslash
ENCODING 321
SWIDTH 600 0
DWIDTH 19 0
BBX 17 21 0 0
BITMAP
1F0000
1F0000
1F0000
1F0000
1F0000
1F0400
1F0E00
1F3E00
1FFE00
1FF800
1FE000
3F8000
FF0000
FF0000
7F0000
9F0000
1F0000
1FFF80
1FFF80
1FFF80
1FFF80
ENDCHAR
STARTCHAR lslash
ENCODING 322
SWIDTH 600 0
DWIDTH 19 0
BBX 15 23 2 0
BITMAP
FF80
FF80
FF80
FF80
0780
0788
079C
07FC
07FE
07F8
0FE0
3F80
FF80
7F80
6780
0780
0780
0780
07C4
07FE
03FE
03FE
00FC
ENDCHAR
STARTCHAR Nacute
ENCODING 323
SWIDTH 600 0
DWIDTH 19 0
BBX 15 29 2 0
BITMAP
0020
00E0
01F0
03F8
07E0
0780
0300
0000
F81E
FC1E
FC1E
FC1E
FE1E
FE1E
FF1E
F71E
F79E
F79E
F39E
FBDE
F9DE
F9FE
F8FE
F8FE
F8FE
F87E
F87E
F83E
F83E
ENDCHAR
STARTCHAR nacute
ENCODING 324
SWIDTH 600 0
DWIDTH 19 0
BBX 15 26 2 0
BITMAP
0020
0070
00F8
01FC
01F0
03E0
03C0
0100
0000
0000
F1F8
F3FC
FFFE
FFFE
FE3E
FC3E
F81E
F81E
F81E
F81E
F81E
F81E
F81E
F81E
F81E
F81E
ENDCHAR
STARTCHAR uni0145
ENCODING 325
SWIDTH 600 0
DWIDTH 19 0
BBX 15 29 2 -8
BITMAP
F81E
FC1E
FC1E
FC1E
FE1E
FE1E
FF1E
F71E
F79E
F79E
F39E
FBDE
F9DE
F9FE
F8FE
F8FE
F8FE
F87E
F87E
F83E
F83E
0000
0000
0380
07C0
01E0
01E0
0FC0
0F00
ENDCHAR
STARTCHAR uni0146
ENCODING 326
SWIDTH 600 0
DWIDTH 19 0
BBX 15 24 2 -8
BITMAP
F1F8
F3FC
FFFE
FFFE
FE3E
FC3E
F81E
F81E
F81E
F81E
F81E
F81E
F81E
F81E
F81E
F81E
0000
0000
0380
03E0
05E0
01E0
0FC0
0F00
ENDCHAR
STARTCHAR Ncaron
ENCODING 327
SWIDTH 600 0
DWIDTH 19 0
BBX 15 27 2 0
BITMAP
0810
3C38
1FF0
0FF0
07E0
0000
F81E
FC1E
FC1E
FC1E
FE1E
FE1E
FF1E
F71E
F79E
F79E
F39E
FBDE
F9DE
F9FE
F8FE
F8FE
F8FE
F87E
F87E
F83E
F83E
ENDCHAR
STARTCHAR ncaron
ENCODING 328
SWIDTH 600 0
DWIDTH 19 0
BBX 15 24 2 0
BITMAP
1818
3C3C
1E78
0FF8
0FF0
07E0
0000
0000
F1F8
F3FC
FFFE
FFFE
FE3E
FC3E
F81E
F81E
F81E
F81E
F81E
F81E
F81E
F81E
F81E
F81E
ENDCHAR
STARTCHAR napostrophe
ENCODING 329
SWIDTH 600 0
DWIDTH 19 0
BBX 22 22 -1 0
BITMAP
700000
F80000
FC0000
FC0000
FC0000
7C0000
1CF1E0
1CF7F0
3CFFF8
78FFF8
F0FCF8
E0F87C
C0F87C
00F87C
00F87C
00F87C
00F87C
00F87C
00F87C
00F87C
00F87C
00F87C
ENDCHAR
STARTCHAR Eng
ENCODING 330
SWIDTH 600 0
DWIDTH 19 0
BBX 16 21 2 0
BITMAP
F9F0
FFF8
FFFC
FFFE
FE7E
F83E
F81E
F81F
F81F
F81F
F81F
F81F
F81F
F81F
F81F
F81E
F83E
F8FE
F9FC
F9FC
F9F0
ENDCHAR
STARTCHAR eng
ENCODING 331
SWIDTH 600 0
DWIDTH 19 0
BBX 15 23 2 -7
BITMAP
F1F8
F3FC
FFFC
FFFE
FE3E
FC3E
F81E
F81E
F81E
F81E
F81E
F81E
F81E
F81E
F81E
F81E
001E
003E
003E
00FE
01FC
01FC
01F0
ENDCHAR
STARTCHAR Omacron
ENCODING 332
SWIDTH 600 0
DWIDTH 19 0
BBX 17 26 1 0
BITMAP
0FF800
0FF800
0FF800
000000
000000
03F000
0FF800
1FFE00
3FFE00
7E3F00
7C1F00
7C0F80
F80F80
F80F80
F80F80
F80F80
F80F80
F80F80
F80F80
7C0F80
7C1F00
7E3F00
3FFE00
1FFE00
0FF800
03F000
ENDCHAR
STARTCHAR omacron
ENCODING 333
SWIDTH 600 0
DWIDTH 19 0
BBX 17 22 1 0
BITMAP
0FF800
0FF800
0FF800
000000
000000
000000
03F000
0FF800
1FFE00
3FFE00
7E3F00
7C1F00
7C0F80
F80F80
780F80
7C0F80
7C1F00
7E3F00
3FFE00
1FFE00
0FF800
03F000
ENDCHAR
STARTCHAR Obreve
ENCODING 334
SWIDTH 600 0
DWIDTH 19 0
BBX 17 27 1 0
BITMAP
1C1C00
0E3C00
0FF800
07F800
03E000
000000
03F000
0FF800
1FFE00
3FFE00
7E3F00
7C1F00
7C0F80
F80F80
F80F80
F80F80
F80F80
F80F80
F80F80
F80F80
7C0F80
7C1F00
7E3F00
3FFE00
1FFE00
0FF800
03F000
ENDCHAR
STARTCHAR obreve
ENCODING 335
SWIDTH 600 0
DWIDTH 19 0
BBX 17 23 1 0
BITMAP
1C1C00
1E3C00
0FF800
07F800
03E000
000000
000000
03F000
0FF800
1FFE00
3FFE00
7E3F00
7C1F00
7C0F80
F80F80
780F80
7C0F80
7C1F00
7E3F00
3FFE00
1FFE00
0FF800
03F000
ENDCHAR
STARTCHAR Ohungarumlaut
ENCODING 336
SWIDTH 600 0
DWIDTH 19 0
BBX 17 28 1 0
BITMAP
010400
03CF00
03CF00
079E00
0F3C00
061800
000000
03F000
0FF800
1FFE00
3FFE00
7E3F00
7C1F00
7C0F80
F80F80
F80F80
F80F80
F80F80
F80F80
F80F80
F80F80
7C0F80
7C1F00
7E3F00
3FFE00
1FFE00
0FF800
03F000
ENDCHAR
STARTCHAR ohungarumlaut
ENCODING 337
SWIDTH 600 0
DWIDTH 19 0
BBX 17 25 1 0
BITMAP
010400
03CF00
03CE00
039E00
071C00
073C00
0A0800
000000
000000
03F000
0FF800
1FFE00
3FFE00
7E3F00
7C1F00
7C0F80
F80F80
780F80
7C0F80
7C1F00
7E3F00
3FFE00
1FFE00
0FF800
03F000
ENDCHAR
STARTCHAR OE
ENCODING 338
SWIDTH 600 0
DWIDTH 19 0
BBX 18 21 1 0
BITMAP
07FFC0
1FFFC0
3FFFC0
7FFFC0
7CF800
F8F800
F8F800
F8F800
F8FF00
F0FF00
F0FF00
F0FF00
F8F800
F8F800
F8F800
F8F800
7CF800
7FFFC0
3FFFC0
1FFFC0
07FFC0
ENDCHAR
STARTCHAR oe
ENCODING 339
SWIDTH 600 0
DWIDTH 19 0
BBX 19 16 0 0
BITMAP
0F0F00
1F9F80
3FFFC0
7FFFC0
79F1E0
78FFE0
F8FFE0
F8FFE0
F8FFE0
F8F000
78F000
79F880
7FFFC0
3FFFC0
1F9FE0
0F0F80
ENDCHAR
STARTCHAR Racute
ENCODING 340
SWIDTH 600 0
DWIDTH 19 0
BBX 17 29 2 0
BITMAP
004000
00E000
01F000
03F000
0FC000
078000
020000
000000
FFE000
FFFC00
FFFE00
FFFE00
F83F00
F81F00
F81F00
F81F00
F83E00
FFFE00
FFFC00
FFF800
FFF000
F8F800
F8F800
F87C00
F87C00
F83E00
F83E00
F81F00
F81F80
ENDCHAR
STARTCHAR racute
ENCODING 341
SWIDTH 600 0
DWIDTH 19 0
BBX 14 26 4 0
BITMAP
0040
00E0
01F0
01F8
03E0
07C0
0780
0300
0000
0000
F0F8
F3FC
F7F8
FFF8
FE00
FC00
F800
F000
F000
F000
F000
F000
F000
F000
F000
F000
ENDCHAR
STARTCHAR uni0156
ENCODING 342
SWIDTH 600 0
DWIDTH 19 0
BBX 17 29 2 -8
BITMAP
FFE000
FFFC00
FFFE00
FFFE00
F83F00
F81F00
F81F00
F81F00
F83E00
FFFE00
FFFC00
FFF800
FFF000
F8F800
F8F800
F87C00
F87C00
F83E00
F83E00
F81F00
F81F00
000080
000000
01C000
03E000
00E000
01E000
07E000
078000
ENDCHAR
STARTCHAR uni0157
ENCODING 343
SWIDTH 600 0
DWIDTH 19 0
BBX 15 24 3 -8
BITMAP
787C
79FE
7BFC
7FFC
7F00
7E00
7C00
7800
7800
7800
7800
7800
7800
7800
7800
7800
0000
0000
3800
7C00
1C00
1C00
FC00
F000
ENDCHAR
STARTCHAR Rcaron
ENCODING 344
SWIDTH 600 0
DWIDTH 19 0
BBX 17 27 2 0
BITMAP
183000
3C7800
1EF000
0FE000
07E000
000000
FFE000
FFFC00
FFFE00
FFFE00
F83F00
F81F00
F81F00
F81F00
F83E00
FFFE00
FFFC00
FFF800
FFF000
F8F800
F8F800
F87C00
F87C00
F83E00
F83E00
F81F00
F81F80
ENDCHAR
STARTCHAR rcaron
ENCODING 345
SWIDTH 600 0
DWIDTH 19 0
BBX 14 24 4 0
BITMAP
1010
3878
7CF0
1FF0
0FE0
0FC0
0000
0000
F0F8
F3FC
F7F8
FFF8
FE00
FC00
F800
F000
F000
F000
F000
F000
F000
F000
F000
F000
ENDCHAR
STARTCHAR Sacute
ENCODING 346
SWIDTH 600 0
DWIDTH 19 0
BBX 16 29 2 0
BITMAP
0020
0070
01F0
03F8
07E0
0380
0100
0000
07E0
1FF8
3FFE
7FFC
7C1C
F808
F800
7E00
7F80
3FF0
1FFC
07FE
01FE
007F
001F
201F
783E
FFFE
FFFC
3FF8
0FE0
ENDCHAR
STARTCHAR sacute
ENCODING 347
SWIDTH 600 0
DWIDTH 19 0
BBX 15 26 2 0
BITMAP
0020
0070
00F8
01FC
01F0
03E0
07C0
0100
0000
0000
0FE0
3FF8
7FFE
7FFC
7C18
7C08
7FC0
3FF8
1FFC
01FE
403E
783E
FFFE
FFFC
3FF8
0FE0
ENDCHAR
STARTCHAR Scircumflex
ENCODING 348
SWIDTH 600 0
DWIDTH 19 0
BBX 16 27 2 0
BITMAP
07E0
0FF0
0F78
1E38
0810
0000
07E0
1FF8
3FFE
7FFC
7C1C
F808
F800
7E00
7F80
3FF0
1FFC
07FE
01FE
007F
001F
201F
783E
FFFE
FFFC
3FF8
0FE0
ENDCHAR
STARTCHAR scircumflex
ENCODING 349
SWIDTH 600 0
DWIDTH 19 0
BBX 15 24 2 0
BITMAP
07E0
0FF0
0FF0
1E78
3C3C
1818
0000
0000
0FE0
3FF8
7FFE
7FFC
7C18
7C08
7FC0
3FF8
1FFC
01FE
403E
783E
FFFE
FFFC
3FF8
0FE0
ENDCHAR
STARTCHAR uni015E
ENCODING 350
SWIDTH 600 0
DWIDTH 19 0
BBX 16 29 2 -8
BITMAP
07E0
1FF8
3FFE
7FFC
7C1C
F808
F800
7E00
7F80
3FF0
1FFC
07FE
01FE
007F
001F
201F
783E
FFFE
FFFC
3FF8
0FE0
0380
0380
07C0
01E0
01E0
01E0
0FC0
0F00
ENDCHAR
STARTCHAR uni015F
ENCODING 351
SWIDTH 600 0
DWIDTH 19 0
BBX 15 24 2 -8
BITMAP
0FE0
3FF8
7FFE
7FFC
7C18
7C08
7FC0
3FF8
1FFC
01FE
403E
783E
FFFE
FFFC
3FF8
0FE0
0380
0380
07C0
01E0
00E0
01E0
0FC0
0700
ENDCHAR
STARTCHAR Scaron
ENCODING 352
SWIDTH 600 0
DWIDTH 19 0
BBX 16 27 2 0
BITMAP
0810
1E3C
0F78
0FF0
07E0
0000
07E0
1FF8
3FFE
7FFC
7C1C
F808
F800
7E00
7F80
3FF0
1FFC
07FE
01FE
007F
001F
201F
783E
FFFE
FFFC
3FF8
0FE0
ENDCHAR
STARTCHAR scaron
ENCODING 353
SWIDTH 600 0
DWIDTH 19 0
BBX 15 24 2 0
BITMAP
1818
3C3C
1E78
0FF0
0FF0
07E0
0000
0000
0FE0
3FF8
7FFE
7FFC
7C18
7C08
7FC0
3FF8
1FFC
01FE
403E
783E
FFFE
FFFC
3FF8
0FE0
ENDCHAR
STARTCHAR uni0162
ENCODING 354
SWIDTH 600 0
DWIDTH 19 0
BBX 17 29 1 -8
BITMAP
FFFF80
FFFF80
FFFF80
FFFF80
03E000
03E000
03E000
03E000
03E000
03E000
03E000
03E000
03E000
03E000
03E000
03E000
03E000
03E000
03E000
03E000
03E000
01C000
018000
03E000
00E000
00F000
00E000
07E000
078000
ENDCHAR
STARTCHAR uni0163
ENCODING 355
SWIDTH 600 0
DWIDTH 19 0
BBX 16 29 2 -8
BITMAP
0F00
0F00
0F00
0F00
0F00
FFFE
FFFE
FFFE
FFFE
0F00
0F00
0F00
0F00
0F00
0F00
0F80
0F82
0FFE
07FE
07FE
01FD
0060
00E0
01F0
0078
0038
0078
03F0
01C0
ENDCHAR
STARTCHAR Tcaron
ENCODING 356
SWIDTH 600 0
DWIDTH 19 0
BBX 17 27 1 0
BITMAP
0C1800
1E3C00
0F7800
07F000
03F000
000000
FFFF80
FFFF80
FFFF80
FFFF80
03E000
03E000
03E000
03E000
03E000
03E000
03E000
03E000
03E000
03E000
03E000
03E000
03E000
03E000
03E000
03E000
03E000
ENDCHAR
STARTCHAR tcaron
ENCODING 357
SWIDTH 600 0
DWIDTH 19 0
BBX 16 26 2 0
BITMAP
003C
003C
003C
003C
003C
0F3C
0F3C
0F3C
0F3C
0F00
FFFE
FFFE
FFFE
FFFE
0F00
0F00
0F00
0F00
0F00
0F00
0F80
0F82
0FFE
07FE
07FE
01FD
ENDCHAR
STARTCHAR Tbar
ENCODING 358
SWIDTH 600 0
DWIDTH 19 0
BBX 17 21 1 0
BITMAP
FFFF80
FFFF80
FFFF80
FFFF80
03E000
03E000
03E000
03E000
03E000
03E000
3FFE00
3FFE00
03E000
03E000
03E000
03E000
03E000
03E000
03E000
03E000
03E000
ENDCHAR
STARTCHAR tbar
ENCODING 359
SWIDTH 600 0
DWIDTH 19 0
BBX 16 21 2 0
BITMAP
0F00
0F00
0F00
0F00
0F00
FFFE
FFFE
FFFE
FFFE
0F00
0F00
0F00
FFFC
FFFC
0F00
0F00
0F82
0FFE
07FE
07FE
01FD
ENDCHAR
STARTCHAR Utilde
ENCODING 360
SWIDTH 600 0
DWIDTH 19 0
BBX 15 27 2 0
BITMAP
1E1C
3F9C
3FFC
79F8
70F0
0000
F81E
F81E
F81E
F81E
F81E
F81E
F81E
F81E
F81E
F81E
F81E
F81E
F81E
F81E
F83E
F83E
7C7E
7FFC
3FFC
1FF8
0FE0
ENDCHAR
STARTCHAR utilde
ENCODING 361
SWIDTH 600 0
DWIDTH 19 0
BBX 15 23 2 0
BITMAP
0E00
3F3C
3FF8
7BF8
70F0
0000
0000
F83E
F83E
F83E
F83E
F83E
F83E
F83E
F83E
F83E
F83E
F87E
F8FE
FFFE
7FDE
7F9E
1F1E
ENDCHAR
STARTCHAR Umacron
ENCODING 362
SWIDTH 600 0
DWIDTH 19 0
BBX 15 26 2 0
BITMAP
1FF0
1FF0
1FF0
0000
0000
F81E
F81E
F81E
F81E
F81E
F81E
F81E
F81E
F81E
F81E
F81E
F81E
F81E
F81E
F83E
F83E
7C7E
7FFC
3FFC
1FF8
0FE0
ENDCHAR
STARTCHAR umacron
ENCODING 363
SWIDTH 600 0
DWIDTH 19 0
BBX 15 22 2 0
BITMAP
1FF0
1FF0
1FF0
0000
0000
0000
F83E
F83E
F83E
F83E
F83E
F83E
F83E
F83E
F83E
F83E
F87E
F8FE
FFFE
7FDE
7F9E
1F1E
ENDCHAR
STARTCHAR Ubreve
ENCODING 364
SWIDTH 600 0
DWIDTH 19 0
BBX 15 27 2 0
BITMAP
3838
1C78
1FF0
0FF0
07C0
0000
F81E
F81E
F81E
F81E
F81E
F81E
F81E
F81E
F81E
F81E
F81E
F81E
F81E
F81E
F83E
F83E
7C7E
7FFC
3FFC
1FF8
0FE0
ENDCHAR
STARTCHAR ubreve
ENCODING 365
SWIDTH 600 0
DWIDTH 19 0
BBX 15 23 2 0
BITMAP
3838
3C78
1FF0
1FF0
07C0
0000
0000
F83E
F83E
F83E
F83E
F83E
F83E
F83E
F83E
F83E
F83E
F87E
F8FE
FFFE
7FDE
7F9E
1F1E
ENDCHAR
STARTCHAR Uring
ENCODING 366
SWIDTH 600 0
DWIDTH 19 0
BBX 15 29 2 0
BITMAP
03C0
0FE0
0E60
0C60
0E60
0FE0
03C0
0000
F81E
F81E
F81E
F81E
F81E
F81E
F81E
F81E
F81E
F81E
F81E
F81E
F81E
F81E
F83E
F83E
7C7E
7FFC
3FFC
1FF8
0FE0
ENDCHAR
STARTCHAR uring
ENCODING 367
SWIDTH 600 0
DWIDTH 19 0
BBX 15 25 2 0
BITMAP
07C0
0FE0
1E70
1C70
1E70
0FE0
07C0
0000
0000
F83E
F83E
F83E
F83E
F83E
F83E
F83E
F83E
F83E
F83E
F87E
F8FE
FFFE
7FDE
7F9E
1F1E
ENDCHAR
STARTCHAR Uhungarumlaut
ENCODING 368
SWIDTH 600 0
DWIDTH 19 0
BBX 15 28 2 0
BITMAP
0208
079E
079E
0F3C
1E78
0C30
0000
F81E
F81E
F81E
F81E
F81E
F81E
F81E
F81E
F81E
F81E
F81E
F81E
F81E
F81E
F83E
F83E
7C7E
7FFC
3FFC
1FF8
0FE0
ENDCHAR
STARTCHAR uhungarumlaut
ENCODING 369
SWIDTH 600 0
DWIDTH 19 0
BBX 15 25 2 0
BITMAP
0208
079E
079C
0F3C
0E38
1E70
0430
0000
0000
F83E
F83E
F83E
F83E
F83E
F83E
F83E
F83E
F83E
F83E
F87E
F8FE
FFFE
7FDE
7F9E
1F1E
ENDCHAR
STARTCHAR Uogonek
ENCODING 370
SWIDTH 600 0
DWIDTH 19 0
BBX 15 29 2 -8
BITMAP
F81E
F81E
F81E
F81E
F81E
F81E
F81E
F81E
F81E
F81E
F81E
F81E
F81E
F81E
F83E
F83E
7C7E
7FFC
3FFC
1FF8
0FE0
0380
0700
0700
0720
07E0
07E0
07F0
03C0
ENDCHAR
STARTCHAR uogonek
ENCODING 371
SWIDTH 600 0
DWIDTH 19 0
BBX 16 23 2 -7
BITMAP
F83E
F83E
F83E
F83E
F83E
F83E
F83E
F83E
F83E
F83E
F87E
F8FE
FFFE
7FDE
7F9E
1F1E
0038
0070
00E0
00F0
00FE
007E
003D
ENDCHAR
STARTCHAR Wcircumflex
ENCODING 372
SWIDTH 600 0
DWIDTH 19 0
BBX 19 27 0 0
BITMAP
01F800
03F800
07BC00
0F1E00
060C00
000000
F803E0
F803E0
F803E0
7803E0
7803E0
78E3C0
78F3C0
78F3C0
7CF3C0
7DF3C0
3DF3C0
3DBBC0
3DBBC0
3FBB80
3FBB80
3FBB80
3F9F80
3F1F80
1F1F80
1F1F80
1F1F80
ENDCHAR
STARTCHAR wcircumflex
ENCODING 373
SWIDTH 600 0
DWIDTH 19 0
BBX 19 24 0 0
BITMAP
01F000
03F800
07FC00
0FBE00
0F0E00
040400
000000
000000
F801E0
F801E0
78F3E0
78F3E0
78F3C0
79F3C0
7DB3C0
7DB3C0
7DBBC0
3DBBC0
3FBB80
3FBF80
3F9F80
3F9F80
3F1F80
1F1F80
ENDCHAR
STARTCHAR Ycircumflex
ENCODING 374
SWIDTH 600 0
DWIDTH 19 0
BBX 18 27 1 0
BITMAP
03F000
07F000
0F7800
1E3C00
0C1800
000000
F807C0
F80F80
7C0F80
7C1F00
3C1F00
3E3E00
1E3E00
1F3C00
0F7C00
0F7800
07F800
07F000
03F000
03E000
03E000
03E000
03E000
03E000
03E000
03E000
03E000
ENDCHAR
STARTCHAR ycircumflex
ENCODING 375
SWIDTH 600 0
DWIDTH 19 0
BBX 17 31 1 -7
BITMAP
03F000
07F000
0FF800
0F3C00
1E1E00
080800
000000
000000
F80780
780F80
7C0F00
7C0F00
3C1F00
3E1E00
1E1E00
1E3C00
0F3C00
0F3C00
0F7800
07F800
07F800
03F000
03F000
01E000
01E000
03E000
07C000
3FC000
3F8000
7F0000
7E0000
ENDCHAR
STARTCHAR Ydieresis
ENCODING 376
SWIDTH 600 0
DWIDTH 19 0
BBX 18 27 1 0
BITMAP
0E1C00
1E3C00
1E3C00
1E3C00
0E1C00
000000
F807C0
F80F80
7C0F80
7C1F00
3C1F00
3E3E00
1E3E00
1F3C00
0F7C00
0F7800
07F800
07F000
03F000
03E000
03E000
03E000
03E000
03E000
03E000
03E000
03E000
ENDCHAR
STARTCHAR Zacute
ENCODING 377
SWIDTH 600 0
DWIDTH 19 0
BBX 16 29 2 0
BITMAP
0020
0070
01F0
03F8
07E0
0380
0100
0000
7FFE
7FFE
7FFE
7FFE
007C
007C
00F8
01F0
03F0
03E0
07C0
0F80
0F80
1F00
3E00
3E00
7C00
FFFF
FFFF
FFFF
FFFF
ENDCHAR
STARTCHAR zacute
ENCODING 378
SWIDTH 600 0
DWIDTH 19 0
BBX 15 26 2 0
BITMAP
0020
0030
0078
00FC
01F0
03E0
01C0
0080
0000
0000
7FFE
7FFE
7FFE
7FFC
00FC
01F8
03F0
07E0
0FC0
0F80
1F00
3E00
7FFE
FFFE
FFFE
FFFE
ENDCHAR
STARTCHAR Zdotaccent
ENCODING 379
SWIDTH 600 0
DWIDTH 19 0
BBX 16 28 2 0
BITMAP
03C0
07E0
07E0
03E0
03C0
0000
0000
7FFE
7FFE
7FFE
7FFE
007C
007C
00F8
01F0
03F0
03E0
07C0
0F80
0F80
1F00
3E00
3E00
7C00
FFFF
FFFF
FFFF
FFFF
ENDCHAR
STARTCHAR zdotaccent
ENCODING 380
SWIDTH 600 0
DWIDTH 19 0
BBX 15 24 2 0
BITMAP
01C0
03E0
07F0
07F0
03E0
01C0
0000
0000
7FFE
7FFE
7FFE
7FFC
00FC
01F8
03F0
07E0
0FC0
0F80
1F00
3E00
7FFE
FFFE
FFFE
FFFE
ENDCHAR
STARTCHAR Zcaron
ENCODING 381
SWIDTH 600 0
DWIDTH 19 0
BBX 16 27 2 0
BITMAP
0810
1E3C
0F78
0FF0
07E0
0000
7FFE
7FFE
7FFE
7FFE
007C
007C
00F8
01F0
03F0
03E0
07C0
0F80
0F80
1F00
3E00
3E00
7C00
FFFF
FFFF
FFFF
FFFF
ENDCHAR
STARTCHAR zcaron
ENCODING 382
SWIDTH 600 0
DWIDTH 19 0
BBX 15 24 2 0
BITMAP
0808
1C1C
1F7C
0FF8
07F0
03E0
0000
0000
7FFE
7FFE
7FFE
7FFC
00FC
01F8
03F0
07E0
0FC0
0F80
1F00
3E00
7FFE
FFFE
FFFE
FFFE
ENDCHAR
STARTCHAR longs
ENCODING 383
SWIDTH 600 0
DWIDTH 19 0
BBX 16 23 3 0
BITMAP
00FC
03FF
07FE
0FFE
0F82
0F80
0F80
FF80
FF80
FF80
FF80
0F80
0F80
0F80
0F80
0F80
0F80
0F80
0F80
0F80
0F80
0F80
0F80
ENDCHAR
STARTCHAR uni0180
ENCODING 384
SWIDTH 600 0
DWIDTH 19 0
BBX 18 23 0 0
BITMAP
3E0000
3E0000
FFF800
FFF800
3E0000
3E0000
3E7C00
3FFE00
3FFF00
3FFF80
3F0F80
3E0F80
3E07C0
3E07C0
3E07C0
3E07C0
3E0780
3E0F80
3F1F80
3FFF00
3FFF00
3DFE00
3C7800
ENDCHAR
STARTCHAR uni018A
ENCODING 394
SWIDTH 600 0
DWIDTH 19 0
BBX 19 21 0 0
BITMAP
07F800
1FFE00
3FFF00
7FFF80
7BCF80
F3C7C0
F3C3C0
F3C3C0
F3C3C0
F3C3E0
7BC3E0
7BC3E0
33C3C0
03C3C0
03C3C0
03C7C0
03CF80
03FF80
03FF00
03FE00
03F800
ENDCHAR
STARTCHAR uni018F
ENCODING 399
SWIDTH 600 0
DWIDTH 19 0
BBX 16 21 2 0
BITMAP
07C0
1FF0
3FF8
3FFC
187E
103E
001E
001F
FFFF
FFFF
FFFF
FFFF
F01F
F81F
F81E
783E
7C7E
7FFC
3FF8
1FF0
07C0
ENDCHAR
STARTCHAR uni0192
ENCODING 402
SWIDTH 600 0
DWIDTH 19 0
BBX 17 24 1 -3
BITMAP
003F00
007F80
00FF00
01FF00
01F000
01E000
01E000
1FFE00
1FFE00
1FFE00
1FFE00
03E000
03C000
03C000
03C000
03C000
07C000
07C000
07C000
0F8000
7F8000
7F8000
7F0000
FC0000
ENDCHAR
STARTCHAR uni0193
ENCODING 403
SWIDTH 600 0
DWIDTH 19 0
BBX 18 26 1 0
BITMAP
0003C0
000FC0
000FC0
001FC0
001E00
01FE00
07FE00
1FFF00
1FFE00
3F0C00
7E0400
7C0000
7C0000
780000
F87F80
F87F80
F87F80
F87F80
7C0F80
7C0F80
7E0F80
3F0F80
3FFF80
1FFF80
07FE00
01F800
ENDCHAR
STARTCHAR Ohorn
ENCODING 416
SWIDTH 600 0
DWIDTH 19 0
BBX 18 26 1 0
BITMAP
000080
0003C0
0003C0
0003C0
0003C0
03F780
0FFF00
1FFC00
3FFE00
7E3F00
7C1F00
7C0F80
F80F80
F80F80
F80F80
F80F80
F80F80
F80F80
F80F80
7C0F80
7C1F00
7E3F00
3FFE00
1FFE00
0FF800
03F000
ENDCHAR
STARTCHAR ohorn
ENCODING 417
SWIDTH 600 0
DWIDTH 19 0
BBX 18 22 1 0
BITMAP
000080
0003C0
0003C0
0003C0
0003C0
0003C0
03EF80
0FFF00
1FFC00
3FFE00
7E3F00
7C1F00
7C0F80
F80F80
780F80
7C0F80
7C1F00
7E3F00
3FFE00
1FFE00
0FF800
03F000
ENDCHAR
STARTCHAR Uhorn
ENCODING 431
SWIDTH 600 0
DWIDTH 19 0
BBX 19 27 2 0
BITMAP
000040
0001E0
0001E0
0001E0
0001E0
0003E0
F81FC0
F81F80
F81E00
F81E00
F81E00
F81E00
F81E00
F81E00
F81E00
F81E00
F81E00
F81E00
F81E00
F81E00
F83E00
F83E00
7C7E00
7FFC00
3FFC00
1FF800
0FE000
ENDCHAR
STARTCHAR uhorn
ENCODING 432
SWIDTH 600 0
DWIDTH 19 0
BBX 18 23 2 0
BITMAP
000080
0003C0
0007C0
0003C0
0003C0
000380
000780
F83F00
F83E00
F83E00
F83E00
F83E00
F83E00
F83E00
F83E00
F83E00
F83E00
F87E00
F8FE00
FFFE00
7FDE00
7F9E00
1F1E00
ENDCHAR
STARTCHAR uni01C2
ENCODING 450
SWIDTH 600 0
DWIDTH 19 0
BBX 15 30 2 -7
BITMAP
07C0
07C0
07C0
07C0
07C0
07C0
07C0
07C0
07C0
07C0
FFFE
FFFE
07C0
07C0
07C0
07C0
FFFE
FFFE
07C0
07C0
07C0
07C0
07C0
07C0
07C0
07C0
07C0
07C0
07C0
07C0
ENDCHAR
STARTCHAR uni01CD
ENCODING 461
SWIDTH 600 0
DWIDTH 19 0
BBX 19 27 0 0
BITMAP
060C00
0F1E00
07BC00
03F800
01F800
000000
01F800
03F800
03F800
03FC00
07BC00
07BC00
07BC00
0F9E00
0F1E00
0F1E00
0F1F00
1E0F00
1FFF00
1FFF80
3FFF80
3FFF80
3C07C0
7C07C0
7C07C0
7803C0
F803E0
ENDCHAR
STARTCHAR uni01CE
ENCODING 462
SWIDTH 600 0
DWIDTH 19 0
BBX 15 24 2 0
BITMAP
0808
1C3C
3F78
0FF8
07F0
07E0
0000
0000
07E0
3FF8
7FFC
7FFC
307E
003E
03FE
1FFE
7FFE
FC3E
F83E
F87E
FFFE
FFFE
7FDE
1F1E
ENDCHAR
STARTCHAR uni01CF
ENCODING 463
SWIDTH 600 0
DWIDTH 19 0
BBX 15 27 2 0
BITMAP
1830
3C78
1EF0
0FE0
07E0
0000
FFFE
FFFE
FFFE
FFFE
07C0
07C0
07C0
07C0
07C0
07C0
07C0
07C0
07C0
07C0
07C0
07C0
07C0
FFFE
FFFE
FFFE
FFFE
ENDCHAR
STARTCHAR uni01D0
ENCODING 464
SWIDTH 600 0
DWIDTH 19 0
BBX 14 24 3 0
BITMAP
1818
3C3C
1E78
0FF0
0FF0
07E0
0000
0000
FFE0
FFE0
FFE0
FFE0
03E0
03E0
03E0
03E0
03E0
03E0
03E0
03E0
03E0
03E0
03E0
03E0
ENDCHAR
STARTCHAR uni01D1
ENCODING 465
SWIDTH 600 0
DWIDTH 19 0
BBX 17 27 1 0
BITMAP
0C1800
1E3C00
0F7800
07F000
03F000
000000
03F000
0FF800
1FFE00
3FFE00
7E3F00
7C1F00
7C0F80
F80F80
F80F80
F80F80
F80F80
F80F80
F80F80
F80F80
7C0F80
7C1F00
7E3F00
3FFE00
1FFE00
0FF800
03F000
ENDCHAR
STARTCHAR uni01D2
ENCODING 466
SWIDTH 600 0
DWIDTH 19 0
BBX 17 24 1 0
BITMAP
080800
1E1C00
1F7C00
0FF800
07F000
03E000
000000
000000
03F000
0FF800
1FFE00
3FFE00
7E3F00
7C1F00
7C0F80
F80F80
780F80
7C0F80
7C1F00
7E3F00
3FFE00
1FFE00
0FF800
03F000
ENDCHAR
STARTCHAR uni01D3
ENCODING 467
SWIDTH 600 0
DWIDTH 19 0
BBX 15 27 2 0
BITMAP
1830
3C78
1EF0
0FE0
07E0
0000
F81E
F81E
F81E
F81E
F81E
F81E
F81E
F81E
F81E
F81E
F81E
F81E
F81E
F81E
F83E
F83E
7C7E
7FFC
3FFC
1FF8
0FE0
ENDCHAR
STARTCHAR uni01D4
ENCODING 468
SWIDTH 600 0
DWIDTH 19 0
BBX 15 24 2 0
BITMAP
1010
3838
3EF8
1FF0
0FE0
07C0
0000
0000
F83E
F83E
F83E
F83E
F83E
F83E
F83E
F83E
F83E
F83E
F87E
F8FE
FFFE
7FDE
7F9E
1F1E
ENDCHAR
STARTCHAR uni01D5
ENCODING 469
SWIDTH 600 0
DWIDTH 19 0
BBX 15 30 2 0
BITMAP
1FF0
1FF0
0000
0000
1830
3C78
3C78
1830
0000
F81E
F81E
F81E
F81E
F81E
F81E
F81E
F81E
F81E
F81E
F81E
F81E
F81E
F81E
F83E
F83E
7C7E
7FFC
3FFC
1FF8
0FE0
ENDCHAR
STARTCHAR uni01D6
ENCODING 470
SWIDTH 600 0
DWIDTH 19 0
BBX 15 26 2 0
BITMAP
1FF0
1FF0
0000
0000
1830
3C78
3C78
1830
0000
0000
F83E
F83E
F83E
F83E
F83E
F83E
F83E
F83E
F83E
F83E
F87E
F8FE
FFFE
7FDE
7F9E
1F1E
ENDCHAR
STARTCHAR uni01D7
ENCODING 471
SWIDTH 600 0
DWIDTH 19 0
BBX 15 32 2 0
BITMAP
0040
00E0
01F0
01C0
0380
0100
1830
3C78
3C78
1830
0000
F81E
F81E
F81E
F81E
F81E
F81E
F81E
F81E
F81E
F81E
F81E
F81E
F81E
F81E
F83E
F83E
7C7E
7FFC
3FFC
1FF8
0FE0
ENDCHAR
STARTCHAR uni01D8
ENCODING 472
SWIDTH 600 0
DWIDTH 19 0
BBX 15 28 2 0
BITMAP
0080
01E0
01C0
0380
0100
0000
1830
3C78
3C78
1830
0000
0000
F83E
F83E
F83E
F83E
F83E
F83E
F83E
F83E
F83E
F83E
F87E
F8FE
FFFE
7FDE
7F9E
1F1E
ENDCHAR
STARTCHAR uni01D9
ENCODING 473
SWIDTH 600 0
DWIDTH 19 0
BBX 15 32 2 0
BITMAP
0820
1C78
0EF0
0FE0
07C0
0000
1830
3C78
3C78
1830
0000
F81E
F81E
F81E
F81E
F81E
F81E
F81E
F81E
F81E
F81E
F81E
F81E
F81E
F81E
F83E
F83E
7C7E
7FFC
3FFC
1FF8
0FE0
ENDCHAR
STARTCHAR uni01DA
ENCODING 474
SWIDTH 600 0
DWIDTH 19 0
BBX 15 28 2 0
BITMAP
0820
1EF0
0FE0
07C0
0000
0000
1830
3C78
3C78
1830
0000
0000
F83E
F83E
F83E
F83E
F83E
F83E
F83E
F83E
F83E
F83E
F87E
F8FE
FFFE
7FDE
7F9E
1F1E
ENDCHAR
STARTCHAR uni01DB
ENCODING 475
SWIDTH 600 0
DWIDTH 19 0
BBX 15 32 2 0
BITMAP
0200
0E00
1F00
0780
0380
0100
1830
3C78
3C78
1830
0000
F81E
F81E
F81E
F81E
F81E
F81E
F81E
F81E
F81E
F81E
F81E
F81E
F81E
F81E
F83E
F83E
7C7E
7FFC
3FFC
1FF8
0FE0
ENDCHAR
STARTCHAR uni01DC
ENCODING 476
SWIDTH 600 0
DWIDTH 19 0
BBX 15 28 2 0
BITMAP
0200
0F00
0700
0380
0100
0000
1830
3C78
3C78
1830
0000
0000
F83E
F83E
F83E
F83E
F83E
F83E
F83E
F83E
F83E
F83E
F87E
F8FE
FFFE
7FDE
7F9E
1F1E
ENDCHAR
STARTCHAR uni01E2
ENCODING 482
SWIDTH 600 0
DWIDTH 19 0
BBX 19 26 0 0
BITMAP
00FF80
00FF80
00FF80
000000
000000
01FFE0
03FFE0
03FFE0
03FFE0
07FC00
07BC00
07BC00
0FBC00
0FBFC0
0F3FC0
1F3FC0
1F3FC0
1E3C00
3FFC00
3FFC00
3FFC00
7FFC00
7C3FE0
7C3FE0
F83FE0
F83FE0
ENDCHAR
STARTCHAR uni01E3
ENCODING 483
SWIDTH 600 0
DWIDTH 19 0
BBX 18 22 1 0
BITMAP
0FFC00
0FFC00
0FFC00
000000
000000
000000
1E1E00
7F7F00
FFFF80
7FFF80
63E3C0
01FFC0
0FFFC0
3FFFC0
7FFFC0
F9C000
F1E000
F1F100
FFFF80
FFFF80
FF7FC0
3C1F00
ENDCHAR
STARTCHAR Gcaron
ENCODING 486
SWIDTH 600 0
DWIDTH 19 0
BBX 17 27 1 0
BITMAP
060C00
0F1E00
07BC00
03F800
01F800
000000
01F800
07FE00
1FFF00
1FFE00
3F0C00
7E0400
7C0000
7C0000
780000
F87F80
F87F80
F87F80
F87F80
7C0F80
7C0F80
7E0F80
3F0F80
3FFF80
1FFF80
07FE00
01F800
ENDCHAR
STARTCHAR gcaron
ENCODING 487
SWIDTH 600 0
DWIDTH 19 0
BBX 16 31 2 -7
BITMAP
1010
3C38
1EFC
1FF0
0FE0
07E0
0000
0000
0FFF
3FFF
7FFF
7FFF
FC7F
F878
F87C
787C
7FF8
3FF8
3FE0
7000
7FF8
7FFE
7FFF
3FFF
700F
F00F
F01F
FFFE
FFFE
7FF8
1FE0
ENDCHAR
STARTCHAR uni01EA
ENCODING 490
SWIDTH 600 0
DWIDTH 19 0
BBX 17 29 1 -8
BITMAP
03F000
0FF800
1FFC00
3FFE00
7E3F00
7C1F00
7C0F00
F80F80
F80F80
F80F80
F80F80
F80F80
F80F80
F80F80
7C0F80
7C1F00
7E3F00
3FFE00
1FFC00
0FF800
03F000
01C000
038000
038000
039000
03F000
03F000
03F800
01E000
ENDCHAR
STARTCHAR uni01EB
ENCODING 491
SWIDTH 600 0
DWIDTH 19 0
BBX 17 23 1 -7
BITMAP
03F000
0FF800
1FFE00
3FFE00
7E3F00
7C1F00
7C0F80
F80F80
780F80
7C0F80
7C1F00
7E3F00
3FFE00
3FFE00
0FF800
07F000
01C000
038000
038000
038000
03F000
03F800
01F000
ENDCHAR
STARTCHAR uni01F4
ENCODING 500
SWIDTH 600 0
DWIDTH 19 0
BBX 17 29 1 0
BITMAP
001000
003800
007C00
00FC00
03F000
01E000
008000
000000
01F800
07FE00
1FFF00
1FFE00
3F0C00
7E0400
7C0000
7C0000
780000
F87F80
F87F80
F87F80
F87F80
7C0F80
7C0F80
7E0F80
3F0F80
3FFF80
1FFF80
07FE00
01F800
ENDCHAR
STARTCHAR uni01F5
ENCODING 501
SWIDTH 600 0
DWIDTH 19 0
BBX 16 33 2 -7
BITMAP
0020
0070
00F8
01F8
03F0
07C0
0380
0100
0000
0000
0FFF
3FFF
7FFF
7FFF
FC7F
F878
F87C
787C
7FF8
3FF8
3FE0
7000
7FF8
7FFE
7FFF
3FFF
700F
F00F
F01F
FFFE
FFFE
7FF8
1FE0
ENDCHAR
STARTCHAR uni01F8
ENCODING 504
SWIDTH 600 0
DWIDTH 19 0
BBX 15 29 2 0
BITMAP
0400
0F00
0F80
1FC0
07E0
01C0
00C0
0000
F81E
FC1E
FC1E
FC1E
FE1E
FE1E
FF1E
F71E
F79E
F79E
F39E
FBDE
F9DE
F9FE
F8FE
F8FE
F8FE
F87E
F87E
F83E
F83E
ENDCHAR
STARTCHAR uni01F9
ENCODING 505
SWIDTH 600 0
DWIDTH 19 0
BBX 15 26 2 0
BITMAP
0400
0E00
1F00
3F80
0FC0
07C0
03E0
0080
0000
0000
F1F8
F3FC
FFFE
FFFE
FE3E
FC3E
F81E
F81E
F81E
F81E
F81E
F81E
F81E
F81E
F81E
F81E
ENDCHAR
STARTCHAR Aringacute
ENCODING 506
SWIDTH 600 0
DWIDTH 19 0
BBX 19 32 0 0
BITMAP
001000
003800
007C00
00F000
01F000
03B800
031800
039800
03F800
01F000
000000
000000
01F800
03F800
03F800
03FC00
07BC00
07BC00
07BE00
0F1E00
0F1E00
0F1E00
1F0F00
1FFF00
1FFF00
3FFF80
3FFF80
3C0780
7C07C0
7C07C0
7803C0
F803E0
ENDCHAR
STARTCHAR aringacute
ENCODING 507
SWIDTH 600 0
DWIDTH 19 0
BBX 15 28 2 0
BITMAP
0020
0070
01F0
03C0
07F0
0E70
0E30
0E70
07F0
03E0
0000
0000
07E0
3FF8
7FFC
7FFC
307E
003E
03FE
1FFE
7FFE
FC3E
F83E
F87E
FFFE
FFFE
7FDE
1F1E
ENDCHAR
STARTCHAR AEacute
ENCODING 508
SWIDTH 600 0
DWIDTH 19 0
BBX 19 29 0 0
BITMAP
000200
000700
000F80
001F80
007E00
003C00
001000
000000
01FFE0
03FFE0
03FFE0
03FFE0
07FC00
07BC00
07BC00
0FBC00
0FBFC0
0F3FC0
1F3FC0
1F3FC0
1E3C00
3FFC00
3FFC00
3FFC00
7FFC00
7C3FE0
7C3FE0
F83FE0
F83FE0
ENDCHAR
STARTCHAR aeacute
ENCODING 509
SWIDTH 600 0
DWIDTH 19 0
BBX 18 26 1 0
BITMAP
001000
003800
007C00
00FE00
01F800
01F000
03E000
008000
000000
000000
1E1E00
7F7F00
FFFF80
7FFF80
63E3C0
01FFC0
0FFFC0
3FFFC0
7FFFC0
F9C000
F1E000
F1F100
FFFF80
FFFF80
FF7FC0
3C1F00
ENDCHAR
STARTCHAR Oslashacute
ENCODING 510
SWIDTH 600 0
DWIDTH 19 0
BBX 18 30 1 -1
BITMAP
002000
007000
00F800
01F800
07E000
03C000
010000
000100
03F380
0FFFC0
1FFF00
3FFF00
7E3F00
7C3F00
7C3F80
F87F80
F8FF80
F9EF80
F9CF80
FBCF80
FF8F80
FF0F80
7F0F80
7E1F00
7E3F00
3FFE00
7FFE00
FFF800
E3F000
600000
ENDCHAR
STARTCHAR oslashacute
ENCODING 511
SWIDTH 600 0
DWIDTH 19 0
BBX 17 27 1 -1
BITMAP
001000
003800
007C00
00FC00
01F800
03E000
01C000
008000
000000
000200
03F300
0FFF00
1FFE00
3FFE00
7E3F00
7C7F00
7CEF80
F9EF80
79CF80
7B8F80
7F1F00
7E3F00
3FFE00
3FFE00
7FF800
73F000
200000
ENDCHAR
STARTCHAR uni0218
ENCODING 536
SWIDTH 600 0
DWIDTH 19 0
BBX 16 29 2 -8
BITMAP
07E0
1FF8
3FFE
7FFC
7C1C
F808
F800
7E00
7F80
3FF0
1FFC
07FE
01FE
007F
001F
201F
783E
FFFE
FFFC
3FF8
0FE0
0000
0000
0380
03C0
05E0
01E0
0FC0
0F00
ENDCHAR
STARTCHAR uni0219
ENCODING 537
SWIDTH 600 0
DWIDTH 19 0
BBX 15 24 2 -8
BITMAP
0FE0
3FF8
7FFE
7FFC
7C18
7C08
7FC0
3FF8
1FFC
01FE
403E
783E
FFFE
FFFC
3FF8
0FE0
0000
0000
0380
03E0
05E0
01E0
0FC0
0F00
ENDCHAR
STARTCHAR uni021A
ENCODING 538
SWIDTH 600 0
DWIDTH 19 0
BBX 17 29 1 -8
BITMAP
FFFF80
FFFF80
FFFF80
FFFF80
03E000
03E000
03E000
03E000
03E000
03E000
03E000
03E000
03E000
03E000
03E000
03E000
03E000
03E000
03E000
03E000
03E000
000000
000000
01C000
03E000
00F000
00F000
07E000
078000
ENDCHAR
STARTCHAR uni021B
ENCODING 539
SWIDTH 600 0
DWIDTH 19 0
BBX 16 29 2 -8
BITMAP
0F00
0F00
0F00
0F00
0F00
FFFE
FFFE
FFFE
FFFE
0F00
0F00
0F00
0F00
0F00
0F00
0F80
0F82
0FFE
07FE
07FE
01FD
0000
0000
00E0
00F0
0178
0078
03F0
03C0
ENDCHAR
STARTCHAR uni0237
ENCODING 567
SWIDTH 600 0
DWIDTH 19 0
BBX 13 23 1 -7
BITMAP
3FF8
3FF8
3FF8
3FF8
00F8
00F8
00F8
00F8
00F8
00F8
00F8
00F8
00F8
00F8
00F8
00F8
00F8
00F0
41F0
7FF0
7FE0
FFC0
3F00
ENDCHAR
STARTCHAR uni0243
ENCODING 579
SWIDTH 600 0
DWIDTH 19 0
BBX 18 21 0 0
BITMAP
1FF800
1FFE00
1FFF00
1FFF80
1E0F80
1E0F80
1E0F80
1E0F00
1FFE00
1FFE00
1FFF00
1E0F80
1E07C0
FFE7C0
FFE7C0
1E07C0
1E0FC0
1FFF80
1FFF80
1FFF00
1FFC00
ENDCHAR
STARTCHAR uni0250
ENCODING 592
SWIDTH 600 0
DWIDTH 19 0
BBX 15 16 2 0
BITMAP
F0F8
F3FC
FFFE
FFFE
FE1E
FC1E
F87E
FFFC
FFF8
FFC0
F808
7C1C
7FFC
7FFE
3FF8
0FE0
ENDCHAR
STARTCHAR uni0251
ENCODING 593
SWIDTH 600 0
DWIDTH 19 0
BBX 16 16 1 0
BITMAP
07CF
1FEF
3FFF
3FFF
7E1F
7C1F
7C1F
F81F
781F
781F
7C1F
7E3F
7FFF
3FFF
1FEF
078F
ENDCHAR
STARTCHAR uni0252
ENCODING 594
SWIDTH 600 0
DWIDTH 19 0
BBX 16 16 2 0
BITMAP
F1F0
F7F8
FFFC
FFFE
FC3E
F83E
F81F
F81F
F81F
F81F
F83E
FC7E
FFFE
FFFC
F7F8
F1E0
ENDCHAR
STARTCHAR uni0253
ENCODING 595
SWIDTH 600 0
DWIDTH 19 0
BBX 16 23 2 0
BITMAP
0FC0
3FE0
3FC0
7FC0
7C00
F800
F800
F9F0
FFF8
FFFC
FFFE
FC3E
F83E
F81F
F81F
F81F
F81E
F83E
FC7E
FFFC
FFFC
F7F8
F1E0
ENDCHAR
STARTCHAR uni0254
ENCODING 596
SWIDTH 600 0
DWIDTH 19 0
BBX 15 16 2 0
BITMAP
1FC0
7FF0
FFF8
7FFC
30FC
007E
003E
003E
003E
003E
407E
60FC
FFFC
FFF8
7FF0
1FC0
ENDCHAR
STARTCHAR uni0255
ENCODING 597
SWIDTH 600 0
DWIDTH 19 0
BBX 16 19 2 -3
BITMAP
03F0
0FFC
3FFE
7FFE
7E0C
F800
F87C
F9FE
FBFE
FFFF
7F8F
7F0F
3FFE
3FFE
3FFC
7BF0
7800
7800
1000
ENDCHAR
STARTCHAR uni0256
ENCODING 598
SWIDTH 600 0
DWIDTH 19 0
BBX 19 30 1 -7
BITMAP
001F00
001F00
001F00
001F00
001F00
001F00
001F00
07DF00
1FFF00
3FFF00
3FFF00
7E3F00
7C1F00
781F00
F81F00
781F00
781F00
7C1F00
7E3F00
7FFF00
3FFF00
1FFF00
0F9F00
001F00
001F00
001F00
000FC0
000FC0
0007E0
0003E0
ENDCHAR
STARTCHAR uni0257
ENCODING 599
SWIDTH 600 0
DWIDTH 19 0
BBX 19 23 1 0
BITMAP
0003E0
000FE0
000FC0
001FC0
001F00
001F00
001F00
07DF00
1FFF00
3FFF00
3FFF00
7E3F00
7C1F00
781F00
F81F00
781F00
781F00
7C1F00
7E3F00
7FFF00
3FFF00
1FEF00
0F8F00
ENDCHAR
STARTCHAR uni0258
ENCODING 600
SWIDTH 600 0
DWIDTH 19 0
BBX 15 16 2 0
BITMAP
0FC0
3FF0
7FF8
7FFC
F03E
FFFE
FFFE
FFFE
FFFE
001E
003E
207E
7FFC
7FF8
FFF0
1FC0
ENDCHAR
STARTCHAR uni0259
ENCODING 601
SWIDTH 600 0
DWIDTH 19 0
BBX 15 16 2 0
BITMAP
0FC0
3FF0
7FF8
7FFC
307E
003E
001E
FFFE
FFFE
FFFE
FFFE
F03E
7FFC
7FF8
3FF0
0FC0
ENDCHAR
STARTCHAR uni025A
ENCODING 602
SWIDTH 600 0
DWIDTH 19 0
BBX 20 16 0 0
BITMAP
1F8000
7FE000
7FE200
3FFF80
21FF80
00FF80
07FBE0
1FF9F0
7F78E0
FC7800
F07800
F8F800
7FF000
7FF000
3FE000
0F8000
ENDCHAR
STARTCHAR uni025B
ENCODING 603
SWIDTH 600 0
DWIDTH 19 0
BBX 15 16 2 0
BITMAP
0FF0
3FFC
7FFE
7FFC
7C0C
3FE0
0FE0
3FE0
7FE0
F800
F804
FC0C
7FFE
7FFE
3FFC
0FF0
ENDCHAR
STARTCHAR uni025C
ENCODING 604
SWIDTH 600 0
DWIDTH 19 0
BBX 15 16 2 0
BITMAP
1FE0
7FF8
FFFC
FFFE
703E
4FFC
0FF0
0FFC
0FFE
003E
401E
703E
FFFE
FFFC
7FF8
1FE0
ENDCHAR
STARTCHAR uni025E
ENCODING 606
SWIDTH 600 0
DWIDTH 19 0
BBX 16 16 1 0
BITMAP
03F8
0FFE
1FFE
3FFF
7E1F
7CFE
78FC
F8FE
F8FF
781F
7C0F
7E1F
3FFF
3FFF
0FFE
03F8
ENDCHAR
STARTCHAR uni025F
ENCODING 607
SWIDTH 600 0
DWIDTH 19 0
BBX 17 23 1 -7
BITMAP
3FF800
3FF800
3FF800
3FF800
00F800
00F800
00F800
00F800
3FFF80
3FFF80
00F800
00F800
00F800
00F800
00F800
00F800
00F800
00F000
41F000
7FF000
7FE000
FFC000
3F8000
ENDCHAR
STARTCHAR uni0260
ENCODING 608
SWIDTH 600 0
DWIDTH 19 0
BBX 18 28 2 -7
BITMAP
0007C0
000FC0
001F80
003F80
003E00
0F3E00
3FFE00
7FFE00
7FFE00
FC7E00
F83E00
F83E00
F03E00
F03E00
F03E00
F83E00
F87E00
FFFE00
7FFE00
3FFE00
1FBE00
003E00
003E00
307C00
7FFC00
7FF800
7FF000
1FC000
ENDCHAR
STARTCHAR uni0261
ENCODING 609
SWIDTH 600 0
DWIDTH 19 0
BBX 16 23 1 -7
BITMAP
07CF
1FEF
3FFF
3FFF
7E3F
7C1F
7C1F
F81F
F81F
781F
7C1F
7E3F
7FFF
3FFF
1FFF
07DF
001F
001F
183F
3FFE
3FFC
7FF8
0FE0
ENDCHAR
STARTCHAR uni0262
ENCODING 610
SWIDTH 600 0
DWIDTH 19 0
BBX 15 16 2 0
BITMAP
03F0
0FFC
3FFE
7FFC
7E18
FC00
F8FE
F8FE
F8FE
F8FE
FC1E
7E1E
7FFE
3FFE
1FFC
07F0
ENDCHAR
STARTCHAR uni0263
ENCODING 611
SWIDTH 600 0
DWIDTH 19 0
BBX 17 23 1 -7
BITMAP
F80780
780F80
7C0F00
7C1F00
3C1E00
3E1E00
1E3E00
1E3C00
0F3C00
0F7800
0F7800
07F800
07F000
03F000
07F800
0F7800
0F3C00
0E3C00
0F3C00
0FFC00
0FF800
07F800
03E000
ENDCHAR
STARTCHAR uni0264
ENCODING 612
SWIDTH 600 0
DWIDTH 19 0
BBX 17 16 1 0
BITMAP
7C1F80
FF3F80
7FFF80
7FFF00
07F800
07F000
0FF800
1F7C00
1E3C00
3E1E00
3E1E00
3E3E00
3FFE00
1FFC00
0FF800
07F000
ENDCHAR
STARTCHAR uni0265
ENCODING 613
SWIDTH 600 0
DWIDTH 19 0
BBX 15 23 2 -7
BITMAP
F83E
F83E
F83E
F83E
F83E
F83E
F83E
F83E
F83E
F83E
F83E
F8FE
FFFE
7FFE
7FBE
1F3E
003E
003E
003E
003E
003E
003E
003E
ENDCHAR
STARTCHAR uni0266
ENCODING 614
SWIDTH 600 0
DWIDTH 19 0
BBX 15 23 2 0
BITMAP
0FC0
3FE0
3FC0
7FC0
7C00
F800
F800
F8F8
FBFC
FFFC
FFFE
FE3E
FC3E
F81E
F81E
F81E
F81E
F81E
F81E
F81E
F81E
F81E
F81E
ENDCHAR
STARTCHAR uni0267
ENCODING 615
SWIDTH 600 0
DWIDTH 19 0
BBX 15 30 2 -7
BITMAP
0FC0
3FE0
3FC0
7FC0
7C00
F800
F800
F8F8
FBFC
FFFC
FFFE
FE3E
FC3E
F81E
F81E
F81E
F81E
F81E
F81E
F81E
F81E
F81E
F81E
001E
003E
003E
01FE
01FC
01FC
01F0
ENDCHAR
STARTCHAR uni0268
ENCODING 616
SWIDTH 600 0
DWIDTH 19 0
BBX 15 24 3 0
BITMAP
03C0
07E0
07E0
07E0
07E0
03C0
0000
0000
FFE0
FFE0
FFE0
FFE0
03E0
03E0
03E0
03E0
7FFE
7FFE
03E0
03E0
03E0
03E0
03E0
03E0
ENDCHAR
STARTCHAR uni026A
ENCODING 618
SWIDTH 600 0
DWIDTH 19 0
BBX 14 16 3 0
BITMAP
FFFC
FFFC
FFFC
FFFC
0F80
0F80
0F80
0F80
0F80
0F80
0F80
0F80
FFFC
FFFC
FFFC
FFFC
ENDCHAR
STARTCHAR uni026B
ENCODING 619
SWIDTH 600 0
DWIDTH 19 0
BBX 15 23 2 0
BITMAP
FF80
FF80
FF80
FF80
0780
0780
0780
0780
0780
3F80
FF9C
FFFC
E7FC
27F8
0780
0780
0780
0780
07C4
07FE
03FE
03FE
00FC
ENDCHAR
STARTCHAR uni026C
ENCODING 620
SWIDTH 600 0
DWIDTH 19 0
BBX 16 23 1 0
BITMAP
7FC0
7FC0
7FC0
7FC0
03C0
03C0
03C0
03C0
3BC0
7FC0
E7C0
E3C0
7FFC
3FFC
03C0
03C0
03C0
03C0
03E2
03FF
01FF
01FF
007E
ENDCHAR
STARTCHAR uni026D
ENCODING 621
SWIDTH 600 0
DWIDTH 19 0
BBX 15 30 2 -7
BITMAP
FF80
FF80
FF80
FF80
0780
0780
0780
0780
0780
0780
0780
0780
0780
0780
0780
0780
0780
0780
0780
0780
0780
0780
0780
0780
0780
07C4
07FE
03FE
03FE
00FC
ENDCHAR
STARTCHAR uni026E
ENCODING 622
SWIDTH 600 0
DWIDTH 19 0
BBX 18 30 1 -7
BITMAP
F80000
F80000
F80000
F80000
F80000
F80000
F80000
FFFF80
FFFF80
FFFF80
FFFF00
F81F00
F81E00
F83C00
F87800
F8FE00
F9FF00
F9FF80
F8FFC0
F80FC0
F807C0
F807C0
F807C0
0007C0
0207C0
070FC0
07FF80
0FFF00
03FE00
00FC00
ENDCHAR
STARTCHAR uni026F
ENCODING 623
SWIDTH 600 0
DWIDTH 19 0
BBX 17 16 1 0
BITMAP
F1C780
F1C780
F1C780
F1C780
F1C780
F1C780
F1C780
F1C780
F1C780
F1C780
F3CF80
F3CF80
FFFF80
FFFF80
7DFF80
38F780
ENDCHAR
STARTCHAR uni0270
ENCODING 624
SWIDTH 600 0
DWIDTH 19 0
BBX 17 23 1 -7
BITMAP
F1C780
F1C780
F1C780
F1C780
F1C780
F1C780
F1C780
F1C780
F1C780
F1C780
F1C780
F3CF80
FFFF80
FFFF80
7FFF80
3CF780
000780
000780
000780
000780
000780
000780
000780
ENDCHAR
STARTCHAR uni0271
ENCODING 625
SWIDTH 600 0
DWIDTH 19 0
BBX 17 23 1 -7
BITMAP
F38F00
F7DF00
FFFF80
FFFF80
F9E780
F9E780
F9E780
F9E780
F9E780
F9E780
F9E780
F9E780
F9E780
F9E780
F9E780
F9E780
000780
000780
000780
001F80
001F80
003F00
003E00
ENDCHAR
STARTCHAR uni0272
ENCODING 626
SWIDTH 600 0
DWIDTH 19 0
BBX 18 23 -1 -7
BITMAP
0F1F00
0F7F80
0FFFC0
0FFFC0
0FC7C0
0F87C0
0F03C0
0F03C0
0F03C0
0F03C0
0F03C0
0F03C0
0F03C0
0F03C0
0F03C0
0F03C0
0F0000
0F0000
1F0000
7F0000
7F0000
7E0000
FC0000
ENDCHAR
STARTCHAR uni0273
ENCODING 627
SWIDTH 600 0
DWIDTH 19 0
BBX 18 23 2 -7
BITMAP
F1F000
F3FC00
FFFC00
FFFE00
FE3E00
FC3E00
F83E00
F83E00
F83E00
F83E00
F83E00
F83E00
F83E00
F83E00
F83E00
F83E00
003E00
003E00
003E00
001F80
001FC0
000FC0
0007C0
ENDCHAR
STARTCHAR uni0274
ENCODING 628
SWIDTH 600 0
DWIDTH 19 0
BBX 15 16 2 0
BITMAP
F83E
FC3E
FC3E
FE3E
FF3E
FF3E
F7BE
F79E
FBDE
FBDE
F9FE
F8FE
F8FE
F87E
F83E
F83E
ENDCHAR
STARTCHAR uni0275
ENCODING 629
SWIDTH 600 0
DWIDTH 19 0
BBX 17 16 1 0
BITMAP
03F000
0FFC00
3FFE00
3FFE00
7C1F00
7FFF00
7FFF80
FFFF80
FFFF80
780F80
7C0F00
7E1F00
3FFE00
3FFE00
0FFC00
03F000
ENDCHAR
STARTCHAR uni0276
ENCODING 630
SWIDTH 600 0
DWIDTH 19 0
BBX 18 16 1 0
BITMAP
0FFFC0
3FFFC0
7FFFC0
7FFFC0
FCF800
F8FF80
F8FF80
F0FF80
F0FF80
F8F800
F8F800
FCF800
7FFFC0
7FFFC0
3FFFC0
0FFFC0
ENDCHAR
STARTCHAR uni0278
ENCODING 632
SWIDTH 600 0
DWIDTH 19 0
BBX 17 30 1 -7
BITMAP
01E000
01E000
01E000
01E000
01E000
01E000
01E000
0FF800
1FFE00
3FFF00
7FFF00
F9EF80
F1E780
F1E780
F1E780
F1E780
F1E780
F1E780
F9EF80
7FFF00
3FFF00
1FFE00
0FF800
01E000
01E000
01E000
01E000
01E000
01E000
01E000
ENDCHAR
STARTCHAR uni0279
ENCODING 633
SWIDTH 600 0
DWIDTH 19 0
BBX 13 16 2 0
BITMAP
0078
0078
0078
0078
0078
0078
0078
0078
0078
00F8
01F8
03F8
FFF8
FF78
FE78
F838
ENDCHAR
STARTCHAR uni027A
ENCODING 634
SWIDTH 600 0
DWIDTH 19 0
BBX 13 23 2 0
BITMAP
0078
0078
0078
0078
0078
0078
0078
0078
0078
0078
0078
0078
0078
0078
0078
0078
00F8
01F8
03F8
FFF8
FF78
FE78
F838
ENDCHAR
STARTCHAR uni027B
ENCODING 635
SWIDTH 600 0
DWIDTH 19 0
BBX 16 23 2 -7
BITMAP
01F0
01F0
01F0
01F0
01F0
01F0
01F0
01F0
01F0
01F0
03F0
07F0
FFF0
FEF0
FCF0
F8F0
00F0
00F0
00F0
00FE
00FE
007F
003E
ENDCHAR
STARTCHAR uni027D
ENCODING 637
SWIDTH 600 0
DWIDTH 19 0
BBX 14 23 4 -7
BITMAP
F0F8
F3FC
F7F8
FFF8
FF00
FC00
F800
F800
F000
F000
F000
F000
F000
F000
F000
F000
F000
F800
FC20
FFE0
7FE0
3FF0
1FC0
ENDCHAR
STARTCHAR uni027E
ENCODING 638
SWIDTH 600 0
DWIDTH 19 0
BBX 14 16 4 0
BITMAP
07F8
1FFC
3FF8
7FF8
FE08
FC00
F800
F800
F000
F000
F000
F000
F000
F000
F000
F000
ENDCHAR
STARTCHAR uni0280
ENCODING 640
SWIDTH 600 0
DWIDTH 19 0
BBX 16 16 2 0
BITMAP
FFF0
FFF8
FFFC
FFFE
F83E
F83E
F83E
FFFE
FFFC
FFF8
FFF0
F8F8
F8FC
F87C
F83E
F83F
ENDCHAR
STARTCHAR uni0281
ENCODING 641
SWIDTH 600 0
DWIDTH 19 0
BBX 16 16 1 0
BITMAP
FC1F
7E1F
3F1F
1F1F
0FFF
1FFF
3FFF
3FFF
7E1F
7C1F
7C1F
7C1F
3FFF
3FFF
1FFF
07FF
ENDCHAR
STARTCHAR uni0282
ENCODING 642
SWIDTH 600 0
DWIDTH 19 0
BBX 15 23 2 -7
BITMAP
0FE0
3FF8
7FFE
7FFC
7C18
7C08
7FC0
3FF8
1FFC
01FE
403E
783E
FFFE
FFFC
FFF8
FFE0
F000
F000
F000
FE00
7E00
7E00
3F00
ENDCHAR
STARTCHAR uni0283
ENCODING 643
SWIDTH 600 0
DWIDTH 19 0
BBX 17 30 1 -7
BITMAP
003F00
00FF80
01FF00
01FF00
01F100
03E000
03E000
03E000
03E000
03E000
03E000
03E000
03E000
03E000
03E000
03E000
03E000
03E000
03E000
03E000
03E000
03E000
03E000
03E000
03E000
43E000
7FE000
7FC000
7F8000
BF0000
ENDCHAR
STARTCHAR uni0284
ENCODING 644
SWIDTH 600 0
DWIDTH 19 0
BBX 17 30 1 -7
BITMAP
003F00
00FF80
01FF00
01FF00
01F100
03E000
03E000
03E000
03E000
03E000
03E000
03E000
03E000
03E000
3FFF00
3FFF00
03E000
03E000
03E000
03E000
03E000
03E000
03E000
03E000
03E000
43E000
7FC000
7FC000
7F8000
BF0000
ENDCHAR
STARTCHAR uni0287
ENCODING 647
SWIDTH 600 0
DWIDTH 19 0
BBX 16 21 2 -5
BITMAP
7F00
FFC0
FFE0
FFE0
83E0
01F0
01F0
01F0
01F0
01F0
01F0
01F0
FFFF
FFFF
FFFF
FFFF
01E0
01E0
01E0
01E0
01E0
ENDCHAR
STARTCHAR uni0288
ENCODING 648
SWIDTH 600 0
DWIDTH 19 0
BBX 16 28 2 -7
BITMAP
0F00
0F00
0F00
0F00
0F00
FFFE
FFFE
FFFE
FFFE
0F00
0F00
0F00
0F00
0F00
0F00
0F00
0F00
0F00
0F00
0F00
0F00
0F00
0F80
0F82
0FFE
07FE
03FE
01FD
ENDCHAR
STARTCHAR uni0289
ENCODING 649
SWIDTH 600 0
DWIDTH 19 0
BBX 19 16 0 0
BITMAP
3E0F00
3E0F00
3E0F00
3E0F00
3E0F00
FFFFE0
FFFFE0
3E0F00
3E0F00
3E0F00
3E0F00
3F1F00
1FFF00
1FFF00
0FFF00
07C700
ENDCHAR
STARTCHAR uni028A
ENCODING 650
SWIDTH 600 0
DWIDTH 19 0
BBX 17 16 1 0
BITMAP
FE3F80
FE3F80
FE3F80
FE3F80
1C1E00
3C1E00
7C0F00
780F00
780F80
780F80
7C1F00
7E3F00
7FFF00
3FFE00
1FFC00
07F000
ENDCHAR
STARTCHAR uni028B
ENCODING 651
SWIDTH 600 0
DWIDTH 19 0
BBX 16 16 2 0
BITMAP
F8F8
F8FC
F8FE
F8FE
F83F
F81F
F81F
F81F
F81F
F81E
F83E
FC7E
7FFC
7FFC
3FF0
0FE0
ENDCHAR
STARTCHAR uni028C
ENCODING 652
SWIDTH 600 0
DWIDTH 19 0
BBX 17 16 1 0
BITMAP
03E000
07F000
07F000
07F800
0F7800
0F7800
1F7C00
1E3C00
1E3C00
3E3E00
3C1E00
3C1F00
7C1F00
780F00
780F80
F80F80
ENDCHAR
STARTCHAR uni028D
ENCODING 653
SWIDTH 600 0
DWIDTH 19 0
BBX 19 16 0 0
BITMAP
3F1F80
3F1F80
3F9F80
3FBF80
3FBF80
3FBF80
3FBFC0
79B7C0
79B3C0
79B3C0
79F3C0
79F3C0
78E3E0
F8E3E0
F803E0
F803E0
ENDCHAR
STARTCHAR uni028E
ENCODING 654
SWIDTH 600 0
DWIDTH 19 0
BBX 17 23 1 0
BITMAP
001F00
007F00
00FF00
00FE00
01F000
01E000
03E000
03C000
03E000
07E000
07F000
0FF000
0F7800
0F7800
1E7800
1E3C00
3E3C00
3C3E00
3C1E00
7C1F00
780F00
F80F80
F80F80
ENDCHAR
STARTCHAR uni028F
ENCODING 655
SWIDTH 600 0
DWIDTH 19 0
BBX 17 16 1 0
BITMAP
F80F80
7C0F00
7C1F00
3E1E00
1E3E00
1F3C00
0F7C00
0F7800
07F000
07F000
03E000
03E000
03E000
03E000
03E000
03E000
ENDCHAR
STARTCHAR uni0290
ENCODING 656
SWIDTH 600 0
DWIDTH 19 0
BBX 18 23 2 -7
BITMAP
7FFE00
7FFE00
7FFE00
7FFC00
00FC00
01F800
03F000
07E000
0FC000
0F8000
1F0000
3E0000
7FFE00
FFFE00
FFFE00
FFFE00
003E00
001E00
001F00
001FC0
001FC0
000FC0
0007C0
ENDCHAR
STARTCHAR uni0291
ENCODING 657
SWIDTH 600 0
DWIDTH 19 0
BBX 17 20 2 -4
BITMAP
7FFC00
7FFC00
7FFC00
7FF800
01F000
01F000
03E000
07CE00
0F9F00
1F3F80
3E3380
3E7380
7FFF80
FFFF00
FFFE00
FFFC00
00C000
01C000
01C000
004000
ENDCHAR
STARTCHAR uni0292
ENCODING 658
SWIDTH 600 0
DWIDTH 19 0
BBX 15 23 2 -7
BITMAP
7FFC
7FFC
7FFC
7FFC
00F0
01E0
03C0
0780
1FE0
3FF8
1FFC
1FFC
107E
003E
003E
003E
003E
603E
707C
FFFC
FFF8
3FF0
0FC0
ENDCHAR
STARTCHAR uni0294
ENCODING 660
SWIDTH 600 0
DWIDTH 19 0
BBX 15 23 2 0
BITMAP
0FC0
3FF0
FFF8
FFFC
707C
603E
003E
003E
003E
007C
00FC
01F8
07F0
07E0
07C0
0780
0780
0780
0780
0780
0780
0780
0780
ENDCHAR
STARTCHAR uni0295
ENCODING 661
SWIDTH 600 0
DWIDTH 19 0
BBX 16 23 2 0
BITMAP
07E0
1FF8
3FFE
7FFF
7C1E
F80C
F800
F800
F800
7C00
7E00
3F00
1FC0
0FE0
03E0
03E0
03E0
03E0
03E0
03E0
03E0
03E0
03E0
ENDCHAR
STARTCHAR uni0298
ENCODING 664
SWIDTH 600 0
DWIDTH 19 0
BBX 17 23 1 0
BITMAP
03E000
0FF800
1FFC00
3FFE00
3E3E00
7C1F00
7C0F00
780F00
780F80
79CF80
FBEF80
FBEF80
79EF80
788F80
780F80
780F00
7C0F00
7C1F00
3E3E00
3FFE00
1FFC00
0FF800
03E000
ENDCHAR
STARTCHAR uni0299
ENCODING 665
SWIDTH 600 0
DWIDTH 19 0
BBX 15 16 3 0
BITMAP
FFF0
FFFC
FFFC
FFFE
F83E
FFFC
FFF0
FFFC
FFFE
F83E
F81E
F83E
FFFE
FFFE
FFFC
FFF0
ENDCHAR
STARTCHAR uni029C
ENCODING 668
SWIDTH 600 0
DWIDTH 19 0
BBX 15 16 2 0
BITMAP
F83E
F83E
F83E
F83E
F83E
F83E
FFFE
FFFE
FFFE
FFFE
F83E
F83E
F83E
F83E
F83E
F83E
ENDCHAR
STARTCHAR uni029D
ENCODING 669
SWIDTH 600 0
DWIDTH 19 0
BBX 16 32 1 -8
BITMAP
00F0
01F8
01F8
01F8
01F8
00F0
0000
0000
3FF8
3FF8
3FF8
3FF8
00F8
00F8
00F8
00F8
00F8
00F8
00F8
00F8
00F8
3FF8
7FF8
FFF8
FFF8
E0F8
F1FC
FFFE
7FFE
7FDF
1F0E
0008
ENDCHAR
STARTCHAR uni029E
ENCODING 670
SWIDTH 600 0
DWIDTH 19 0
BBX 17 23 0 -7
BITMAP
7C0F80
3E0F80
1E0F80
1F0F80
0F8F80
079F80
07FF80
03FF80
01FF80
01FF80
03EF80
07CF80
0F8F80
1F0F80
3E0F80
7C0F80
800F80
000F80
000F80
000F80
000F80
000F80
000F80
ENDCHAR
STARTCHAR uni029F
ENCODING 671
SWIDTH 600 0
DWIDTH 19 0
BBX 13 16 4 0
BITMAP
F800
F800
F800
F800
F800
F800
F800
F800
F800
F800
F800
F800
FFF8
FFF8
FFF8
FFF8
ENDCHAR
STARTCHAR uni02A1
ENCODING 673
SWIDTH 600 0
DWIDTH 19 0
BBX 15 23 2 0
BITMAP
0FC0
3FF0
FFF8
FFFC
707E
603E
003E
003E
003E
007C
00FC
01F8
03F0
FFFE
FFFE
0780
0780
0780
0780
0780
0780
0780
0780
ENDCHAR
STARTCHAR uni02A2
ENCODING 674
SWIDTH 600 0
DWIDTH 19 0
BBX 16 23 2 0
BITMAP
07E0
1FF8
3FFE
7FFF
7C1E
F80C
F800
F800
F800
7C00
3E00
3F00
1F80
FFFE
FFFE
03E0
03E0
03E0
03E0
03E0
03E0
03E0
03E0
ENDCHAR
STARTCHAR uni02A4
ENCODING 676
SWIDTH 600 0
DWIDTH 19 0
BBX 20 30 0 -7
BITMAP
01E000
01E000
01E000
01E000
01E000
01E000
01E000
1DFFE0
3FFFE0
7FFFE0
7FFFE0
F9E3C0
F1E380
F1E780
F1EF00
F1EF80
F1FFC0
F1EFE0
F9EFE0
7FE1F0
7FE1F0
3EE0F0
1CE0F0
0000F0
0001F0
0011E0
003FE0
003FC0
003FC0
001F00
ENDCHAR
STARTCHAR uni02A6
ENCODING 678
SWIDTH 600 0
DWIDTH 19 0
BBX 19 20 0 0
BITMAP
1E0000
1E0000
1E0000
1E0000
FFFF80
FFFFC0
FFFFE0
FFFFC0
3E7C80
3E7E00
3E3F00
3E1F80
3E07C0
3E03E0
3E01E0
1F03E0
1FFFE0
1FFFC0
0FFF80
01FE00
ENDCHAR
STARTCHAR uni02A7
ENCODING 679
SWIDTH 600 0
DWIDTH 19 0
BBX 21 30 0 -7
BITMAP
0000F8
0003F8
1E07F0
1E07F0
1E07C0
1E0780
1E0780
FFFF80
FFFF80
FFFF80
FFFF80
3E0780
3E0780
3E0780
3E0780
3E0780
3E0780
3E0780
3F0780
1FE780
1FE780
0FE780
07E780
000780
000780
000F80
003F80
003F00
007F00
007C00
ENDCHAR
STARTCHAR h.sups
ENCODING 688
SWIDTH 600 0
DWIDTH 19 0
BBX 10 15 5 12
BITMAP
E000
E000
E000
E000
E700
FF80
FFC0
F3C0
E1C0
E1C0
E1C0
E1C0
E1C0
E1C0
E1C0
ENDCHAR
STARTCHAR j.sups
ENCODING 690
SWIDTH 600 0
DWIDTH 19 0
BBX 9 20 4 8
BITMAP
0700
0780
0F80
0700
0000
7F00
7F00
7F00
0700
0700
0700
0700
0700
0700
0700
0700
0700
7F00
FE00
7C00
ENDCHAR
STARTCHAR r.sups
ENCODING 691
SWIDTH 600 0
DWIDTH 19 0
BBX 9 11 7 12
BITMAP
E700
EF80
FF00
F800
F000
E000
E000
E000
E000
E000
E000
ENDCHAR
STARTCHAR w.sups
ENCODING 695
SWIDTH 600 0
DWIDTH 19 0
BBX 16 11 1 12
BITMAP
F1C7
73C7
73CE
73CE
73EE
3FEE
3F6C
3E6C
3E7C
3E7C
1E7C
ENDCHAR
STARTCHAR y.sups
ENCODING 696
SWIDTH 600 0
DWIDTH 19 0
BBX 11 15 4 8
BITMAP
F0E0
71E0
71C0
39C0
39C0
3B80
1F80
1F00
0F00
0F00
0E00
0E00
7E00
7C00
7800
ENDCHAR
STARTCHAR uni02B9
ENCODING 697
SWIDTH 600 0
DWIDTH 19 0
BBX 6 11 7 11
BITMAP
7C
7C
78
78
78
78
78
70
F0
F0
F0
ENDCHAR
STARTCHAR uni02BB
ENCODING 699
SWIDTH 600 0
DWIDTH 19 0
BBX 7 13 6 9
BITMAP
04
1C
3E
78
70
F0
E0
FC
FC
FE
FE
7C
38
ENDCHAR
STARTCHAR uni02BC
ENCODING 700
SWIDTH 600 0
DWIDTH 19 0
BBX 7 13 6 9
BITMAP
38
7C
FE
FE
7E
3E
0E
0E
1E
3C
F8
70
40
ENDCHAR
STARTCHAR uni02BE
ENCODING 702
SWIDTH 600 0
DWIDTH 19 0
BBX 6 10 7 17
BITMAP
F0
F8
FC
3C
1C
1C
3C
FC
F8
F0
ENDCHAR
STARTCHAR uni02BF
ENCODING 703
SWIDTH 600 0
DWIDTH 19 0
BBX 6 10 6 17
BITMAP
1C
7C
FC
F0
E0
E0
F0
FC
7C
1C
ENDCHAR
STARTCHAR uni02C1
ENCODING 705
SWIDTH 600 0
DWIDTH 19 0
BBX 10 13 5 14
BITMAP
1F00
7F80
FFC0
F180
E000
E000
F000
7800
7C00
1E00
1E00
1E00
1E00
ENDCHAR
STARTCHAR circumflex
ENCODING 710
SWIDTH 600 0
DWIDTH 19 0
BBX 11 6 4 18
BITMAP
1F00
3F80
7FC0
FBE0
F0E0
4040
ENDCHAR
STARTCHAR caron
ENCODING 711
SWIDTH 600 0
DWIDTH 19 0
BBX 11 6 4 18
BITMAP
4040
F0E0
FBE0
7FC0
3F80
1F00
ENDCHAR
STARTCHAR uni02C8
ENCODING 712
SWIDTH 600 0
DWIDTH 19 0
BBX 5 12 7 12
BITMAP
F8
F8
F8
F8
78
78
78
70
70
70
70
70
ENDCHAR
STARTCHAR uni02C9
ENCODING 713
SWIDTH 600 0
DWIDTH 19 0
BBX 9 3 5 19
BITMAP
FF80
FF80
FF80
ENDCHAR
STARTCHAR uni02CA
ENCODING 714
SWIDTH 600 0
DWIDTH 19 0
BBX 8 8 7 18
BITMAP
04
0E
1F
3F
7E
F8
70
20
ENDCHAR
STARTCHAR uni02CB
ENCODING 715
SWIDTH 600 0
DWIDTH 19 0
BBX 8 8 4 18
BITMAP
10
30
78
FC
3E
1F
0E
04
ENDCHAR
STARTCHAR uni02CC
ENCODING 716
SWIDTH 600 0
DWIDTH 19 0
BBX 5 12 7 -9
BITMAP
70
70
70
70
70
78
78
78
F8
F8
F8
F8
ENDCHAR
STARTCHAR uni02D0
ENCODING 720
SWIDTH 600 0
DWIDTH 19 0
BBX 9 17 5 0
BITMAP
FF80
7F00
3E00
3E00
1C00
0C00
0800
0000
0000
0000
0800
1C00
1C00
3E00
3E00
7F00
FF80
ENDCHAR
STARTCHAR uni02D1
ENCODING 721
SWIDTH 600 0
DWIDTH 19 0
BBX 9 7 5 10
BITMAP
FF80
7F00
3E00
3E00
1C00
1C00
0800
ENDCHAR
STARTCHAR breve
ENCODING 728
SWIDTH 600 0
DWIDTH 19 0
BBX 11 5 4 18
BITMAP
E0E0
F1E0
7FC0
3FC0
1F00
ENDCHAR
STARTCHAR dotaccent
ENCODING 729
SWIDTH 600 0
DWIDTH 19 0
BBX 7 6 6 18
BITMAP
38
7C
FE
FE
7C
38
ENDCHAR
STARTCHAR ring
ENCODING 730
SWIDTH 600 0
DWIDTH 19 0
BBX 9 7 5 18
BITMAP
3E00
7F00
7380
E380
7380
7F00
3E00
ENDCHAR
STARTCHAR ogonek
ENCODING 731
SWIDTH 600 0
DWIDTH 19 0
BBX 8 7 6 -7
BITMAP
38
70
60
F0
FE
7E
3D
ENDCHAR
STARTCHAR tilde
ENCODING 732
SWIDTH 600 0
DWIDTH 19 0
BBX 12 5 4 18
BITMAP
3800
FEF0
FFE0
EFE0
E3C0
ENDCHAR
STARTCHAR hungarumlaut
ENCODING 733
SWIDTH 600 0
DWIDTH 19 0
BBX 12 7 5 18
BITMAP
1040
3CF0
3CE0
39E0
71C0
73C0
A080
ENDCHAR
STARTCHAR uni02DE
ENCODING 734
SWIDTH 600 0
DWIDTH 19 0
BBX 10 8 3 7
BITMAP
0400
1C00
7C00
FE00
FE00
CFC0
07C0
03C0
ENDCHAR
STARTCHAR uni02E0
ENCODING 736
SWIDTH 600 0
DWIDTH 19 0
BBX 11 15 4 8
BITMAP
F0E0
71C0
71C0
39C0
3B80
3B80
1F80
1F00
1F00
1F00
1B80
3B80
3B80
1F80
0F00
ENDCHAR
STARTCHAR l.sups
ENCODING 737
SWIDTH 600 0
DWIDTH 19 0
BBX 9 15 6 12
BITMAP
F800
F800
F800
3800
3800
3800
3800
3800
3800
3800
3800
3C00
3F80
1F80
0F80
ENDCHAR
STARTCHAR s.sups
ENCODING 738
SWIDTH 600 0
DWIDTH 19 0
BBX 10 11 5 12
BITMAP
3E00
7F80
FFC0
F100
7800
7F00
1F80
03C0
43C0
FF80
7F00
ENDCHAR
STARTCHAR x.sups
ENCODING 739
SWIDTH 600 0
DWIDTH 19 0
BBX 11 11 4 12
BITMAP
F1E0
79C0
3BC0
3F80
1F00
1F00
1F00
3F80
3B80
71C0
F1E0
ENDCHAR
STARTCHAR uni02E4
ENCODING 740
SWIDTH 600 0
DWIDTH 19 0
BBX 10 15 5 12
BITMAP
1F00
7F80
FFC0
F180
E000
E000
F000
7800
7C00
1E00
1E00
1E00
1E00
1E00
1E00
ENDCHAR
STARTCHAR uni0300
ENCODING 768
SWIDTH 600 0
DWIDTH 19 0
BBX 8 8 4 18
BITMAP
10
30
78
FC
3E
1F
0E
04
ENDCHAR
STARTCHAR uni0301
ENCODING 769
SWIDTH 600 0
DWIDTH 19 0
BBX 8 8 7 18
BITMAP
04
0E
1F
3F
7E
F8
70
20
ENDCHAR
STARTCHAR uni0302
ENCODING 770
SWIDTH 600 0
DWIDTH 19 0
BBX 11 6 4 18
BITMAP
1F00
3F80
7FC0
FBE0
F0E0
4040
ENDCHAR
STARTCHAR uni0303
ENCODING 771
SWIDTH 600 0
DWIDTH 19 0
BBX 12 5 4 18
BITMAP
3800
FEF0
FFE0
EFE0
E3C0
ENDCHAR
STARTCHAR uni0304
ENCODING 772
SWIDTH 600 0
DWIDTH 19 0
BBX 9 3 5 19
BITMAP
FF80
FF80
FF80
ENDCHAR
STARTCHAR uni0305
ENCODING 773
SWIDTH 600 0
DWIDTH 19 0
BBX 9 3 5 19
BITMAP
FF80
FF80
FF80
ENDCHAR
STARTCHAR uni0306
ENCODING 774
SWIDTH 600 0
DWIDTH 19 0
BBX 11 5 4 18
BITMAP
E0E0
F1E0
7FC0
3FC0
1F00
ENDCHAR
STARTCHAR uni0307
ENCODING 775
SWIDTH 600 0
DWIDTH 19 0
BBX 7 6 6 18
BITMAP
38
7C
FE
FE
7C
38
ENDCHAR
STARTCHAR uni0308
ENCODING 776
SWIDTH 600 0
DWIDTH 19 0
BBX 13 5 3 18
BITMAP
7870
78F8
FCF8
78F8
7870
ENDCHAR
STARTCHAR uni0309
ENCODING 777
SWIDTH 600 0
DWIDTH 19 0
BBX 6 7 7 18
BITMAP
E0
F8
F8
3C
3C
78
70
ENDCHAR
STARTCHAR uni030A
ENCODING 778
SWIDTH 600 0
DWIDTH 19 0
BBX 9 7 5 18
BITMAP
3E00
7F00
7380
E380
7380
7F00
3E00
ENDCHAR
STARTCHAR uni030B
ENCODING 779
SWIDTH 600 0
DWIDTH 19 0
BBX 12 7 5 18
BITMAP
1040
3CF0
3CE0
39E0
71C0
73C0
A080
ENDCHAR
STARTCHAR uni030C
ENCODING 780
SWIDTH 600 0
DWIDTH 19 0
BBX 11 6 4 18
BITMAP
4040
F0E0
FBE0
7FC0
3F80
1F00
ENDCHAR
STARTCHAR uni030F
ENCODING 783
SWIDTH 600 0
DWIDTH 19 0
BBX 12 7 2 18
BITMAP
2080
F3C0
73C0
79E0
38E0
1CF0
1840
ENDCHAR
STARTCHAR uni0310
ENCODING 784
SWIDTH 600 0
DWIDTH 19 0
BBX 11 9 4 18
BITMAP
0E00
1F00
1F00
1F00
EE60
F0E0
7FE0
7FC0
1F00
ENDCHAR
STARTCHAR uni0311
ENCODING 785
SWIDTH 600 0
DWIDTH 19 0
BBX 11 5 4 19
BITMAP
1F00
7FC0
7FC0
F1E0
E0E0
ENDCHAR
STARTCHAR uni0312
ENCODING 786
SWIDTH 600 0
DWIDTH 19 0
BBX 5 7 7 18
BITMAP
10
78
60
F0
F8
78
70
ENDCHAR
STARTCHAR uni0313
ENCODING 787
SWIDTH 600 0
DWIDTH 19 0
BBX 5 7 7 18
BITMAP
70
F8
F8
78
38
70
E0
ENDCHAR
STARTCHAR uni0318
ENCODING 792
SWIDTH 600 0
DWIDTH 19 0
BBX 6 6 7 -8
BITMAP
0C
0C
FC
FC
0C
0C
ENDCHAR
STARTCHAR uni0319
ENCODING 793
SWIDTH 600 0
DWIDTH 19 0
BBX 6 6 6 -8
BITMAP
E0
E0
FC
FC
E0
E0
ENDCHAR
STARTCHAR uni031A
ENCODING 794
SWIDTH 600 0
DWIDTH 19 0
BBX 6 5 7 18
BITMAP
FC
FC
1C
1C
1C
ENDCHAR
STARTCHAR uni031B
ENCODING 795
SWIDTH 600 0
DWIDTH 19 0
BBX 6 8 9 14
BITMAP
0C
3C
3C
3C
3C
3C
F8
60
ENDCHAR
STARTCHAR uni031C
ENCODING 796
SWIDTH 600 0
DWIDTH 19 0
BBX 6 6 6 -8
BITMAP
3C
7C
F0
70
7C
3C
ENDCHAR
STARTCHAR uni031D
ENCODING 797
SWIDTH 600 0
DWIDTH 19 0
BBX 8 6 6 -7
BITMAP
38
38
38
38
FF
FF
ENDCHAR
STARTCHAR uni031E
ENCODING 798
SWIDTH 600 0
DWIDTH 19 0
BBX 8 6 6 -8
BITMAP
FF
FF
38
38
38
38
ENDCHAR
STARTCHAR uni031F
ENCODING 799
SWIDTH 600 0
DWIDTH 19 0
BBX 8 6 6 -8
BITMAP
38
38
FF
FF
38
38
ENDCHAR
STARTCHAR uni0320
ENCODING 800
SWIDTH 600 0
DWIDTH 19 0
BBX 8 2 6 -5
BITMAP
FF
FF
ENDCHAR
STARTCHAR uni0323
ENCODING 803
SWIDTH 600 0
DWIDTH 19 0
BBX 7 6 6 -8
BITMAP
38
7C
FE
FE
7C
38
ENDCHAR
STARTCHAR uni0324
ENCODING 804
SWIDTH 600 0
DWIDTH 19 0
BBX 13 5 3 -8
BITMAP
7870
78F8
FCF8
78F8
7870
ENDCHAR
STARTCHAR uni0325
ENCODING 805
SWIDTH 600 0
DWIDTH 19 0
BBX 9 7 5 -8
BITMAP
3E00
7F00
7380
E380
7380
7F00
3E00
ENDCHAR
STARTCHAR uni0326
ENCODING 806
SWIDTH 600 0
DWIDTH 19 0
BBX 7 6 6 -8
BITMAP
38
7C
1E
1E
FC
F0
ENDCHAR
STARTCHAR uni0327
ENCODING 807
SWIDTH 600 0
DWIDTH 19 0
BBX 7 8 6 -8
BITMAP
38
30
7C
1C
1E
1C
FC
F0
ENDCHAR
STARTCHAR uni0328
ENCODING 808
SWIDTH 600 0
DWIDTH 19 0
BBX 8 7 6 -7
BITMAP
38
70
60
F0
FE
7E
3D
ENDCHAR
STARTCHAR uni0329
ENCODING 809
SWIDTH 600 0
DWIDTH 19 0
BBX 3 7 8 -9
BITMAP
E0
E0
E0
E0
E0
E0
E0
ENDCHAR
STARTCHAR uni032A
ENCODING 810
SWIDTH 600 0
DWIDTH 19 0
BBX 9 4 5 -7
BITMAP
FF80
FF80
E380
E380
ENDCHAR
STARTCHAR uni032C
ENCODING 812
SWIDTH 600 0
DWIDTH 19 0
BBX 11 6 4 -8
BITMAP
4040
F0E0
FBE0
7FC0
3F80
1F00
ENDCHAR
STARTCHAR uni032E
ENCODING 814
SWIDTH 600 0
DWIDTH 19 0
BBX 11 5 4 -8
BITMAP
E0E0
F1E0
7FC0
3FC0
1F00
ENDCHAR
STARTCHAR uni032F
ENCODING 815
SWIDTH 600 0
DWIDTH 19 0
BBX 11 5 4 -7
BITMAP
1F00
7FC0
7FC0
F1E0
E0E0
ENDCHAR
STARTCHAR uni0330
ENCODING 816
SWIDTH 600 0
DWIDTH 19 0
BBX 12 5 4 -8
BITMAP
3800
FEF0
FFE0
EFE0
E3C0
ENDCHAR
STARTCHAR uni0331
ENCODING 817
SWIDTH 600 0
DWIDTH 19 0
BBX 9 3 5 -6
BITMAP
FF80
FF80
FF80
ENDCHAR
STARTCHAR uni0334
ENCODING 820
SWIDTH 600 0
DWIDTH 19 0
BBX 15 5 2 5
BITMAP
3C00
7F8E
7FFE
F3FC
20F8
ENDCHAR
STARTCHAR uni0339
ENCODING 825
SWIDTH 600 0
DWIDTH 19 0
BBX 6 6 7 -8
BITMAP
F0
F8
3C
3C
F8
F0
ENDCHAR
STARTCHAR uni033A
ENCODING 826
SWIDTH 600 0
DWIDTH 19 0
BBX 9 4 5 -7
BITMAP
E380
E380
FF80
FF80
ENDCHAR
STARTCHAR uni033B
ENCODING 827
SWIDTH 600 0
DWIDTH 19 0
BBX 9 6 5 -8
BITMAP
FF80
FF80
E380
E380
FF80
FF80
ENDCHAR
STARTCHAR uni033C
ENCODING 828
SWIDTH 600 0
DWIDTH 19 0
BBX 13 6 3 -8
BITMAP
3CE0
7DF0
7FF0
6738
E738
E738
ENDCHAR
STARTCHAR uni033D
ENCODING 829
SWIDTH 600 0
DWIDTH 19 0
BBX 7 7 6 18
BITMAP
44
EE
7C
38
7C
EE
44
ENDCHAR
STARTCHAR uni0342
ENCODING 834
SWIDTH 600 0
DWIDTH 19 0
BBX 12 5 4 18
BITMAP
3800
FEF0
FFE0
EFE0
E3C0
ENDCHAR
STARTCHAR uni0345
ENCODING 837
SWIDTH 600 0
DWIDTH 19 0
BBX 5 5 8 -7
BITMAP
E0
E0
F8
F8
78
ENDCHAR
STARTCHAR uni035F
ENCODING 863
SWIDTH 600 0
DWIDTH 19 0
BBX 33 4 -7 -6
BITMAP
FFFFFFFF80
FFFFFFFF80
FFFFFFFF80
FFFFFFFF80
ENDCHAR
STARTCHAR uni0361
ENCODING 865
SWIDTH 600 0
DWIDTH 19 0
BBX 29 7 -5 19
BITMAP
003FF000
03FFFE00
1FFFFFC0
3FFFFFF0
FF800FF8
F80000F8
40000010
ENDCHAR
STARTCHAR uni0374
ENCODING 884
SWIDTH 600 0
DWIDTH 19 0
BBX 6 10 7 12
BITMAP
7C
78
78
78
78
78
70
70
F0
F0
ENDCHAR
STARTCHAR uni0375
ENCODING 885
SWIDTH 600 0
DWIDTH 19 0
BBX 6 10 6 0
BITMAP
1C
3C
3C
3C
3C
78
78
78
78
F8
ENDCHAR
STARTCHAR uni037A
ENCODING 890
SWIDTH 600 0
DWIDTH 19 0
BBX 5 5 8 -7
BITMAP
E0
E0
F8
F8
78
ENDCHAR
STARTCHAR uni037E
ENCODING 894
SWIDTH 600 0
DWIDTH 19 0
BBX 8 25 6 -7
BITMAP
3C
7E
FE
FE
FE
FE
7E
38
00
00
00
3C
7E
FE
FF
FF
7F
3F
0F
0E
1E
3C
FC
F8
60
ENDCHAR
STARTCHAR tonos
ENCODING 900
SWIDTH 600 0
DWIDTH 19 0
BBX 6 9 8 18
BITMAP
70
7C
78
F8
F0
F0
F0
E0
E0
ENDCHAR
STARTCHAR dieresistonos
ENCODING 901
SWIDTH 600 0
DWIDTH 19 0
BBX 13 8 3 18
BITMAP
0380
0380
0380
73B0
F778
F778
7730
0600
ENDCHAR
STARTCHAR Alphatonos
ENCODING 902
SWIDTH 600 0
DWIDTH 19 0
BBX 19 22 0 0
BITMAP
780000
7DF800
79FC00
79FC00
79FC00
73FC00
73DE00
F3DE00
F3DE00
E79F00
E78F00
078F00
0F8F00
0FFF80
0FFF80
0FFF80
1FFF80
1F07C0
1E07C0
1E07C0
3E03E0
3E03E0
ENDCHAR
STARTCHAR anoteleia
ENCODING 903
SWIDTH 600 0
DWIDTH 19 0
BBX 7 8 6 10
BITMAP
3C
7E
FE
FE
FE
FE
7E
38
ENDCHAR
STARTCHAR Epsilontonos
ENCODING 904
SWIDTH 600 0
DWIDTH 19 0
BBX 17 22 0 0
BITMAP
780000
79FF80
79FF80
79FF80
79FF80
71E000
F1E000
F1E000
F1E000
E1FE00
E1FE00
01FE00
01FE00
01E000
01E000
01E000
01E000
01E000
01FF80
01FF80
01FF80
01FF80
ENDCHAR
STARTCHAR Etatonos
ENCODING 905
SWIDTH 600 0
DWIDTH 19 0
BBX 18 22 0 0
BITMAP
780000
7BE7C0
7BE7C0
7BE7C0
7BE7C0
73E7C0
F3E7C0
F3E7C0
F3E7C0
E3FFC0
E3FFC0
03FFC0
03FFC0
03E7C0
03E7C0
03E7C0
03E7C0
03E7C0
03E7C0
03E7C0
03E7C0
03E7C0
ENDCHAR
STARTCHAR Iotatonos
ENCODING 906
SWIDTH 600 0
DWIDTH 19 0
BBX 17 22 0 0
BITMAP
780000
7BFF80
7BFF80
7BFF80
7BFF80
707C00
F07C00
F07C00
F07C00
E07C00
E07C00
007C00
007C00
007C00
007C00
007C00
007C00
007C00
03FF80
03FF80
03FF80
03FF80
ENDCHAR
STARTCHAR Omicrontonos
ENCODING 908
SWIDTH 600 0
DWIDTH 19 0
BBX 18 22 0 0
BITMAP
780000
787C00
79FE00
79FF00
7BFF80
73CF80
F7C780
F787C0
F787C0
E787C0
E783C0
0783C0
0787C0
0787C0
0787C0
0787C0
07C780
03CF80
03FF80
01FF00
00FE00
007C00
ENDCHAR
STARTCHAR Upsilontonos
ENCODING 910
SWIDTH 600 0
DWIDTH 19 0
BBX 20 22 0 0
BITMAP
3C0000
3FE0F0
79E1E0
79E1E0
78F1E0
78F1C0
70F3C0
7073C0
707B80
F07B80
603F80
003F00
003F00
001F00
001E00
001E00
001E00
001E00
001E00
001E00
001E00
001E00
ENDCHAR
STARTCHAR Omegatonos
ENCODING 911
SWIDTH 600 0
DWIDTH 19 0
BBX 18 22 0 0
BITMAP
780000
787C00
79FE00
7BFF00
7BFF80
77CF80
F7C780
F787C0
F787C0
E787C0
E787C0
0787C0
0787C0
0787C0
078780
03C780
03C700
01CF00
0FEFC0
0FEFC0
0FEFC0
0FEFC0
ENDCHAR
STARTCHAR iotadieresistonos
ENCODING 912
SWIDTH 600 0
DWIDTH 19 0
BBX 15 26 2 0
BITMAP
03C0
0380
0380
73B8
73F8
7B78
7738
0700
0000
0000
FF80
FF80
FF80
FF80
0780
0780
0780
0780
0780
0780
0780
07C4
07FE
07FE
03FE
00FC
ENDCHAR
STARTCHAR Alpha
ENCODING 913
SWIDTH 600 0
DWIDTH 19 0
BBX 19 21 0 0
BITMAP
01F800
03F800
03F800
03FC00
07BC00
07BC00
07BC00
0F9E00
0F1E00
0F1E00
0F1F00
1E0F00
1FFF00
1FFF80
3FFF80
3FFF80
3C07C0
7C07C0
7C07C0
7803C0
F803E0
ENDCHAR
STARTCHAR Beta
ENCODING 914
SWIDTH 600 0
DWIDTH 19 0
BBX 16 21 2 0
BITMAP
FFF0
FFF8
FFFC
FFFE
F83E
F83E
F83E
F87C
FFFC
FFF0
FFFC
FFFE
F83F
F81F
F81F
F81F
F83F
FFFE
FFFE
FFFC
FFF0
ENDCHAR
STARTCHAR Gamma
ENCODING 915
SWIDTH 600 0
DWIDTH 19 0
BBX 14 21 3 0
BITMAP
FFFC
FFFC
FFFC
FFFC
F800
F800
F800
F800
F800
F800
F800
F800
F800
F800
F800
F800
F800
F800
F800
F800
F800
ENDCHAR
STARTCHAR uni0394
ENCODING 916
SWIDTH 600 0
DWIDTH 19 0
BBX 17 21 1 0
BITMAP
03F000
07F000
07F000
07F800
0F7800
0F7800
0F7800
1F7C00
1E3C00
1E3C00
3E3E00
3E1E00
3C1E00
7C1F00
7C1F00
780F00
F80F80
FFFF80
FFFF80
FFFF80
FFFF80
ENDCHAR
STARTCHAR Epsilon
ENCODING 917
SWIDTH 600 0
DWIDTH 19 0
BBX 14 21 3 0
BITMAP
FFFC
FFFC
FFFC
FFFC
F800
F800
F800
F800
FFF0
FFF0
FFF0
FFF0
F800
F800
F800
F800
F800
FFFC
FFFC
FFFC
FFFC
ENDCHAR
STARTCHAR Zeta
ENCODING 918
SWIDTH 600 0
DWIDTH 19 0
BBX 16 21 2 0
BITMAP
7FFE
7FFE
7FFE
7FFE
007C
007C
00F8
01F0
03F0
03E0
07C0
0F80
0F80
1F00
3E00
3E00
7C00
FFFF
FFFF
FFFF
FFFF
ENDCHAR
STARTCHAR Eta
ENCODING 919
SWIDTH 600 0
DWIDTH 19 0
BBX 15 21 2 0
BITMAP
F83E
F83E
F83E
F83E
F83E
F83E
F83E
F83E
FFFE
FFFE
FFFE
FFFE
F83E
F83E
F83E
F83E
F83E
F83E
F83E
F83E
F83E
ENDCHAR
STARTCHAR Theta
ENCODING 920
SWIDTH 600 0
DWIDTH 19 0
BBX 17 21 1 0
BITMAP
03F000
0FF800
1FFC00
3FFE00
7E3F00
7C1F00
7C0F80
F80F80
FBEF80
FBEF80
FBEF80
FBEF80
F80F80
F80F80
7C1F00
7C1F00
7E3F00
3FFE00
1FFC00
0FF800
03F000
ENDCHAR
STARTCHAR Iota
ENCODING 921
SWIDTH 600 0
DWIDTH 19 0
BBX 15 21 2 0
BITMAP
FFFE
FFFE
FFFE
FFFE
07C0
07C0
07C0
07C0
07C0
07C0
07C0
07C0
07C0
07C0
07C0
07C0
07C0
FFFE
FFFE
FFFE
FFFE
ENDCHAR
STARTCHAR Kappa
ENCODING 922
SWIDTH 600 0
DWIDTH 19 0
BBX 17 21 2 0
BITMAP
F81F00
F83E00
F87E00
F87C00
F8F800
F9F000
F9F000
FBE000
FFC000
FFE000
FFE000
FFF000
FEF000
FCF800
FC7800
F87C00
F83E00
F83E00
F81F00
F81F00
F80F80
ENDCHAR
STARTCHAR Lambda
ENCODING 923
SWIDTH 600 0
DWIDTH 19 0
BBX 19 21 0 0
BITMAP
01F800
03F800
03F800
03F800
07BC00
07BC00
07BC00
07BE00
0F1E00
0F1E00
0F1F00
1F1F00
1E0F00
1E0F00
3E0F80
3E0F80
3C0780
3C07C0
7C07C0
7C07C0
F803E0
ENDCHAR
STARTCHAR Mu
ENCODING 924
SWIDTH 600 0
DWIDTH 19 0
BBX 15 21 2 0
BITMAP
F83E
F83E
F83E
FC7E
FC7E
FC7E
EE6E
EEEE
EEEE
F6EE
F7CE
F7DE
F7DE
F39E
F39E
F01E
F01E
F01E
F01E
F01E
F01E
ENDCHAR
STARTCHAR Nu
ENCODING 925
SWIDTH 600 0
DWIDTH 19 0
BBX 15 21 2 0
BITMAP
F81E
FC1E
FC1E
FC1E
FE1E
FE1E
FF1E
F71E
F79E
F79E
F39E
FBDE
F9DE
F9FE
F8FE
F8FE
F8FE
F87E
F87E
F83E
F83E
ENDCHAR
STARTCHAR Xi
ENCODING 926
SWIDTH 600 0
DWIDTH 19 0
BBX 15 21 2 0
BITMAP
FFFE
FFFE
FFFE
FFFE
0000
0000
0000
0000
3FF8
3FF8
3FF8
3FF8
0000
0000
0000
0000
0000
FFFE
FFFE
FFFE
FFFE
ENDCHAR
STARTCHAR Omicron
ENCODING 927
SWIDTH 600 0
DWIDTH 19 0
BBX 17 21 1 0
BITMAP
03F000
0FF800
1FFE00
3FFE00
7E3F00
7C1F00
7C0F80
F80F80
F80F80
F80F80
F80F80
F80F80
F80F80
F80F80
7C0F80
7C1F00
7E3F00
3FFE00
1FFE00
0FF800
03F000
ENDCHAR
STARTCHAR Pi
ENCODING 928
SWIDTH 600 0
DWIDTH 19 0
BBX 15 21 2 0
BITMAP
FFFE
FFFE
FFFE
FFFE
F83E
F83E
F83E
F83E
F83E
F83E
F83E
F83E
F83E
F83E
F83E
F83E
F83E
F83E
F83E
F83E
F83E
ENDCHAR
STARTCHAR Rho
ENCODING 929
SWIDTH 600 0
DWIDTH 19 0
BBX 16 21 2 0
BITMAP
FFE0
FFFC
FFFE
FFFE
F83F
F81F
F81F
F81F
F81F
F83F
FFFE
FFFC
FFF8
FFE0
F800
F800
F800
F800
F800
F800
F800
ENDCHAR
STARTCHAR Sigma
ENCODING 931
SWIDTH 600 0
DWIDTH 19 0
BBX 15 21 2 0
BITMAP
FFFC
FFFC
FFFC
7FFC
7C00
3E00
1F00
0F80
07C0
03E0
03E0
03C0
0780
0F80
1F00
3E00
7C00
7FFE
FFFE
FFFE
FFFE
ENDCHAR
STARTCHAR Tau
ENCODING 932
SWIDTH 600 0
DWIDTH 19 0
BBX 17 21 1 0
BITMAP
FFFF80
FFFF80
FFFF80
FFFF80
03E000
03E000
03E000
03E000
03E000
03E000
03E000
03E000
03E000
03E000
03E000
03E000
03E000
03E000
03E000
03E000
03E000
ENDCHAR
STARTCHAR Upsilon
ENCODING 933
SWIDTH 600 0
DWIDTH 19 0
BBX 18 21 1 0
BITMAP
F807C0
F80F80
7C0F80
7C1F00
3C1F00
3E3E00
1E3E00
1F3C00
0F7C00
0F7800
07F800
07F000
03F000
03E000
03E000
03E000
03E000
03E000
03E000
03E000
03E000
ENDCHAR
STARTCHAR Phi
ENCODING 934
SWIDTH 600 0
DWIDTH 19 0
BBX 18 21 1 0
BITMAP
01C000
01C000
01C000
0FFC00
3FFE00
7FFF00
FFFF80
F9CF80
F1C7C0
F1C7C0
F1C3C0
F1C7C0
F1C780
F9CF80
FFFF80
7FFF00
3FFE00
0FFC00
01C000
01C000
01C000
ENDCHAR
STARTCHAR Chi
ENCODING 935
SWIDTH 600 0
DWIDTH 19 0
BBX 18 21 1 0
BITMAP
F80F80
7C1F00
7C1F00
3E1E00
3E3E00
1F3C00
0F7C00
0FF800
07F800
07F000
07F000
07F000
0FF800
0F7800
1F7C00
1E7C00
3E3E00
3C1F00
7C1F00
F80F80
F80FC0
ENDCHAR
STARTCHAR Psi
ENCODING 936
SWIDTH 600 0
DWIDTH 19 0
BBX 18 21 1 0
BITMAP
F1E7C0
F1E7C0
F1E7C0
F1E7C0
F1E7C0
F1E7C0
F1E7C0
F1E780
F1E780
F9EF80
FFFF80
7FFF00
3FFE00
0FF800
01E000
01E000
01E000
01E000
01E000
01E000
01E000
ENDCHAR
STARTCHAR uni03A9
ENCODING 937
SWIDTH 600 0
DWIDTH 19 0
BBX 17 21 1 0
BITMAP
03F000
0FF800
1FFE00
3FFE00
7E3F00
7C1F00
7C0F80
F80F80
F80F80
F80F80
F80F80
F80F80
780F80
780F00
7C1F00
3C1E00
1E3C00
FE3F80
FE3F80
FE3F80
FE3F80
ENDCHAR
STARTCHAR Iotadieresis
ENCODING 938
SWIDTH 600 0
DWIDTH 19 0
BBX 15 27 2 0
BITMAP
1C38
3C78
3C78
3C78
1C38
0000
FFFE
FFFE
FFFE
FFFE
07C0
07C0
07C0
07C0
07C0
07C0
07C0
07C0
07C0
07C0
07C0
07C0
07C0
FFFE
FFFE
FFFE
FFFE
ENDCHAR
STARTCHAR Upsilondieresis
ENCODING 939
SWIDTH 600 0
DWIDTH 19 0
BBX 18 27 1 0
BITMAP
0E1C00
1E3C00
1E3C00
1E3C00
0E1C00
000000
F807C0
F80F80
7C0F80
7C1F00
3C1F00
3E3E00
1E3E00
1F3C00
0F7C00
0F7800
07F800
07F000
03F000
03E000
03E000
03E000
03E000
03E000
03E000
03E000
03E000
ENDCHAR
STARTCHAR alphatonos
ENCODING 940
SWIDTH 600 0
DWIDTH 19 0
BBX 18 27 1 0
BITMAP
007000
007800
007800
00F800
00F000
00F000
00F000
00E000
00E000
000000
000000
078F80
1FEF00
3FEF00
7FFF00
7E7F00
7C3F00
F81E00
F81E00
F81E00
F83E00
7C3E00
7C7E00
7FFF80
3FFFC0
1FDFC0
0F87C0
ENDCHAR
STARTCHAR epsilontonos
ENCODING 941
SWIDTH 600 0
DWIDTH 19 0
BBX 15 27 2 0
BITMAP
00E0
00F8
00F0
00F0
01E0
01E0
01E0
01E0
01C0
0000
0000
0FF0
3FFC
7FFE
7FFC
7C0C
3FE0
1FE0
3FE0
7FE0
F800
F804
FC0C
7FFE
7FFE
3FFC
07F0
ENDCHAR
STARTCHAR etatonos
ENCODING 942
SWIDTH 600 0
DWIDTH 19 0
BBX 15 34 2 -7
BITMAP
00E0
01F0
01F0
01E0
01E0
01E0
01E0
01C0
01C0
0000
0000
F0F0
F3FC
FFFC
FFFE
FE3E
FC3E
F81E
F81E
F81E
F81E
F81E
F81E
F83E
F83E
F83E
F83E
003E
003E
003E
003E
003E
003E
003E
ENDCHAR
STARTCHAR iotatonos
ENCODING 943
SWIDTH 600 0
DWIDTH 19 0
BBX 15 27 2 0
BITMAP
03C0
03E0
03C0
03C0
03C0
0380
0780
0780
0780
0000
0000
FF80
FF80
FF80
FF80
0780
0780
0780
0780
0780
0780
0780
07C4
07FE
07FE
03FE
00FC
ENDCHAR
STARTCHAR upsilondieresistonos
ENCODING 944
SWIDTH 600 0
DWIDTH 19 0
BBX 15 26 2 0
BITMAP
01C0
01C0
01C0
33B8
7BBC
7BBC
3338
0300
0000
0000
F80C
F87C
F83E
F83E
F83E
F83E
F83E
F83E
F83E
F83E
F83E
7C7E
7FFC
7FF8
3FF0
0FC0
ENDCHAR
STARTCHAR alpha
ENCODING 945
SWIDTH 600 0
DWIDTH 19 0
BBX 18 16 1 0
BITMAP
078F80
1FEF00
3FEF00
7FFF00
7E7F00
7C3F00
F81E00
F81E00
F81E00
F83E00
7C3E00
7C7E00
7FFF80
3FFFC0
1FDFC0
0F87C0
ENDCHAR
STARTCHAR beta
ENCODING 946
SWIDTH 600 0
DWIDTH 19 0
BBX 16 30 2 -7
BITMAP
0FC0
1FF0
3FF8
7FFC
7C7C
783C
F83C
F87C
F8F8
F9F0
F9F8
F9FC
F9FE
F83E
F81F
F81F
F81F
F81F
FC3F
FFFE
FFFE
FFFC
F9F0
F800
F800
F800
F800
F800
F800
F800
ENDCHAR
STARTCHAR gamma
ENCODING 947
SWIDTH 600 0
DWIDTH 19 0
BBX 17 24 1 -7
BITMAP
380F80
F80F80
7C0F00
7C0F00
3E0F00
3E1F00
1E1E00
1F1E00
0F1C00
0F3C00
0FBC00
07F800
07F000
07F000
07E000
03E000
03C000
03E000
03E000
03E000
03E000
03E000
03E000
03E000
ENDCHAR
STARTCHAR delta
ENCODING 948
SWIDTH 600 0
DWIDTH 19 0
BBX 16 23 2 0
BITMAP
0FE0
3FFE
3FFE
7FFC
7C1C
7C00
3E00
1F80
0FC0
0FF0
1FF8
7EFC
7C3E
F83E
F01E
F01E
F01F
F83E
FC3E
7FFE
7FFC
1FF8
0FE0
ENDCHAR
STARTCHAR epsilon
ENCODING 949
SWIDTH 600 0
DWIDTH 19 0
BBX 15 16 2 0
BITMAP
0FF0
3FFC
7FFE
7FFC
7C0C
3FE0
1FE0
3FE0
7FE0
F800
F804
FC0C
7FFE
7FFE
3FFC
07F0
ENDCHAR
STARTCHAR zeta
ENCODING 950
SWIDTH 600 0
DWIDTH 19 0
BBX 14 30 3 -7
BITMAP
7FFC
7FFC
7FFC
7FFC
00F8
03E0
07C0
0F80
1F00
3E00
7C00
7C00
F800
F800
F800
F800
F800
F800
FE00
7FE0
7FF8
3FFC
0FFC
00FC
003C
003C
003C
0078
00F8
0010
ENDCHAR
STARTCHAR eta
ENCODING 951
SWIDTH 600 0
DWIDTH 19 0
BBX 15 23 2 -7
BITMAP
F0F0
F3FC
FFFC
FFFE
FE3E
FC3E
F81E
F81E
F81E
F81E
F81E
F81E
F83E
F83E
F83E
F83E
003E
003E
003E
003E
003E
003E
003E
ENDCHAR
STARTCHAR theta
ENCODING 952
SWIDTH 600 0
DWIDTH 19 0
BBX 15 23 2 0
BITMAP
07C0
1FF0
3FF8
7FFC
7C7C
783E
F83E
F81E
F01E
FFFE
FFFE
FFFE
FFFE
F01E
F01E
F81E
F83E
783E
7C7C
7FFC
3FF8
1FF0
07C0
ENDCHAR
STARTCHAR iota
ENCODING 953
SWIDTH 600 0
DWIDTH 19 0
BBX 15 16 2 0
BITMAP
FF80
FF80
FF80
FF80
0780
0780
0780
0780
0780
0780
0780
07C4
07FE
07FE
03FE
00FC
ENDCHAR
STARTCHAR kappa
ENCODING 954
SWIDTH 600 0
DWIDTH 19 0
BBX 17 16 2 0
BITMAP
F80600
781E00
787E00
78FE00
79FC00
7BF000
7BC000
7FE000
7FE000
7FF000
7CF800
7CF800
787C00
787E00
783E00
781F80
ENDCHAR
STARTCHAR lambda
ENCODING 955
SWIDTH 600 0
DWIDTH 19 0
BBX 17 23 1 0
BITMAP
7E0000
7F8000
7FC000
7FC000
43E000
01E000
01F000
01F000
03F000
03F800
07F800
07F800
07FC00
0FBC00
0F3C00
1F3E00
1F3E00
3E1E00
3E1F00
3E1F00
7C0F80
7C0F80
F80F80
ENDCHAR
STARTCHAR uni03BC
ENCODING 956
SWIDTH 600 0
DWIDTH 19 0
BBX 17 23 2 -7
BITMAP
F83E00
F83E00
F83E00
F83E00
F83E00
F83E00
F83E00
F83E00
F83C00
F83C00
F87C00
FCFE00
FFFF00
FFDF00
FFDF80
F70F80
F00000
F80000
F80000
F80000
F80000
F80000
F80000
ENDCHAR
STARTCHAR nu
ENCODING 957
SWIDTH 600 0
DWIDTH 19 0
BBX 17 17 1 0
BITMAP
380F80
F80F80
7C0F00
7C0F00
3E0F00
3E1F00
1F1E00
1F1E00
0F3E00
0FBC00
0FBC00
07F800
07F800
07F000
03F000
03E000
03E000
ENDCHAR
STARTCHAR xi
ENCODING 958
SWIDTH 600 0
DWIDTH 19 0
BBX 15 30 2 -7
BITMAP
FFFE
FFFE
FFFE
FFFE
1F00
3E00
3E00
3E00
1F00
1FF8
07F8
0FF8
1FF8
3E00
7C00
7C00
7C00
7C00
7F00
7FF0
3FFC
1FFE
07FE
007E
001E
001E
001E
003C
007C
0008
ENDCHAR
STARTCHAR omicron
ENCODING 959
SWIDTH 600 0
DWIDTH 19 0
BBX 16 16 2 0
BITMAP
07E0
1FF0
3FFC
7FFC
FC7E
F83E
F81E
F01F
F01F
F81E
F83E
FC7E
7FFC
3FFC
1FF0
07E0
ENDCHAR
STARTCHAR pi
ENCODING 960
SWIDTH 600 0
DWIDTH 19 0
BBX 19 16 0 0
BITMAP
FFFFE0
FFFFE0
FFFFE0
FFFFE0
1F0F00
1F0F00
1F0F00
1F0F00
1F0F00
1F0F00
1F0F00
1F0F00
1F0FC0
1F0FC0
1E07E0
1E03E0
ENDCHAR
STARTCHAR rho
ENCODING 961
SWIDTH 600 0
DWIDTH 19 0
BBX 16 23 2 -7
BITMAP
07E0
1FF8
3FFC
3FFE
7C3E
783E
F81F
F81F
F81F
F81F
F83E
FC7E
FFFE
FFFC
FFF8
FBE0
F800
F800
F800
F800
F800
F800
F800
ENDCHAR
STARTCHAR uni03C2
ENCODING 962
SWIDTH 600 0
DWIDTH 19 0
BBX 15 23 2 -7
BITMAP
03F8
0FFC
1FFE
3FFC
7E0C
7C00
F800
F800
F800
F800
7C00
7F00
3FE0
1FF8
0FFC
03FE
007E
003E
001E
003C
003C
007C
0018
ENDCHAR
STARTCHAR sigma
ENCODING 963
SWIDTH 600 0
DWIDTH 19 0
BBX 17 16 1 0
BITMAP
07FF80
1FFF80
3FFF80
3FFF80
7E7C00
7C3E00
781E00
F81E00
F81E00
781E00
7C1E00
7E3E00
3FFE00
3FFC00
1FF800
07E000
ENDCHAR
STARTCHAR tau
ENCODING 964
SWIDTH 600 0
DWIDTH 19 0
BBX 16 16 2 0
BITMAP
FFFF
FFFF
FFFF
FFFF
07C0
07C0
07C0
07C0
07C0
07C0
07C0
07C0
07FC
03FC
03FC
00FC
ENDCHAR
STARTCHAR upsilon
ENCODING 965
SWIDTH 600 0
DWIDTH 19 0
BBX 15 16 2 0
BITMAP
F80C
F87C
F83E
F83E
F83E
F83E
F83E
F83E
F83E
F83E
F83E
7C7E
7FFC
7FF8
3FF0
0FC0
ENDCHAR
STARTCHAR phi
ENCODING 966
SWIDTH 600 0
DWIDTH 19 0
BBX 17 27 1 -7
BITMAP
01E000
01E000
01E000
01E000
0FF800
1FFE00
3FFF00
7FFF00
F9EF80
F1E780
F1E780
F1E780
F1E780
F1E780
F1E780
F9EF80
7FFF00
3FFF00
1FFE00
0FF800
01E000
01E000
01E000
01E000
01E000
01E000
01E000
ENDCHAR
STARTCHAR chi
ENCODING 967
SWIDTH 600 0
DWIDTH 19 0
BBX 18 24 1 -7
BITMAP
380F80
FC1F00
7C1F00
3E3E00
3F3E00
1F7C00
1FFC00
0FF800
07F800
07F000
03F000
03E000
03F000
03F000
07F800
07F800
0FFC00
0F7C00
1F3E00
1E3F00
3E1F00
3C1F80
7C0F80
FC0F40
ENDCHAR
STARTCHAR psi
ENCODING 968
SWIDTH 600 0
DWIDTH 19 0
BBX 18 27 1 -7
BITMAP
01E000
01E000
01E000
01E000
F1E380
F1EF80
F1E780
F1E780
F1E780
F1E7C0
F1E7C0
F1E7C0
F1E7C0
F1E780
F1E780
F9EF80
7FFF80
7FFF00
3FFE00
0FF800
01E000
01E000
01E000
01E000
01E000
01E000
01E000
ENDCHAR
STARTCHAR omega
ENCODING 969
SWIDTH 600 0
DWIDTH 19 0
BBX 18 16 1 0
BITMAP
300200
7C1F00
7C0F00
780F80
F80F80
F1E780
F1C780
F1C780
F1C7C0
F1C780
F1C780
FBEF80
FFFF80
7FFF00
3F7F00
1E3C00
ENDCHAR
STARTCHAR iotadieresis
ENCODING 970
SWIDTH 600 0
DWIDTH 19 0
BBX 15 23 2 0
BITMAP
3870
7CF8
7CF8
7CF8
3870
0000
0000
FF80
FF80
FF80
FF80
0780
0780
0780
0780
0780
0780
0780
07C4
07FE
07FE
03FE
00FC
ENDCHAR
STARTCHAR upsilondieresis
ENCODING 971
SWIDTH 600 0
DWIDTH 19 0
BBX 15 23 2 0
BITMAP
3878
7C78
7CF8
7C7C
3878
0000
0000
F80C
F87C
F83E
F83E
F83E
F83E
F83E
F83E
F83E
F83E
F83E
7C7E
7FFC
7FF8
3FF0
0FC0
ENDCHAR
STARTCHAR omicrontonos
ENCODING 972
SWIDTH 600 0
DWIDTH 19 0
BBX 16 27 2 0
BITMAP
01C0
01F0
01E0
03E0
03C0
03C0
03C0
0380
0380
0000
0000
07E0
1FF0
3FFC
7FFC
FC7E
F83E
F81E
F01F
F01F
F81E
F83E
FC7E
7FFC
3FFC
1FF0
07E0
ENDCHAR
STARTCHAR upsilontonos
ENCODING 973
SWIDTH 600 0
DWIDTH 19 0
BBX 15 27 2 0
BITMAP
01C0
01E0
03E0
03E0
03C0
03C0
03C0
0380
0380
0000
0000
F80C
F87C
F83E
F83E
F83E
F83E
F83E
F83E
F83E
F83E
F83E
7C7E
7FFC
7FF8
3FF0
0FC0
ENDCHAR
STARTCHAR omegatonos
ENCODING 974
SWIDTH 600 0
DWIDTH 19 0
BBX 18 27 1 0
BITMAP
00E000
00F800
00F000
01F000
01E000
01E000
01E000
01C000
01C000
000000
000000
300200
7C1F00
7C0F00
780F80
F80F80
F1E780
F1C780
F1C780
F1C7C0
F1C780
F1C780
FBEF80
FFFF80
7FFF00
3F7F00
1E3C00
ENDCHAR
STARTCHAR uni03D0
ENCODING 976
SWIDTH 600 0
DWIDTH 19 0
BBX 16 23 2 0
BITMAP
0FC0
1FF0
3FF8
7FFC
7C7C
F83C
F83C
F83C
F87C
F8F8
FFF0
FFF8
FFFC
FC3E
F81F
F81F
F81F
781F
7C3F
7FFE
3FFE
1FFC
07F0
ENDCHAR
STARTCHAR uni03D1
ENCODING 977
SWIDTH 600 0
DWIDTH 19 0
BBX 15 23 2 0
BITMAP
0FC0
3FF0
7FF8
FFF8
F87C
F03C
F03E
F01E
FC1E
7FFE
3FFE
0FFE
001E
F81E
781E
781E
783E
783E
7C7C
7FFC
3FF8
1FF0
0FC0
ENDCHAR
STARTCHAR uni03D5
ENCODING 981
SWIDTH 600 0
DWIDTH 19 0
BBX 17 27 1 -7
BITMAP
01E000
01E000
01E000
01E000
0FF800
1FFE00
3FFF00
7FFF00
F9EF80
F1E780
F1E780
F1E780
F1E780
F1E780
F1E780
F9EF80
7FFF00
3FFF00
1FFE00
0FF800
01E000
01E000
01E000
01E000
01E000
01E000
01E000
ENDCHAR
STARTCHAR uni03D7
ENCODING 983
SWIDTH 600 0
DWIDTH 19 0
BBX 17 22 2 -6
BITMAP
F80600
781E00
787E00
78FE00
79FC00
7BF000
7BC000
7FE000
7FE000
7FF000
7CF800
7CF800
787C00
783E00
783F00
781F80
001F00
003F00
003E00
007C00
00FC00
01F800
ENDCHAR
STARTCHAR uni03D9
ENCODING 985
SWIDTH 600 0
DWIDTH 19 0
BBX 16 23 2 -7
BITMAP
07E0
1FF0
3FFC
7FFC
FC7E
F83E
F01F
F01F
F01F
F81F
F83E
FC7E
7FFE
7FFC
3FF8
0FE0
07C0
07C0
07C0
07C0
07C0
07C0
07C0
ENDCHAR
STARTCHAR uni03DB
ENCODING 987
SWIDTH 600 0
DWIDTH 19 0
BBX 15 23 2 -7
BITMAP
03FE
0FFE
3FFE
3FFE
7E00
7C00
F800
F800
F800
F800
7C00
7F00
3FE0
1FF8
0FFC
03FE
007E
003E
001E
003C
003C
007C
0018
ENDCHAR
STARTCHAR uni03DD
ENCODING 989
SWIDTH 600 0
DWIDTH 19 0
BBX 13 23 4 -7
BITMAP
FFF8
FFF8
FFF8
FFF8
F000
F000
F000
F000
FFF0
FFF0
FFF0
FFF0
F000
F000
F000
F000
F000
F000
F000
F000
F000
F000
F000
ENDCHAR
STARTCHAR uni03E1
ENCODING 993
SWIDTH 600 0
DWIDTH 19 0
BBX 17 28 1 -6
BITMAP
040000
0F0000
1F8000
3FC000
0FE000
07E000
03F000
01F800
00F800
01FC00
07FC00
1FFE00
7FFE00
FF1F00
7C1F00
301F00
407F00
01FF00
07FF80
1FFF80
0FCF80
0F0F80
040F80
000F80
000F80
000F80
000F00
000F00
ENDCHAR
STARTCHAR uni0400
ENCODING 1024
SWIDTH 600 0
DWIDTH 19 0
BBX 14 29 3 0
BITMAP
0400
0E00
1F00
1F80
07C0
03C0
0080
0000
FFFC
FFFC
FFFC
FFFC
F800
F800
F800
F800
FFF0
FFF0
FFF0
FFF0
F800
F800
F800
F800
F800
FFFC
FFFC
FFFC
FFFC
ENDCHAR
STARTCHAR uni0401
ENCODING 1025
SWIDTH 600 0
DWIDTH 19 0
BBX 14 27 3 0
BITMAP
3870
3C78
7C78
3C78
3870
0000
FFFC
FFFC
FFFC
FFFC
F800
F800
F800
F800
FFF0
FFF0
FFF0
FFF0
F800
F800
F800
F800
F800
FFFC
FFFC
FFFC
FFFC
ENDCHAR
STARTCHAR uni0402
ENCODING 1026
SWIDTH 600 0
DWIDTH 19 0
BBX 17 21 1 0
BITMAP
FFFC00
FFFC00
FFFC00
FFFC00
0F8000
0F8000
0F8000
0F8000
0FFC00
0FFE00
0FFF00
0FFF80
0F8F80
0F8780
0F8780
0F8780
0F8F80
0F9F80
0FBF80
0FBF00
0FBE00
ENDCHAR
STARTCHAR uni0403
ENCODING 1027
SWIDTH 600 0
DWIDTH 19 0
BBX 14 29 3 0
BITMAP
0080
01C0
03E0
07E0
1F80
0F00
0400
0000
FFFC
FFFC
FFFC
FFFC
F800
F800
F800
F800
F800
F800
F800
F800
F800
F800
F800
F800
F800
F800
F800
F800
F800
ENDCHAR
STARTCHAR uni0404
ENCODING 1028
SWIDTH 600 0
DWIDTH 19 0
BBX 16 21 2 0
BITMAP
03F8
0FFC
1FFF
3FFE
7E0C
7C04
F800
F800
FFF0
FFF0
FFF0
FFF0
F800
F800
F800
7C04
7E0E
3FFF
1FFF
0FFC
03F8
ENDCHAR
STARTCHAR uni0405
ENCODING 1029
SWIDTH 600 0
DWIDTH 19 0
BBX 16 21 2 0
BITMAP
07E0
1FF8
3FFE
7FFC
7C1C
F808
F800
7E00
7F80
3FF0
1FFC
07FE
01FE
007F
001F
201F
783E
FFFE
FFFC
3FF8
0FE0
ENDCHAR
STARTCHAR uni0406
ENCODING 1030
SWIDTH 600 0
DWIDTH 19 0
BBX 15 21 2 0
BITMAP
FFFE
FFFE
FFFE
FFFE
07C0
07C0
07C0
07C0
07C0
07C0
07C0
07C0
07C0
07C0
07C0
07C0
07C0
FFFE
FFFE
FFFE
FFFE
ENDCHAR
STARTCHAR uni0407
ENCODING 1031
SWIDTH 600 0
DWIDTH 19 0
BBX 15 27 2 0
BITMAP
1C38
3C78
3C78
3C78
1C38
0000
FFFE
FFFE
FFFE
FFFE
07C0
07C0
07C0
07C0
07C0
07C0
07C0
07C0
07C0
07C0
07C0
07C0
07C0
FFFE
FFFE
FFFE
FFFE
ENDCHAR
STARTCHAR uni0408
ENCODING 1032
SWIDTH 600 0
DWIDTH 19 0
BBX 15 21 2 0
BITMAP
3FFE
3FFE
3FFE
3FFE
003E
003E
003E
003E
003E
003E
003E
003E
003E
003E
003C
207C
787C
FFFC
7FF8
3FF0
0FC0
ENDCHAR
STARTCHAR uni0409
ENCODING 1033
SWIDTH 600 0
DWIDTH 19 0
BBX 19 21 0 0
BITMAP
1FF000
1FF000
1FF000
1FF000
1EF000
1EF000
1EF000
1CFE00
1CFF80
1CFFC0
3CFFC0
3CF3C0
3CF1E0
3CF1E0
3CF1E0
3CF1C0
7CF3C0
F8FFC0
F8FF80
F0FF80
E0FE00
ENDCHAR
STARTCHAR uni040A
ENCODING 1034
SWIDTH 600 0
DWIDTH 19 0
BBX 18 21 1 0
BITMAP
F1E000
F1E000
F1E000
F1E000
F1E000
F1E000
F1E000
FFFC00
FFFF00
FFFF80
FFFF80
FFE780
F1E7C0
F1E3C0
F1E3C0
F1E780
F1E780
F1FF80
F1FF00
F1FF00
F1FC00
ENDCHAR
STARTCHAR uni040B
ENCODING 1035
SWIDTH 600 0
DWIDTH 19 0
BBX 17 21 1 0
BITMAP
FFFC00
FFFC00
FFFC00
FFFC00
0F8000
0F8000
0F8000
0F8000
0FFC00
0FFF00
0FFF00
0FFF80
0F8F80
0F8F80
0F8780
0F8780
0F8780
0F8780
0F8780
0F8780
0F8780
ENDCHAR
STARTCHAR uni040C
ENCODING 1036
SWIDTH 600 0
DWIDTH 19 0
BBX 17 29 2 0
BITMAP
002000
007000
00F800
03F800
07E000
03C000
010000
000000
F80F00
F81F00
F83F00
F87F00
F87800
F8F800
F8F000
F9F000
FFE000
FFE000
FFE000
FFF000
F9F000
F8F800
F8F800
F87C00
F87C00
F83E00
F81F00
F81F00
F80F80
ENDCHAR
STARTCHAR uni040D
ENCODING 1037
SWIDTH 600 0
DWIDTH 19 0
BBX 15 29 2 0
BITMAP
0400
0E00
1F80
0FC0
07E0
01C0
0080
0000
F03E
F03E
F07E
F07E
F0FE
F0FE
F1FE
F1FE
F3DE
F3DE
F3DE
F79E
F79E
FF1E
FF1E
FE1E
FE1E
FC1E
FC1E
FC1E
F81E
ENDCHAR
STARTCHAR uni040E
ENCODING 1038
SWIDTH 600 0
DWIDTH 19 0
BBX 18 26 1 0
BITMAP
1E3E00
1F3C00
0FFC00
03F000
000000
F807C0
F80F80
7C0F80
7C0F00
3E1F00
3E1E00
1E3E00
1F3E00
0F3C00
0F7C00
07F800
07F800
03F800
03F000
03F000
01E000
03E000
1FC000
1FC000
3F8000
3E0000
ENDCHAR
STARTCHAR uni040F
ENCODING 1039
SWIDTH 600 0
DWIDTH 19 0
BBX 15 28 2 -7
BITMAP
F83E
F83E
F83E
F83E
F83E
F83E
F83E
F83E
F83E
F83E
F83E
F83E
F83E
F83E
F83E
F83E
F83E
FFFE
FFFE
FFFE
FFFE
03C0
03C0
03C0
03C0
03C0
03C0
03C0
ENDCHAR
STARTCHAR uni0410
ENCODING 1040
SWIDTH 600 0
DWIDTH 19 0
BBX 19 21 0 0
BITMAP
01F800
03F800
03F800
03FC00
07BC00
07BC00
07BC00
0F9E00
0F1E00
0F1E00
0F1F00
1E0F00
1FFF00
1FFF80
3FFF80
3FFF80
3C07C0
7C07C0
7C07C0
7803C0
F803E0
ENDCHAR
STARTCHAR uni0411
ENCODING 1041
SWIDTH 600 0
DWIDTH 19 0
BBX 16 21 2 0
BITMAP
FFFE
FFFE
FFFE
FFFE
F800
F800
F800
F800
FFF0
FFFC
FFFE
FFFE
F83F
F81F
F81F
F81F
F83F
FFFE
FFFE
FFFC
FFF0
ENDCHAR
STARTCHAR uni0412
ENCODING 1042
SWIDTH 600 0
DWIDTH 19 0
BBX 16 21 2 0
BITMAP
FFF0
FFF8
FFFC
FFFE
F83E
F83E
F83E
F87C
FFFC
FFF0
FFFC
FFFE
F83F
F81F
F81F
F81F
F83F
FFFE
FFFE
FFFC
FFF0
ENDCHAR
STARTCHAR uni0413
ENCODING 1043
SWIDTH 600 0
DWIDTH 19 0
BBX 14 21 3 0
BITMAP
FFFC
FFFC
FFFC
FFFC
F800
F800
F800
F800
F800
F800
F800
F800
F800
F800
F800
F800
F800
F800
F800
F800
F800
ENDCHAR
STARTCHAR uni0414
ENCODING 1044
SWIDTH 600 0
DWIDTH 19 0
BBX 19 28 0 -7
BITMAP
07FF00
07FF00
07FF00
07FF00
078F00
0F8F00
0F8F00
0F0F00
0F0F00
0F0F00
0F0F00
1F0F00
1F0F00
1E0F00
1E0F00
3E0F00
3C0F00
FFFFE0
FFFFE0
FFFFE0
FFFFE0
F803E0
F803E0
7803E0
7803E0
7803E0
7803E0
7803C0
ENDCHAR
STARTCHAR uni0415
ENCODING 1045
SWIDTH 600 0
DWIDTH 19 0
BBX 14 21 3 0
BITMAP
FFFC
FFFC
FFFC
FFFC
F800
F800
F800
F800
FFF0
FFF0
FFF0
FFF0
F800
F800
F800
F800
F800
FFFC
FFFC
FFFC
FFFC
ENDCHAR
STARTCHAR uni0416
ENCODING 1046
SWIDTH 600 0
DWIDTH 19 0
BBX 19 21 0 0
BITMAP
F0F1E0
F8F3E0
F8F3E0
7CF7E0
3CF780
1CF700
1EF700
1EFF00
1FFF00
0FFF00
1FFF00
1FFF00
1CF700
3CF780
3CF780
3CF380
78F3C0
78F3C0
78F3C0
F8F3E0
F8F1E0
ENDCHAR
STARTCHAR uni0417
ENCODING 1047
SWIDTH 600 0
DWIDTH 19 0
BBX 17 21 1 0
BITMAP
07F000
1FFC00
7FFE00
3FFE00
1C3F00
101F00
001F00
003E00
07FE00
07F800
07FE00
07FF00
001F00
000F80
000F80
300F80
3C1F80
7FFF00
FFFE00
3FFC00
07F000
ENDCHAR
STARTCHAR uni0418
ENCODING 1048
SWIDTH 600 0
DWIDTH 19 0
BBX 15 21 2 0
BITMAP
F03E
F03E
F07E
F07E
F0FE
F0FE
F1FE
F1FE
F3DE
F3DE
F3DE
F79E
F79E
FF1E
FF1E
FE1E
FE1E
FC1E
FC1E
FC1E
F81E
ENDCHAR
STARTCHAR uni0419
ENCODING 1049
SWIDTH 600 0
DWIDTH 19 0
BBX 15 26 2 0
BITMAP
3C78
3E78
1FF0
0FE0
0000
F03E
F03E
F07E
F07E
F0FE
F0FE
F1FE
F1FE
F3DE
F3DE
F3DE
F79E
F79E
FF1E
FF1E
FE1E
FE1E
FC1E
FC1E
FC1E
F81E
ENDCHAR
STARTCHAR uni041A
ENCODING 1050
SWIDTH 600 0
DWIDTH 19 0
BBX 17 21 2 0
BITMAP
F80F00
F81F00
F83F00
F87F00
F87800
F8F800
F8F000
F9F000
FFE000
FFE000
FFE000
FFF000
F9F000
F8F800
F8F800
F87C00
F87C00
F83E00
F81F00
F81F00
F80F80
ENDCHAR
STARTCHAR uni041B
ENCODING 1051
SWIDTH 600 0
DWIDTH 19 0
BBX 17 21 0 0
BITMAP
03FF80
03FF80
03FF80
07FF80
07CF80
078F80
078F80
078F80
078F80
0F8F80
0F8F80
0F0F80
0F0F80
0F0F80
1F0F80
1F0F80
3E0F80
7E0F80
FC0F80
FC0F80
F80F80
ENDCHAR
STARTCHAR uni041C
ENCODING 1052
SWIDTH 600 0
DWIDTH 19 0
BBX 15 21 2 0
BITMAP
F83E
F83E
F83E
FC7E
FC7E
FC7E
EE6E
EEEE
EEEE
F6EE
F7CE
F7DE
F7DE
F39E
F39E
F01E
F01E
F01E
F01E
F01E
F01E
ENDCHAR
STARTCHAR uni041D
ENCODING 1053
SWIDTH 600 0
DWIDTH 19 0
BBX 15 21 2 0
BITMAP
F83E
F83E
F83E
F83E
F83E
F83E
F83E
F83E
FFFE
FFFE
FFFE
FFFE
F83E
F83E
F83E
F83E
F83E
F83E
F83E
F83E
F83E
ENDCHAR
STARTCHAR uni041E
ENCODING 1054
SWIDTH 600 0
DWIDTH 19 0
BBX 17 21 1 0
BITMAP
03F000
0FF800
1FFE00
3FFE00
7E3F00
7C1F00
7C0F80
F80F80
F80F80
F80F80
F80F80
F80F80
F80F80
F80F80
7C0F80
7C1F00
7E3F00
3FFE00
1FFE00
0FF800
03F000
ENDCHAR
STARTCHAR uni041F
ENCODING 1055
SWIDTH 600 0
DWIDTH 19 0
BBX 15 21 2 0
BITMAP
FFFE
FFFE
FFFE
FFFE
F83E
F83E
F83E
F83E
F83E
F83E
F83E
F83E
F83E
F83E
F83E
F83E
F83E
F83E
F83E
F83E
F83E
ENDCHAR
STARTCHAR uni0420
ENCODING 1056
SWIDTH 600 0
DWIDTH 19 0
BBX 16 21 2 0
BITMAP
FFE0
FFFC
FFFE
FFFE
F83F
F81F
F81F
F81F
F81F
F83F
FFFE
FFFC
FFF8
FFE0
F800
F800
F800
F800
F800
F800
F800
ENDCHAR
STARTCHAR uni0421
ENCODING 1057
SWIDTH 600 0
DWIDTH 19 0
BBX 16 21 2 0
BITMAP
03F8
0FFC
1FFF
3FFE
7F0C
7C08
FC00
F800
F800
F800
F800
F800
F800
F800
F800
7C04
7F0E
3FFF
1FFF
0FFE
03F8
ENDCHAR
STARTCHAR uni0422
ENCODING 1058
SWIDTH 600 0
DWIDTH 19 0
BBX 17 21 1 0
BITMAP
FFFF80
FFFF80
FFFF80
FFFF80
03E000
03E000
03E000
03E000
03E000
03E000
03E000
03E000
03E000
03E000
03E000
03E000
03E000
03E000
03E000
03E000
03E000
ENDCHAR
STARTCHAR uni0423
ENCODING 1059
SWIDTH 600 0
DWIDTH 19 0
BBX 18 21 1 0
BITMAP
F807C0
F80F80
7C0F80
7C0F00
3E1F00
3E1E00
1E3E00
1F3E00
0F3C00
0F7C00
07F800
07F800
03F800
03F000
03F000
01E000
03E000
1FC000
1FC000
3F8000
3E0000
ENDCHAR
STARTCHAR uni0424
ENCODING 1060
SWIDTH 600 0
DWIDTH 19 0
BBX 18 21 1 0
BITMAP
01C000
01C000
01C000
0FF800
3FFE00
7FFF00
FFFF80
F9CF80
F1C7C0
F1C7C0
F1C3C0
F1C7C0
F1C780
F9CF80
FFFF80
7FFF00
3FFE00
0FF800
01C000
01C000
01C000
ENDCHAR
STARTCHAR uni0425
ENCODING 1061
SWIDTH 600 0
DWIDTH 19 0
BBX 18 21 1 0
BITMAP
F80F80
7C1F00
7C1F00
3E1E00
3E3E00
1F3C00
0F7C00
0FF800
07F800
07F000
07F000
07F000
0FF800
0F7800
1F7C00
1E7C00
3E3E00
3C1F00
7C1F00
F80F80
F80FC0
ENDCHAR
STARTCHAR uni0426
ENCODING 1062
SWIDTH 600 0
DWIDTH 19 0
BBX 17 28 2 -7
BITMAP
F83E00
F83E00
F83E00
F83E00
F83E00
F83E00
F83E00
F83E00
F83E00
F83E00
F83E00
F83E00
F83E00
F83E00
F83E00
F83E00
F83E00
FFFF80
FFFF80
FFFF80
FFFF80
000780
000780
000780
000780
000780
000780
000780
ENDCHAR
STARTCHAR uni0427
ENCODING 1063
SWIDTH 600 0
DWIDTH 19 0
BBX 16 21 1 0
BITMAP
F80F
F80F
F80F
F80F
F80F
F80F
F80F
7C0F
7C0F
7FFF
3FFF
1FFF
07FF
000F
000F
000F
000F
000F
000F
000F
000F
ENDCHAR
STARTCHAR uni0428
ENCODING 1064
SWIDTH 600 0
DWIDTH 19 0
BBX 17 21 1 0
BITMAP
F1E780
F1E780
F1E780
F1E780
F1E780
F1E780
F1E780
F1E780
F1E780
F1E780
F1E780
F1E780
F1E780
F1E780
F1E780
F1E780
F1E780
FFFF80
FFFF80
FFFF80
FFFF80
ENDCHAR
STARTCHAR uni0429
ENCODING 1065
SWIDTH 600 0
DWIDTH 19 0
BBX 18 28 1 -7
BITMAP
F3CF80
F3CF80
F3CF80
F3CF80
F3CF80
F3CF80
F3CF80
F3CF80
F3CF80
F3CF80
F3CF80
F3CF80
F3CF80
F3CF80
F3CF80
F3CF80
F3CF80
FFFFC0
FFFFC0
FFFFC0
FFFFC0
0003C0
0003C0
0003C0
0003C0
0003C0
0003C0
0003C0
ENDCHAR
STARTCHAR uni042A
ENCODING 1066
SWIDTH 600 0
DWIDTH 19 0
BBX 17 21 1 0
BITMAP
FF8000
FF8000
FF8000
FF8000
0F8000
0F8000
0F8000
0FF800
0FFE00
0FFF00
0FFF00
0F8F80
0F8F80
0F8780
0F8780
0F8F80
0F8F80
0FFF80
0FFF00
0FFE00
0FF800
ENDCHAR
STARTCHAR uni042B
ENCODING 1067
SWIDTH 600 0
DWIDTH 19 0
BBX 17 21 1 0
BITMAP
F00780
F00780
F00780
F00780
F00780
F00780
F00780
FF0780
FF8780
FFC780
FFE780
F3E780
F1E780
F1E780
F1E780
F1E780
F3E780
FFE780
FFC780
FF8780
FF0780
ENDCHAR
STARTCHAR uni042C
ENCODING 1068
SWIDTH 600 0
DWIDTH 19 0
BBX 16 21 2 0
BITMAP
F800
F800
F800
F800
F800
F800
F800
FFF0
FFFC
FFFE
FFFE
F83F
F81F
F81F
F81F
F81F
F83F
FFFE
FFFE
FFF8
FFE0
ENDCHAR
STARTCHAR uni042D
ENCODING 1069
SWIDTH 600 0
DWIDTH 19 0
BBX 16 21 1 0
BITMAP
0FC0
3FF0
FFFC
7FFC
387E
201F
001F
001F
0FFF
0FFF
0FFF
0FFF
000F
001F
001F
203F
787E
FFFC
7FFC
3FF0
0FC0
ENDCHAR
STARTCHAR uni042E
ENCODING 1070
SWIDTH 600 0
DWIDTH 19 0
BBX 18 21 1 0
BITMAP
F07C00
F0FE00
F1FF00
F1FF00
F3CF80
F3C780
F3C780
F3C780
FFC780
FFC7C0
FFC7C0
FFC7C0
F3C780
F3C780
F3C780
F3C780
F3EF80
F1FF00
F1FF00
F0FE00
F07C00
ENDCHAR
STARTCHAR uni042F
ENCODING 1071
SWIDTH 600 0
DWIDTH 19 0
BBX 17 21 0 0
BITMAP
03FF80
0FFF80
1FFF80
3FFF80
3E0F80
7C0F80
7C0F80
3C0F80
3E0F80
3FFF80
1FFF80
0FFF80
07FF80
07CF80
0F8F80
1F8F80
1F0F80
3E0F80
3E0F80
7C0F80
FC0F80
ENDCHAR
STARTCHAR uni0430
ENCODING 1072
SWIDTH 600 0
DWIDTH 19 0
BBX 15 16 2 0
BITMAP
07E0
3FF8
7FFC
7FFC
307E
003E
03FE
1FFE
7FFE
FC3E
F83E
F87E
FFFE
FFFE
7FDE
1F1E
ENDCHAR
STARTCHAR uni0431
ENCODING 1073
SWIDTH 600 0
DWIDTH 19 0
BBX 15 23 2 0
BITMAP
000C
01FC
0FFC
1FFE
3FFC
7F80
7C00
7800
F9F0
FFF8
FFFC
FFFE
FC7E
F83E
F03E
F03E
F83E
783E
7C7E
7FFC
3FFC
1FF8
07E0
ENDCHAR
STARTCHAR uni0432
ENCODING 1074
SWIDTH 600 0
DWIDTH 19 0
BBX 15 16 3 0
BITMAP
FFE0
FFF8
FFFC
FFFC
F07C
FFF8
FFF0
FFF8
FFFC
F07C
F03C
F07E
FFFC
FFFC
FFF8
FFE0
ENDCHAR
STARTCHAR uni0433
ENCODING 1075
SWIDTH 600 0
DWIDTH 19 0
BBX 13 16 4 0
BITMAP
FFF8
FFF8
FFF8
FFF8
F000
F000
F000
F000
F000
F000
F000
F000
F000
F000
F000
F000
ENDCHAR
STARTCHAR uni0434
ENCODING 1076
SWIDTH 600 0
DWIDTH 19 0
BBX 18 23 1 -7
BITMAP
1FFE00
1FFE00
1FFE00
1FFE00
1E3E00
3E3E00
3E3E00
3C3E00
3C3E00
3C3E00
3C3E00
783E00
FFFFC0
FFFFC0
FFFFC0
FFFFC0
F007C0
F007C0
F00780
F00780
F00780
F00780
F00780
ENDCHAR
STARTCHAR uni0435
ENCODING 1077
SWIDTH 600 0
DWIDTH 19 0
BBX 16 16 2 0
BITMAP
07E0
1FF8
3FFC
7FFE
781E
FFFE
FFFE
FFFF
FFFE
F800
F800
FC0C
7FFC
3FFE
1FFC
07F0
ENDCHAR
STARTCHAR uni0436
ENCODING 1078
SWIDTH 600 0
DWIDTH 19 0
BBX 19 16 0 0
BITMAP
F0E0E0
F8E3E0
7CE3E0
7CE7C0
1CE780
1EE700
1FFF00
0FFF00
1FFF00
1FFF00
3CE780
3CE780
3CE3C0
78E3C0
78E3E0
F8E1E0
ENDCHAR
STARTCHAR uni0437
ENCODING 1079
SWIDTH 600 0
DWIDTH 19 0
BBX 15 16 2 0
BITMAP
1FE0
7FF8
FFFC
FFFE
703E
4FFC
0FF0
0FFC
0FFE
003E
401E
703E
FFFE
FFFC
7FF8
1FE0
ENDCHAR
STARTCHAR uni0438
ENCODING 1080
SWIDTH 600 0
DWIDTH 19 0
BBX 15 16 2 0
BITMAP
F83E
F83E
F87E
F8FE
F8FE
F9FE
F9DE
FBDE
FFBE
FFBE
FF3E
FE3E
FE3E
FC3E
FC3E
F83E
ENDCHAR
STARTCHAR uni0439
ENCODING 1081
SWIDTH 600 0
DWIDTH 19 0
BBX 15 24 2 0
BITMAP
1C3C
1E3C
1E78
1FF8
0FF0
03E0
0000
0000
F83E
F83E
F87E
F8FE
F8FE
F9FE
F9DE
FBDE
FFBE
FFBE
FF3E
FE3E
FE3E
FC3E
FC3E
F83E
ENDCHAR
STARTCHAR uni043A
ENCODING 1082
SWIDTH 600 0
DWIDTH 19 0
BBX 17 16 2 0
BITMAP
F80F00
F83E00
F83E00
F87E00
F8F800
F8F000
FFF000
FFE000
FFF000
FFF000
F8F800
F87C00
F87C00
F83E00
F81F00
F81F80
ENDCHAR
STARTCHAR uni043B
ENCODING 1083
SWIDTH 600 0
DWIDTH 19 0
BBX 17 16 0 0
BITMAP
07FF80
07FF80
07FF80
0FFF80
0F0F80
0F0F80
0F0F80
0F0F80
0F0F80
0F0F80
0F0F80
1F0F80
7E0F80
7E0F80
7C0F80
F80F80
ENDCHAR
STARTCHAR uni043C
ENCODING 1084
SWIDTH 600 0
DWIDTH 19 0
BBX 17 16 1 0
BITMAP
FC1F80
FC1F80
FC1F80
FE3F80
FE3F80
FE3F80
FF3F80
F77780
F77780
F3F780
F3E780
F3E780
F1E780
F1C780
F1C780
F00780
ENDCHAR
STARTCHAR uni043D
ENCODING 1085
SWIDTH 600 0
DWIDTH 19 0
BBX 15 16 2 0
BITMAP
F83E
F83E
F83E
F83E
F83E
F83E
FFFE
FFFE
FFFE
FFFE
F83E
F83E
F83E
F83E
F83E
F83E
ENDCHAR
STARTCHAR uni043E
ENCODING 1086
SWIDTH 600 0
DWIDTH 19 0
BBX 17 16 1 0
BITMAP
03F000
0FF800
1FFE00
3FFE00
7E3F00
7C1F00
7C0F80
F80F80
780F80
7C0F80
7C1F00
7E3F00
3FFE00
1FFE00
0FF800
03F000
ENDCHAR
STARTCHAR uni043F
ENCODING 1087
SWIDTH 600 0
DWIDTH 19 0
BBX 15 16 2 0
BITMAP
FFFE
FFFE
FFFE
FFFE
F83E
F83E
F83E
F83E
F83E
F83E
F83E
F83E
F83E
F83E
F83E
F83E
ENDCHAR
STARTCHAR uni0440
ENCODING 1088
SWIDTH 600 0
DWIDTH 19 0
BBX 16 23 2 -7
BITMAP
F1F0
F7F8
FFFC
FFFE
FC3E
F83E
F81F
F81F
F81F
F81F
F83E
FC7E
FFFE
FFFC
FFF8
F9E0
F800
F800
F800
F800
F800
F800
F800
ENDCHAR
STARTCHAR uni0441
ENCODING 1089
SWIDTH 600 0
DWIDTH 19 0
BBX 16 16 2 0
BITMAP
03F0
0FFC
3FFE
3FFC
7E0C
7C00
F800
F800
F800
F800
FC04
7E0C
7FFE
3FFE
1FFD
03F0
ENDCHAR
STARTCHAR uni0442
ENCODING 1090
SWIDTH 600 0
DWIDTH 19 0
BBX 16 16 2 0
BITMAP
FFFF
FFFF
FFFF
FFFF
07C0
07C0
07C0
07C0
07C0
07C0
07C0
07C0
07C0
07C0
07C0
07C0
ENDCHAR
STARTCHAR uni0443
ENCODING 1091
SWIDTH 600 0
DWIDTH 19 0
BBX 17 23 1 -7
BITMAP
F80780
780F80
7C0F00
7C0F00
3C1F00
3E1E00
1E1E00
1E3C00
0F3C00
0F3C00
0F7800
07F800
07F800
03F000
03F000
01E000
01E000
03E000
07C000
3FC000
3F8000
7F0000
7E0000
ENDCHAR
STARTCHAR uni0444
ENCODING 1092
SWIDTH 600 0
DWIDTH 19 0
BBX 18 30 1 -7
BITMAP
01E000
01E000
01E000
01E000
01E000
01E000
01E000
1FDE00
3FFF00
7FFF80
FFFF80
F9E780
F1C780
F1C780
F1C780
F1C7C0
F1C780
F1C780
F9C780
FFFF80
7FFF00
7FFF00
3FFC00
01C000
01E000
01E000
01E000
01E000
01E000
01E000
ENDCHAR
STARTCHAR uni0445
ENCODING 1093
SWIDTH 600 0
DWIDTH 19 0
BBX 17 16 1 0
BITMAP
7C1F80
3E1F00
3E3E00
1F3C00
0F7C00
0FF800
07F800
03F000
07F000
0FF000
0FF800
1F7C00
3E3E00
3E3E00
7C1F00
F80F80
ENDCHAR
STARTCHAR uni0446
ENCODING 1094
SWIDTH 600 0
DWIDTH 19 0
BBX 17 23 2 -7
BITMAP
F87C00
F87C00
F87C00
F87C00
F87C00
F87C00
F87C00
F87C00
F87C00
F87C00
F87C00
F87C00
FFFF80
FFFF80
FFFF80
FFFF80
000F80
000F80
000F80
000F80
000F00
000F00
000F00
ENDCHAR
STARTCHAR uni0447
ENCODING 1095
SWIDTH 600 0
DWIDTH 19 0
BBX 15 16 2 0
BITMAP
F83E
F83E
F83E
F83E
F83E
F83E
FC3E
7FFE
7FFE
3FFE
0FFE
003E
003E
003E
003E
003E
ENDCHAR
STARTCHAR uni0448
ENCODING 1096
SWIDTH 600 0
DWIDTH 19 0
BBX 17 16 1 0
BITMAP
F1E780
F1E780
F1E780
F1E780
F1E780
F1E780
F1E780
F1E780
F1E780
F1E780
F1E780
F1E780
FFFF80
FFFF80
FFFF80
FFFF80
ENDCHAR
STARTCHAR uni0449
ENCODING 1097
SWIDTH 600 0
DWIDTH 19 0
BBX 18 23 1 -7
BITMAP
F3CF80
F3CF80
F3CF80
F3CF80
F3CF80
F3CF80
F3CF80
F3CF80
F3CF80
F3CF80
F3CF80
F3CF80
FFFFC0
FFFFC0
FFFFC0
FFFFC0
0003C0
0003C0
0003C0
0003C0
0003C0
0003C0
0003C0
ENDCHAR
STARTCHAR uni044A
ENCODING 1098
SWIDTH 600 0
DWIDTH 19 0
BBX 17 16 1 0
BITMAP
FF8000
FF8000
FF8000
FF8000
0F8000
0FFC00
0FFE00
0FFF00
0FFF80
0F8F80
0F8F80
0F8F80
0FFF80
0FFF00
0FFE00
0FFC00
ENDCHAR
STARTCHAR uni044B
ENCODING 1099
SWIDTH 600 0
DWIDTH 19 0
BBX 17 16 1 0
BITMAP
F00780
F00780
F00780
F00780
F00780
FF0780
FFC780
FFE780
FFE780
F1E780
F1E780
F1E780
FFE780
FFE780
FFC780
FF8780
ENDCHAR
STARTCHAR uni044C
ENCODING 1100
SWIDTH 600 0
DWIDTH 19 0
BBX 15 16 3 0
BITMAP
F000
F000
F000
F000
F000
FFE0
FFF8
FFFC
FFFC
F03E
F03E
F03E
FFFC
FFFC
FFF8
FFE0
ENDCHAR
STARTCHAR uni044D
ENCODING 1101
SWIDTH 600 0
DWIDTH 19 0
BBX 15 16 2 0
BITMAP
1FC0
7FF0
FFF8
7FFC
603C
0FFE
0FFE
0FFE
0FFE
003E
003E
60FC
FFFC
FFF8
7FF0
1FC0
ENDCHAR
STARTCHAR uni044E
ENCODING 1102
SWIDTH 600 0
DWIDTH 19 0
BBX 18 16 1 0
BITMAP
F07C00
F0FF00
F1FF00
F1FF80
F3CF80
F3C780
FFC780
FFC7C0
FFC7C0
FFC780
F3C780
F3CF80
F1FF80
F1FF00
F0FF00
F07C00
ENDCHAR
STARTCHAR uni044F
ENCODING 1103
SWIDTH 600 0
DWIDTH 19 0
BBX 16 16 1 0
BITMAP
0FFF
1FFF
3FFF
7FFF
7C1F
7C1F
7C1F
3FFF
3FFF
1FFF
0FFF
1F9F
1F1F
3E1F
7C1F
FC1F
ENDCHAR
STARTCHAR uni0450
ENCODING 1104
SWIDTH 600 0
DWIDTH 19 0
BBX 16 26 2 0
BITMAP
0400
0E00
1F00
3F80
0F80
07C0
03C0
0080
0000
0000
07E0
1FF8
3FFC
7FFE
781E
FFFE
FFFE
FFFF
FFFE
F800
F800
FC0C
7FFC
3FFE
1FFC
07F0
ENDCHAR
STARTCHAR uni0451
ENCODING 1105
SWIDTH 600 0
DWIDTH 19 0
BBX 16 23 2 0
BITMAP
1C38
3E7C
3E7C
3E7C
1C38
0000
0000
07E0
1FF8
3FFC
7FFE
781E
FFFE
FFFE
FFFF
FFFE
F800
F800
FC0C
7FFC
3FFE
1FFC
07F0
ENDCHAR
STARTCHAR uni0452
ENCODING 1106
SWIDTH 600 0
DWIDTH 19 0
BBX 18 30 0 -7
BITMAP
3E0000
3E0000
FFF800
FFF800
3E0000
3E0000
3E7C00
3EFE00
3FFF00
3FFF00
3F1F80
3E0F80
3E0F80
3E0780
3E0780
3E07C0
3E07C0
3E07C0
3E07C0
3E07C0
3E0780
3E0780
3E0F80
000F80
000F80
001F00
00FF00
00FE00
00FE00
00F800
ENDCHAR
STARTCHAR uni0453
ENCODING 1107
SWIDTH 600 0
DWIDTH 19 0
BBX 13 26 4 0
BITMAP
0040
00E0
01F0
03F0
07E0
0F80
0700
0200
0000
0000
FFF8
FFF8
FFF8
FFF8
F000
F000
F000
F000
F000
F000
F000
F000
F000
F000
F000
F000
ENDCHAR
STARTCHAR uni0454
ENCODING 1108
SWIDTH 600 0
DWIDTH 19 0
BBX 15 16 2 0
BITMAP
03F8
0FFE
3FFE
7FFC
7C0C
FFE0
FFE0
FFE0
FFE0
F800
F800
7E0C
7FFE
3FFE
1FFC
07F0
ENDCHAR
STARTCHAR uni0455
ENCODING 1109
SWIDTH 600 0
DWIDTH 19 0
BBX 15 16 2 0
BITMAP
0FE0
3FF8
7FFE
7FFC
7C18
7C08
7FC0
3FF8
1FFC
01FE
403E
783E
FFFE
FFFC
3FF8
0FE0
ENDCHAR
STARTCHAR uni0456
ENCODING 1110
SWIDTH 600 0
DWIDTH 19 0
BBX 11 24 3 0
BITMAP
03C0
07E0
07E0
07E0
07E0
03C0
0000
0000
FFE0
FFE0
FFE0
FFE0
03E0
03E0
03E0
03E0
03E0
03E0
03E0
03E0
03E0
03E0
03E0
03E0
ENDCHAR
STARTCHAR uni0457
ENCODING 1111
SWIDTH 600 0
DWIDTH 19 0
BBX 14 23 3 0
BITMAP
1C38
3E7C
3E7C
3E7C
1C38
0000
0000
FFE0
FFE0
FFE0
FFE0
03E0
03E0
03E0
03E0
03E0
03E0
03E0
03E0
03E0
03E0
03E0
03E0
ENDCHAR
STARTCHAR uni0458
ENCODING 1112
SWIDTH 600 0
DWIDTH 19 0
BBX 13 31 1 -7
BITMAP
00F0
01F8
01F8
01F8
01F8
00F0
0000
0000
3FF8
3FF8
3FF8
3FF8
00F8
00F8
00F8
00F8
00F8
00F8
00F8
00F8
00F8
00F8
00F8
00F8
00F8
00F0
41F0
7FF0
7FE0
FFC0
3F00
ENDCHAR
STARTCHAR uni0459
ENCODING 1113
SWIDTH 600 0
DWIDTH 19 0
BBX 18 16 0 0
BITMAP
1FF000
1FF000
1FF000
1FF000
1EFE00
1CFF80
1CFFC0
1CFFC0
3CF3C0
3CF1C0
3CF1C0
3CF3C0
FCFFC0
F8FFC0
F8FF80
E0FE00
ENDCHAR
STARTCHAR uni045A
ENCODING 1114
SWIDTH 600 0
DWIDTH 19 0
BBX 17 16 1 0
BITMAP
F1E000
F1E000
F1E000
F1E000
F1E000
F1FC00
FFFF00
FFFF80
FFFF80
FFE780
F1E780
F1E780
F1FF80
F1FF80
F1FF00
F1FC00
ENDCHAR
STARTCHAR uni045B
ENCODING 1115
SWIDTH 600 0
DWIDTH 19 0
BBX 17 23 0 0
BITMAP
3E0000
3E0000
FFF800
FFF800
3E0000
3E0000
3E7C00
3EFF00
3FFF00
3FFF80
3F8F80
3E0F80
3E0780
3E0780
3E0780
3E0780
3E0780
3E0780
3E0780
3E0780
3E0780
3E0780
3E0780
ENDCHAR
STARTCHAR uni045C
ENCODING 1116
SWIDTH 600 0
DWIDTH 19 0
BBX 17 26 2 0
BITMAP
002000
007000
00F800
00FC00
01F000
03E000
01C000
008000
000000
000000
F80F00
F83E00
F83E00
F87E00
F8F800
F8F000
FFF000
FFE000
FFF000
FFF000
F8F800
F87C00
F87C00
F83E00
F81F00
F81F80
ENDCHAR
STARTCHAR uni045D
ENCODING 1117
SWIDTH 600 0
DWIDTH 19 0
BBX 15 26 2 0
BITMAP
0400
0E00
1F00
1F80
0FC0
07C0
01E0
0080
0000
0000
F83E
F83E
F87E
F8FE
F8FE
F9FE
F9DE
FBDE
FFBE
FFBE
FF3E
FE3E
FE3E
FC3E
FC3E
F83E
ENDCHAR
STARTCHAR uni045E
ENCODING 1118
SWIDTH 600 0
DWIDTH 19 0
BBX 17 31 1 -7
BITMAP
1E1C00
1E3C00
0F3C00
0FFC00
07F800
03E000
000000
000000
F80780
780F80
7C0F00
7C0F00
3C1F00
3E1E00
1E1E00
1E3C00
0F3C00
0F3C00
0F7800
07F800
07F800
03F000
03F000
01E000
01E000
03E000
07C000
3FC000
3F8000
7F0000
7E0000
ENDCHAR
STARTCHAR uni045F
ENCODING 1119
SWIDTH 600 0
DWIDTH 19 0
BBX 15 23 2 -7
BITMAP
F83E
F83E
F83E
F83E
F83E
F83E
F83E
F83E
F83E
F83E
F83E
F83E
FFFE
FFFE
FFFE
FFFE
07FE
07C0
07C0
07C0
07C0
07C0
07C0
ENDCHAR
STARTCHAR uni0462
ENCODING 1122
SWIDTH 600 0
DWIDTH 19 0
BBX 18 22 0 0
BITMAP
0F8000
0F8000
0F8000
FFFF00
FFFF00
FFFF00
FFFF00
0F8000
0F8000
0FFC00
0FFF00
0FFF80
0FFFC0
0F87C0
0F83C0
0F83C0
0F83C0
0F87C0
0FFFC0
0FFF80
0FFF00
0FFC00
ENDCHAR
STARTCHAR uni0463
ENCODING 1123
SWIDTH 600 0
DWIDTH 19 0
BBX 17 19 1 0
BITMAP
0F8000
0F8000
0F8000
FFFC00
FFFC00
FFFC00
FFFC00
0F8000
0FFC00
0FFE00
0FFF00
0FFF80
0F8F80
0F8F80
0F8F80
0FFF80
0FFF00
0FFE00
0FFC00
ENDCHAR
STARTCHAR uni0472
ENCODING 1138
SWIDTH 600 0
DWIDTH 19 0
BBX 17 21 1 0
BITMAP
03F000
0FF800
1FFE00
3FFE00
7E3F00
7C1F00
780F80
F80F80
FFFF80
FFFF80
FFFF80
FFFF80
F80F80
F80F80
780F80
7C1F00
7E3F00
3FFE00
1FFC00
0FF800
03F000
ENDCHAR
STARTCHAR uni0473
ENCODING 1139
SWIDTH 600 0
DWIDTH 19 0
BBX 17 16 1 0
BITMAP
03F000
0FFC00
3FFE00
3FFE00
7C1F00
7FFF00
7FFF80
FFFF80
FFFF80
780F80
7C0F00
7E1F00
3FFE00
3FFE00
0FFC00
03F000
ENDCHAR
STARTCHAR uni0474
ENCODING 1140
SWIDTH 600 0
DWIDTH 19 0
BBX 20 21 0 0
BITMAP
F801F0
7C03F0
7C07E0
7C07E0
3C0F80
3E0F00
3E0F00
3E0F00
1E1F00
1F1E00
1F1E00
0F1E00
0F3E00
0FBC00
07BC00
07BC00
07BC00
07F800
03F800
03F800
03F800
ENDCHAR
STARTCHAR uni0475
ENCODING 1141
SWIDTH 600 0
DWIDTH 19 0
BBX 18 16 1 0
BITMAP
F807C0
780FC0
7C0F80
7C1F80
3C1E00
3E3E00
3E3C00
1E3C00
1F3C00
0F7800
0F7800
0F7800
07F800
07F000
07F000
03F000
ENDCHAR
STARTCHAR uni0490
ENCODING 1168
SWIDTH 600 0
DWIDTH 19 0
BBX 14 27 3 0
BITMAP
003C
003C
003C
003C
003C
003C
FFFC
FFFC
FFFC
FFFC
F800
F800
F800
F800
F800
F800
F800
F800
F800
F800
F800
F800
F800
F800
F800
F800
F800
ENDCHAR
STARTCHAR uni0491
ENCODING 1169
SWIDTH 600 0
DWIDTH 19 0
BBX 13 22 4 0
BITMAP
0078
0078
0078
0078
0078
00F8
FFF8
FFF8
FFF8
FFF8
F800
F800
F800
F800
F800
F800
F800
F800
F800
F800
F800
F800
ENDCHAR
STARTCHAR uni0492
ENCODING 1170
SWIDTH 600 0
DWIDTH 19 0
BBX 15 21 2 0
BITMAP
3FFE
3FFE
3FFE
3FFE
3E00
3E00
3E00
3E00
3E00
3E00
FFE0
FFE0
3E00
3E00
3E00
3E00
3E00
3E00
3E00
3E00
3E00
ENDCHAR
STARTCHAR uni0493
ENCODING 1171
SWIDTH 600 0
DWIDTH 19 0
BBX 16 16 1 0
BITMAP
1FFF
1FFF
1FFF
1FFF
1F00
1F00
1F00
FFF8
FFF8
1F00
1F00
1F00
1F00
1F00
1F00
1F00
ENDCHAR
STARTCHAR uni0496
ENCODING 1174
SWIDTH 600 0
DWIDTH 19 0
BBX 20 28 0 -7
BITMAP
F0F1E0
F8F3E0
F8F3E0
7CF7E0
3CF780
1CF700
1EF700
1EFF00
1FFF00
0FFF00
1FFF00
1FFF00
1CF700
3CF780
3CF780
3CF380
78F3C0
78F3F0
78F3F0
F8F3F0
F8F1F0
0000F0
0000F0
0000E0
0000E0
0000E0
0000E0
0000E0
ENDCHAR
STARTCHAR uni0497
ENCODING 1175
SWIDTH 600 0
DWIDTH 19 0
BBX 20 23 0 -7
BITMAP
F0E0E0
F8E3E0
7CE3E0
7CE7C0
1CE780
1EE700
1FFF00
0FFF00
1FFF00
1FFF00
3CE780
3CE780
3CE3F0
78E3F0
78E3F0
F8E1F0
0000F0
0000E0
0000E0
0000E0
0000E0
0000E0
0000E0
ENDCHAR
STARTCHAR uni0498
ENCODING 1176
SWIDTH 600 0
DWIDTH 19 0
BBX 17 28 1 -7
BITMAP
07F000
1FFC00
7FFE00
3FFE00
1C3F00
101F00
001F00
003E00
07FE00
07F800
07FE00
07FF00
001F00
000F80
000F80
300F80
3C1F80
7FFF00
FFFE00
3FFC00
0FF000
03E000
03E000
03E000
03E000
03E000
03E000
03E000
ENDCHAR
STARTCHAR uni0499
ENCODING 1177
SWIDTH 600 0
DWIDTH 19 0
BBX 15 23 2 -7
BITMAP
1FE0
7FF8
FFFC
FFFE
703E
4FFC
0FF0
0FFC
0FFE
003E
401E
703E
FFFE
FFFC
7FF8
1FE0
07C0
07C0
0780
0780
0780
0780
0780
ENDCHAR
STARTCHAR uni049A
ENCODING 1178
SWIDTH 600 0
DWIDTH 19 0
BBX 17 28 2 -7
BITMAP
F80F00
F81F00
F83F00
F87F00
F87800
F8F800
F8F000
F9F000
FFE000
FFE000
FFE000
FFF000
F9F000
F8F800
F8F800
F87C00
F87C00
F83F80
F81F80
F81F80
F80F80
000780
000780
000780
000780
000780
000780
000780
ENDCHAR
STARTCHAR uni049B
ENCODING 1179
SWIDTH 600 0
DWIDTH 19 0
BBX 17 23 2 -7
BITMAP
F80F00
F83E00
F83E00
F87E00
F8F800
F8F000
FFF000
FFE000
FFF000
FFF000
F8F800
F87C00
F87F80
F83F80
F81F80
F81F80
000780
000780
000780
000780
000780
000780
000780
ENDCHAR
STARTCHAR uni04A0
ENCODING 1184
SWIDTH 600 0
DWIDTH 19 0
BBX 18 21 1 0
BITMAP
FF83C0
FF87C0
FF8F80
FF8F80
078F00
079E00
079E00
079C00
07FC00
07FC00
07FC00
07FC00
079E00
079E00
079F00
078F00
078F00
078780
078780
0787C0
0783C0
ENDCHAR
STARTCHAR uni04A1
ENCODING 1185
SWIDTH 600 0
DWIDTH 19 0
BBX 18 16 1 0
BITMAP
FF8780
FF8F80
FF8F80
FF9F80
079E00
079C00
07FC00
07FC00
07FC00
07FC00
079E00
079E00
078F00
078F80
078780
0787C0
ENDCHAR
STARTCHAR uni04A2
ENCODING 1186
SWIDTH 600 0
DWIDTH 19 0
BBX 17 28 2 -7
BITMAP
F83E00
F83E00
F83E00
F83E00
F83E00
F83E00
F83E00
F83E00
FFFE00
FFFE00
FFFE00
FFFE00
F83E00
F83E00
F83E00
F83E00
F83E00
F83F80
F83F80
F83F80
F83F80
000780
000780
000780
000780
000780
000780
000780
ENDCHAR
STARTCHAR uni04A3
ENCODING 1187
SWIDTH 600 0
DWIDTH 19 0
BBX 17 23 2 -7
BITMAP
F87C00
F87C00
F87C00
F87C00
F87C00
F87C00
FFFC00
FFFC00
FFFC00
FFFC00
F87C00
F87C00
F87F80
F87F80
F87F80
F87F80
000F80
000F80
000F80
000F80
000F00
000F00
000F00
ENDCHAR
STARTCHAR uni04AA
ENCODING 1194
SWIDTH 600 0
DWIDTH 19 0
BBX 16 28 2 -7
BITMAP
03F8
0FFC
1FFF
3FFE
7F0C
7C08
FC00
F800
F800
F800
F800
F800
F800
F800
F800
7C04
7F0E
3FFF
1FFF
0FFE
03F8
01F0
01F0
01F0
01F0
01F0
01F0
01E0
ENDCHAR
STARTCHAR uni04AB
ENCODING 1195
SWIDTH 600 0
DWIDTH 19 0
BBX 16 23 2 -7
BITMAP
03F0
0FFC
3FFE
3FFC
7E0C
7C00
F800
F800
F800
F800
FC04
7E0C
7FFE
3FFE
1FFD
07F8
01E0
01E0
01E0
01E0
01E0
01E0
01E0
ENDCHAR
STARTCHAR uni04AE
ENCODING 1198
SWIDTH 600 0
DWIDTH 19 0
BBX 18 21 1 0
BITMAP
F807C0
F80F80
7C0F80
7C1F00
3C1F00
3E3E00
1E3E00
1F3C00
0F7C00
0F7800
07F800
07F000
03F000
03E000
03E000
03E000
03E000
03E000
03E000
03E000
03E000
ENDCHAR
STARTCHAR uni04AF
ENCODING 1199
SWIDTH 600 0
DWIDTH 19 0
BBX 17 23 1 -7
BITMAP
F80780
780F80
7C0F00
7C0F00
3C1F00
3E1E00
3E1E00
1E3E00
1F3C00
0F3C00
0F7800
0F7800
07F800
07F000
07F000
03F000
03E000
03E000
03E000
03E000
03E000
03E000
03E000
ENDCHAR
STARTCHAR uni04B0
ENCODING 1200
SWIDTH 600 0
DWIDTH 19 0
BBX 18 21 1 0
BITMAP
F807C0
F80F80
7C0F80
7C1F00
3C1F00
3E3E00
1E3E00
1F3C00
0F7C00
0F7800
07F800
07F000
3FFF00
3FFF00
03E000
03E000
03E000
03E000
03E000
03E000
03E000
ENDCHAR
STARTCHAR uni04B1
ENCODING 1201
SWIDTH 600 0
DWIDTH 19 0
BBX 17 23 1 -7
BITMAP
F80780
780F80
7C0F00
7C0F00
3C1F00
3E1E00
1E1E00
1E3C00
1F3C00
0F3C00
0F7800
0F7800
07F800
07F000
3FFF00
3FFF00
03E000
03E000
03E000
03E000
03E000
03E000
03E000
ENDCHAR
STARTCHAR uni04B2
ENCODING 1202
SWIDTH 600 0
DWIDTH 19 0
BBX 18 28 1 -7
BITMAP
F80F80
7C1F00
7C1F00
3E1E00
3E3E00
1F3C00
0F7C00
0FF800
07F800
07F000
07F000
07F000
0FF800
0F7800
1F7C00
1E7C00
3E3E00
3C1FC0
7C1FC0
F80FC0
F80FC0
0003C0
0003C0
0003C0
0003C0
0003C0
0003C0
0003C0
ENDCHAR
STARTCHAR uni04B3
ENCODING 1203
SWIDTH 600 0
DWIDTH 19 0
BBX 17 23 1 -7
BITMAP
7C1F80
3E1F00
3E3E00
1F3C00
0F7C00
0FF800
07F800
03F000
07F000
0FF000
0FF800
1F7C00
3E3F80
3E3F80
7C1F80
780F80
800780
000780
000780
000780
000780
000780
000780
ENDCHAR
STARTCHAR uni04B6
ENCODING 1206
SWIDTH 600 0
DWIDTH 19 0
BBX 18 28 1 -7
BITMAP
F81F00
F81F00
F81F00
F81F00
F81F00
F81F00
F81F00
781F00
7C1F00
7FFF00
3FFF00
1FFF00
07FF00
001F00
001F00
001F00
001F00
001FC0
001FC0
001FC0
001FC0
0003C0
0003C0
0003C0
0003C0
0003C0
0003C0
0003C0
ENDCHAR
STARTCHAR uni04B7
ENCODING 1207
SWIDTH 600 0
DWIDTH 19 0
BBX 17 23 2 -7
BITMAP
F83C00
F83C00
F83C00
F83C00
F83C00
F83C00
FC3C00
FFFC00
7FFC00
3FFC00
0FFC00
003C00
003F80
003F80
003F80
003F80
000F80
000F80
000F80
000F80
000F00
000F00
000F00
ENDCHAR
STARTCHAR uni04BA
ENCODING 1210
SWIDTH 600 0
DWIDTH 19 0
BBX 16 21 2 0
BITMAP
F800
F800
F800
F800
F800
F800
F800
FFE0
FFF8
FFFC
FFFE
F83E
F81F
F81F
F81F
F81F
F81F
F81F
F81F
F81F
F81F
ENDCHAR
STARTCHAR uni04BB
ENCODING 1211
SWIDTH 600 0
DWIDTH 19 0
BBX 15 23 2 0
BITMAP
F800
F800
F800
F800
F800
F800
F800
F9F8
FBFC
FFFE
FFFE
FE3E
FC3E
F81E
F81E
F81E
F81E
F81E
F81E
F81E
F81E
F81E
F81E
ENDCHAR
STARTCHAR uni04C0
ENCODING 1216
SWIDTH 600 0
DWIDTH 19 0
BBX 15 21 2 0
BITMAP
FFFE
FFFE
FFFE
FFFE
07C0
07C0
07C0
07C0
07C0
07C0
07C0
07C0
07C0
07C0
07C0
07C0
07C0
FFFE
FFFE
FFFE
FFFE
ENDCHAR
STARTCHAR uni04C1
ENCODING 1217
SWIDTH 600 0
DWIDTH 19 0
BBX 19 26 0 0
BITMAP
0F1E00
0F1E00
07FC00
03F800
000000
F0F1E0
F8F3E0
F8F3E0
7CF7E0
3CF780
1CF700
1EF700
1EFF00
1FFF00
0FFF00
1FFF00
1FFF00
1CF700
3CF780
3CF780
3CF380
78F3C0
78F3C0
78F3C0
F8F3E0
F8F1E0
ENDCHAR
STARTCHAR uni04C2
ENCODING 1218
SWIDTH 600 0
DWIDTH 19 0
BBX 19 24 0 0
BITMAP
0F1E00
0F1E00
0F1E00
07FC00
03FC00
01F000
000000
000000
F0E0E0
F8E3E0
7CE3E0
7CE7C0
1CE780
1EE700
1FFF00
0FFF00
1FFF00
1FFF00
3CE780
3CE780
3CE3C0
78E3C0
78E3E0
F8E1E0
ENDCHAR
STARTCHAR uni04CF
ENCODING 1231
SWIDTH 600 0
DWIDTH 19 0
BBX 15 23 2 0
BITMAP
FF80
FF80
FF80
FF80
0780
0780
0780
0780
0780
0780
0780
0780
0780
0780
0780
0780
0780
0780
07C4
07FE
03FE
03FE
00FC
ENDCHAR
STARTCHAR uni04D0
ENCODING 1232
SWIDTH 600 0
DWIDTH 19 0
BBX 19 26 0 0
BITMAP
0F1E00
0F1E00
07FC00
03F800
000000
01F800
03F800
03F800
03FC00
07BC00
07BC00
07BC00
0F9E00
0F1E00
0F1E00
0F1F00
1E0F00
1FFF00
1FFF80
3FFF80
3FFF80
3C07C0
7C07C0
7C07C0
7803C0
F803E0
ENDCHAR
STARTCHAR uni04D1
ENCODING 1233
SWIDTH 600 0
DWIDTH 19 0
BBX 15 24 2 0
BITMAP
1C3C
1E3C
1E78
0FF8
0FF0
03E0
0000
0000
07E0
3FF8
7FFC
7FFC
307E
003E
03FE
1FFE
7FFE
FC3E
F83E
F87E
FFFE
FFFE
7FDE
1F1E
ENDCHAR
STARTCHAR uni04D4
ENCODING 1236
SWIDTH 600 0
DWIDTH 19 0
BBX 19 21 0 0
BITMAP
01FFE0
03FFE0
03FFE0
03FFE0
07FC00
07BC00
07BC00
0FBC00
0FBFC0
0F3FC0
1F3FC0
1F3FC0
1E3C00
3FFC00
3FFC00
3FFC00
7FFC00
7C3FE0
7C3FE0
F83FE0
F83FE0
ENDCHAR
STARTCHAR uni04D5
ENCODING 1237
SWIDTH 600 0
DWIDTH 19 0
BBX 18 16 1 0
BITMAP
1E1E00
7F7F00
FFFF80
7FFF80
63E3C0
01FFC0
0FFFC0
3FFFC0
7FFFC0
F9C000
F1E000
F1F100
FFFF80
FFFF80
FF7FC0
3C1F00
ENDCHAR
STARTCHAR uni04D6
ENCODING 1238
SWIDTH 600 0
DWIDTH 19 0
BBX 14 26 3 0
BITMAP
3C78
3CF8
1FF0
0FE0
0000
FFFC
FFFC
FFFC
FFFC
F800
F800
F800
F800
FFF0
FFF0
FFF0
FFF0
F800
F800
F800
F800
F800
FFFC
FFFC
FFFC
FFFC
ENDCHAR
STARTCHAR uni04D7
ENCODING 1239
SWIDTH 600 0
DWIDTH 19 0
BBX 16 24 2 0
BITMAP
3C3C
1C38
1E78
1FF8
0FF0
07E0
0000
0000
07E0
1FF8
3FFC
7FFE
781E
FFFE
FFFE
FFFF
FFFE
F800
F800
FC0C
7FFC
3FFE
1FFC
07F0
ENDCHAR
STARTCHAR uni04D8
ENCODING 1240
SWIDTH 600 0
DWIDTH 19 0
BBX 16 21 2 0
BITMAP
07C0
1FF0
3FF8
3FFC
187E
103E
001E
001F
FFFF
FFFF
FFFF
FFFF
F01F
F81F
F81E
783E
7C7E
7FFC
3FF8
1FF0
07C0
ENDCHAR
STARTCHAR uni04D9
ENCODING 1241
SWIDTH 600 0
DWIDTH 19 0
BBX 15 16 2 0
BITMAP
0FC0
3FF0
7FF8
7FFC
307E
003E
001E
FFFE
FFFE
FFFE
FFFE
F03E
7FFC
7FF8
3FF0
0FC0
ENDCHAR
STARTCHAR uni04E2
ENCODING 1250
SWIDTH 600 0
DWIDTH 19 0
BBX 15 26 2 0
BITMAP
1FF8
1FF8
1FF8
0000
0000
F03E
F03E
F07E
F07E
F0FE
F0FE
F1FE
F1FE
F3DE
F3DE
F3DE
F79E
F79E
FF1E
FF1E
FE1E
FE1E
FC1E
FC1E
FC1E
F81E
ENDCHAR
STARTCHAR uni04E3
ENCODING 1251
SWIDTH 600 0
DWIDTH 19 0
BBX 15 22 2 0
BITMAP
1FF8
1FF8
1FF8
0000
0000
0000
F83E
F83E
F87E
F8FE
F8FE
F9FE
F9DE
FBDE
FFBE
FFBE
FF3E
FE3E
FE3E
FC3E
FC3E
F83E
ENDCHAR
STARTCHAR uni04E6
ENCODING 1254
SWIDTH 600 0
DWIDTH 19 0
BBX 17 27 1 0
BITMAP
0E1C00
1E3C00
1E3C00
1E3C00
0E1C00
000000
03F000
0FF800
1FFE00
3FFE00
7E3F00
7C1F00
7C0F80
F80F80
F80F80
F80F80
F80F80
F80F80
F80F80
F80F80
7C0F80
7C1F00
7E3F00
3FFE00
1FFE00
0FF800
03F000
ENDCHAR
STARTCHAR uni04E7
ENCODING 1255
SWIDTH 600 0
DWIDTH 19 0
BBX 17 23 1 0
BITMAP
1E1C00
1E3E00
3F3E00
1E3E00
1E1C00
000000
000000
03F000
0FF800
1FFE00
3FFE00
7E3F00
7C1F00
7C0F80
F80F80
780F80
7C0F80
7C1F00
7E3F00
3FFE00
1FFE00
0FF800
03F000
ENDCHAR
STARTCHAR uni04E8
ENCODING 1256
SWIDTH 600 0
DWIDTH 19 0
BBX 17 21 1 0
BITMAP
03F000
0FF800
1FFE00
3FFE00
7E3F00
7C1F00
780F80
F80F80
FFFF80
FFFF80
FFFF80
FFFF80
F80F80
F80F80
780F80
7C1F00
7E3F00
3FFE00
1FFC00
0FF800
03F000
ENDCHAR
STARTCHAR uni04E9
ENCODING 1257
SWIDTH 600 0
DWIDTH 19 0
BBX 17 16 1 0
BITMAP
03F000
0FFC00
3FFE00
3FFE00
7C1F00
7FFF00
7FFF80
FFFF80
FFFF80
780F80
7C0F00
7E1F00
3FFE00
3FFE00
0FFC00
03F000
ENDCHAR
STARTCHAR uni04EE
ENCODING 1262
SWIDTH 600 0
DWIDTH 19 0
BBX 18 26 1 0
BITMAP
0FFC00
0FFC00
0FFC00
000000
000000
F807C0
F80F80
7C0F80
7C0F00
3E1F00
3E1E00
1E3E00
1F3E00
0F3C00
0F7C00
07F800
07F800
03F800
03F000
03F000
01E000
03E000
1FC000
1FC000
3F8000
3E0000
ENDCHAR
STARTCHAR uni04EF
ENCODING 1263
SWIDTH 600 0
DWIDTH 19 0
BBX 17 29 1 -7
BITMAP
0FFC00
0FFC00
0FFC00
000000
000000
000000
F80780
780F80
7C0F00
7C0F00
3C1F00
3E1E00
1E1E00
1E3C00
0F3C00
0F3C00
0F7800
07F800
07F800
03F000
03F000
01E000
01E000
03E000
07C000
3FC000
3F8000
7F0000
7E0000
ENDCHAR
STARTCHAR uni04F2
ENCODING 1266
SWIDTH 600 0
DWIDTH 19 0
BBX 18 28 1 0
BITMAP
018600
01C700
03EF80
079E00
071C00
0A2800
000000
F807C0
F80F80
7C0F80
7C0F00
3E1F00
3E1E00
1E3E00
1F3E00
0F3C00
0F7C00
07F800
07F800
03F800
03F000
03F000
01E000
03E000
1FC000
1FC000
3F8000
3E0000
ENDCHAR
STARTCHAR uni04F3
ENCODING 1267
SWIDTH 600 0
DWIDTH 19 0
BBX 17 32 1 -7
BITMAP
018400
01EF00
03CF00
038E00
079C00
071C00
022800
000000
000000
F80780
780F80
7C0F00
7C0F00
3C1F00
3E1E00
1E1E00
1E3C00
0F3C00
0F3C00
0F7800
07F800
07F800
03F000
03F000
01E000
01E000
03E000
07C000
3FC000
3F8000
7F0000
7E0000
ENDCHAR
STARTCHAR a.sups
ENCODING 7491
SWIDTH 600 0
DWIDTH 19 0
BBX 10 11 5 12
BITMAP
3E00
FF80
FF80
43C0
03C0
1FC0
FFC0
F3C0
E3C0
FFC0
7DC0
ENDCHAR
STARTCHAR b.sups
ENCODING 7495
SWIDTH 600 0
DWIDTH 19 0
BBX 10 15 5 12
BITMAP
E000
E000
E000
E000
EF00
FF80
FFC0
F3C0
E1C0
E1C0
E1C0
E3C0
FFC0
FF80
0F00
ENDCHAR
STARTCHAR d.sups
ENCODING 7496
SWIDTH 600 0
DWIDTH 19 0
BBX 10 15 4 12
BITMAP
01C0
01C0
01C0
01C0
1DC0
7FC0
7FC0
F1C0
F1C0
F1C0
F1C0
F1C0
7FC0
7FC0
3C00
ENDCHAR
STARTCHAR e.sups
ENCODING 7497
SWIDTH 600 0
DWIDTH 19 0
BBX 11 11 4 12
BITMAP
0F00
3F80
7FC0
71E0
F0E0
FFE0
FFE0
7000
7880
3FC0
0F80
ENDCHAR
STARTCHAR g.sups
ENCODING 7501
SWIDTH 600 0
DWIDTH 19 0
BBX 11 15 4 8
BITMAP
1E00
3FE0
73E0
71C0
71C0
73C0
7F80
3F00
7000
7FC0
7FE0
7FE0
E0E0
FFC0
3F80
ENDCHAR
STARTCHAR k.sups
ENCODING 7503
SWIDTH 600 0
DWIDTH 19 0
BBX 11 15 5 12
BITMAP
E000
E000
E000
E000
E1E0
E380
E780
EF00
FE00
FF00
FF00
F380
E3C0
E1C0
E1E0
ENDCHAR
STARTCHAR m.sups
ENCODING 7504
SWIDTH 600 0
DWIDTH 19 0
BBX 15 11 2 12
BITMAP
CF3C
DF7E
FFFE
E3CE
E38E
E38E
E38E
E38E
E38E
E38E
E38E
ENDCHAR
STARTCHAR o.sups
ENCODING 7506
SWIDTH 600 0
DWIDTH 19 0
BBX 11 11 4 12
BITMAP
1F00
3F80
7FC0
71E0
F1E0
F0E0
F1E0
71E0
7FC0
3F80
1F00
ENDCHAR
STARTCHAR p.sups
ENCODING 7510
SWIDTH 600 0
DWIDTH 19 0
BBX 10 15 5 8
BITMAP
EF00
FF80
FFC0
F3C0
E1C0
E1C0
E1C0
E1C0
E3C0
FF80
FF80
EF00
E000
E000
E000
ENDCHAR
STARTCHAR t.sups
ENCODING 7511
SWIDTH 600 0
DWIDTH 19 0
BBX 10 14 5 12
BITMAP
3800
3800
3800
7FC0
FFC0
FFC0
3800
3800
3800
3800
3C00
3FC0
1FC0
0FC0
ENDCHAR
STARTCHAR u.sups
ENCODING 7512
SWIDTH 600 0
DWIDTH 19 0
BBX 10 11 5 12
BITMAP
E3C0
E3C0
E3C0
E3C0
E3C0
E3C0
E3C0
E3C0
FFC0
FDC0
79C0
ENDCHAR
STARTCHAR v.sups
ENCODING 7515
SWIDTH 600 0
DWIDTH 19 0
BBX 11 11 4 12
BITMAP
E0E0
E0E0
71C0
71C0
71C0
3B80
3B80
3B80
1B00
1F00
1F00
ENDCHAR
STARTCHAR c.sups
ENCODING 7580
SWIDTH 600 0
DWIDTH 19 0
BBX 10 11 5 12
BITMAP
0F80
3FC0
7F80
7900
7000
F000
F000
7880
7F80
3FC0
1F00
ENDCHAR
STARTCHAR f.sups
ENCODING 7584
SWIDTH 600 0
DWIDTH 19 0
BBX 10 15 6 12
BITMAP
0FC0
1FC0
3FC0
3C00
7F80
FF80
FF80
3C00
3C00
3C00
3C00
3C00
3C00
3C00
3C00
ENDCHAR
STARTCHAR z.sups
ENCODING 7611
SWIDTH 600 0
DWIDTH 19 0
BBX 10 11 5 12
BITMAP
FFC0
FFC0
FF80
0700
0E00
1E00
3C00
7800
FFC0
FFC0
FFC0
ENDCHAR
STARTCHAR uni1E06
ENCODING 7686
SWIDTH 600 0
DWIDTH 19 0
BBX 16 27 2 -6
BITMAP
FFF0
FFF8
FFFC
FFFE
F83E
F83E
F83E
F87C
FFFC
FFF0
FFFC
FFFE
F83F
F81F
F81F
F81F
F83F
FFFE
FFFE
FFFC
FFF0
0000
0000
0000
1FF8
1FF8
1FF8
ENDCHAR
STARTCHAR uni1E07
ENCODING 7687
SWIDTH 600 0
DWIDTH 19 0
BBX 16 29 2 -6
BITMAP
F800
F800
F800
F800
F800
F800
F800
F9F0
FFF8
FFFC
FFFE
FC3E
F83E
F81F
F81F
F81F
F81F
F83E
FC7E
FFFE
FFFC
F7F8
F1E0
0000
0000
0000
1FF8
1FF8
1FF8
ENDCHAR
STARTCHAR uni1E0C
ENCODING 7692
SWIDTH 600 0
DWIDTH 19 0
BBX 16 29 2 -8
BITMAP
FFC0
FFF0
FFF8
FFFC
F8FE
F83E
F83F
F81F
F81F
F81F
F81F
F81F
F81F
F81F
F83F
F83E
F8FE
FFFC
FFF8
FFF0
FFC0
0000
0000
0380
07C0
0FE0
0FE0
07C0
0380
ENDCHAR
STARTCHAR uni1E0D
ENCODING 7693
SWIDTH 600 0
DWIDTH 19 0
BBX 16 31 1 -8
BITMAP
001F
001F
001F
001F
001F
001F
001F
07DF
1FFF
3FFF
3FFF
7E3F
7C1F
7C1F
F81F
781F
781F
7C1F
7E3F
7FFF
3FFF
1FEF
078F
0000
0000
01E0
03F0
03F0
03F0
03F0
01E0
ENDCHAR
STARTCHAR uni1E0E
ENCODING 7694
SWIDTH 600 0
DWIDTH 19 0
BBX 16 27 2 -6
BITMAP
FFC0
FFF0
FFF8
FFFC
F8FE
F83E
F83F
F81F
F81F
F81F
F81F
F81F
F81F
F81F
F83F
F83E
F8FE
FFFC
FFF8
FFF0
FFC0
0000
0000
0000
1FF0
1FF0
1FF0
ENDCHAR
STARTCHAR uni1E0F
ENCODING 7695
SWIDTH 600 0
DWIDTH 19 0
BBX 16 29 1 -6
BITMAP
001F
001F
001F
001F
001F
001F
001F
07DF
1FFF
3FFF
3FFF
7E3F
7C1F
7C1F
F81F
781F
781F
7C1F
7E3F
7FFF
3FFF
1FEF
078F
0000
0000
0000
0FFC
0FFC
0FFC
ENDCHAR
STARTCHAR uni1E10
ENCODING 7696
SWIDTH 600 0
DWIDTH 19 0
BBX 16 29 2 -8
BITMAP
FFC0
FFF0
FFF8
FFFC
F8FE
F83E
F83F
F81F
F81F
F81F
F81F
F81F
F81F
F81F
F83F
F83E
F8FE
FFFC
FFF8
FFF0
FFC0
0300
0700
0780
0BC0
01C0
03C0
1F80
0E00
ENDCHAR
STARTCHAR uni1E11
ENCODING 7697
SWIDTH 600 0
DWIDTH 19 0
BBX 16 31 1 -8
BITMAP
001F
001F
001F
001F
001F
001F
001F
07DF
1FFF
3FFF
3FFF
7E3F
7C1F
7C1F
F81F
781F
781F
7C1F
7E3F
7FFF
3FFF
1FEF
078F
0380
0380
07C0
01E0
00E0
01E0
0FC0
0700
ENDCHAR
STARTCHAR uni1E16
ENCODING 7702
SWIDTH 600 0
DWIDTH 19 0
BBX 14 33 3 0
BITMAP
0040
00E0
03E0
07F0
0780
0200
0000
3FF0
3FF0
3FF0
0000
0000
FFFC
FFFC
FFFC
FFFC
F800
F800
F800
F800
FFF0
FFF0
FFF0
FFF0
F800
F800
F800
F800
F800
FFFC
FFFC
FFFC
FFFC
ENDCHAR
STARTCHAR uni1E17
ENCODING 7703
SWIDTH 600 0
DWIDTH 19 0
BBX 16 28 2 0
BITMAP
0060
00E0
01F0
03C0
0100
0000
1FF8
1FF8
1FF8
0000
0000
0000
07E0
1FF8
3FFC
7FFE
781E
FFFE
FFFE
FFFF
FFFE
F800
F800
FC0C
7FFC
3FFE
1FFC
07F0
ENDCHAR
STARTCHAR uni1E20
ENCODING 7712
SWIDTH 600 0
DWIDTH 19 0
BBX 17 26 1 0
BITMAP
07FC00
07FC00
07FC00
000000
000000
01F800
07FE00
1FFF00
1FFE00
3F0C00
7E0400
7C0000
7C0000
780000
F87F80
F87F80
F87F80
F87F80
7C0F80
7C0F80
7E0F80
3F0F80
3FFF80
1FFF80
07FE00
01F800
ENDCHAR
STARTCHAR uni1E21
ENCODING 7713
SWIDTH 600 0
DWIDTH 19 0
BBX 16 29 2 -7
BITMAP
1FF0
1FF0
1FF0
0000
0000
0000
0FFF
3FFF
7FFF
7FFF
FC7F
F878
F87C
787C
7FF8
3FF8
3FE0
7000
7FF8
7FFE
7FFF
3FFF
700F
F00F
F01F
FFFE
FFFE
7FF8
1FE0
ENDCHAR
STARTCHAR uni1E24
ENCODING 7716
SWIDTH 600 0
DWIDTH 19 0
BBX 15 29 2 -8
BITMAP
F83E
F83E
F83E
F83E
F83E
F83E
F83E
F83E
FFFE
FFFE
FFFE
FFFE
F83E
F83E
F83E
F83E
F83E
F83E
F83E
F83E
F83E
0000
0000
0380
07C0
0FE0
0FE0
07C0
0380
ENDCHAR
STARTCHAR uni1E25
ENCODING 7717
SWIDTH 600 0
DWIDTH 19 0
BBX 15 31 2 -8
BITMAP
F800
F800
F800
F800
F800
F800
F800
F9F8
FBFC
FFFE
FFFE
FE3E
FC3E
F81E
F81E
F81E
F81E
F81E
F81E
F81E
F81E
F81E
F81E
0000
0000
03C0
07E0
07E0
07E0
07E0
03C0
ENDCHAR
STARTCHAR uni1E26
ENCODING 7718
SWIDTH 600 0
DWIDTH 19 0
BBX 15 27 2 0
BITMAP
1C38
3C78
3C78
3C78
1C38
0000
F83E
F83E
F83E
F83E
F83E
F83E
F83E
F83E
FFFE
FFFE
FFFE
FFFE
F83E
F83E
F83E
F83E
F83E
F83E
F83E
F83E
F83E
ENDCHAR
STARTCHAR uni1E27
ENCODING 7719
SWIDTH 600 0
DWIDTH 19 0
BBX 18 29 -1 0
BITMAP
70E000
F1E000
F9F000
F1E000
70E000
000000
1F0000
1F0000
1F0000
1F0000
1F0000
1F0000
1F0000
1F3F00
1F7F80
1FFFC0
1FFFC0
1FC7C0
1F87C0
1F03C0
1F03C0
1F03C0
1F03C0
1F03C0
1F03C0
1F03C0
1F03C0
1F03C0
1F03C0
ENDCHAR
STARTCHAR uni1E28
ENCODING 7720
SWIDTH 600 0
DWIDTH 19 0
BBX 16 29 1 -8
BITMAP
7C1F
7C1F
7C1F
7C1F
7C1F
7C1F
7C1F
7C1F
7FFF
7FFF
7FFF
7FFF
7C1F
7C1F
7C1F
7C1F
7C1F
7C1F
7C1F
7C1F
7C1F
3800
7000
7800
3C00
1E00
3C00
FC00
F000
ENDCHAR
STARTCHAR uni1E29
ENCODING 7721
SWIDTH 600 0
DWIDTH 19 0
BBX 16 31 1 -8
BITMAP
7C00
7C00
7C00
7C00
7C00
7C00
7C00
7CFC
7DFE
7FFF
7FFF
7F1F
7E1F
7C0F
7C0F
7C0F
7C0F
7C0F
7C0F
7C0F
7C0F
7C0F
7C0F
3800
3800
7C00
1E00
1E00
1E00
FC00
F000
ENDCHAR
STARTCHAR uni1E2A
ENCODING 7722
SWIDTH 600 0
DWIDTH 19 0
BBX 15 29 2 -8
BITMAP
F83E
F83E
F83E
F83E
F83E
F83E
F83E
F83E
FFFE
FFFE
FFFE
FFFE
F83E
F83E
F83E
F83E
F83E
F83E
F83E
F83E
F83E
0000
0000
0000
3838
3C78
1FF0
0FF0
07C0
ENDCHAR
STARTCHAR uni1E2B
ENCODING 7723
SWIDTH 600 0
DWIDTH 19 0
BBX 15 31 2 -8
BITMAP
F800
F800
F800
F800
F800
F800
F800
F9F8
FBFC
FFFE
FFFE
FE3E
FC3E
F81E
F81E
F81E
F81E
F81E
F81E
F81E
F81E
F81E
F81E
0000
0000
0000
3838
1C38
1FF8
0FF0
07E0
ENDCHAR
STARTCHAR uni1E32
ENCODING 7730
SWIDTH 600 0
DWIDTH 19 0
BBX 17 29 2 -8
BITMAP
F81F00
F83E00
F87E00
F87C00
F8F800
F9F000
F9F000
FBE000
FFC000
FFE000
FFE000
FFF000
FEF000
FCF800
FC7800
F87C00
F83E00
F83E00
F81F00
F81F00
F80F80
000000
000000
01C000
03E000
07E000
07F000
03E000
01C000
ENDCHAR
STARTCHAR uni1E33
ENCODING 7731
SWIDTH 600 0
DWIDTH 19 0
BBX 17 31 2 -8
BITMAP
F80000
F80000
F80000
F80000
F80000
F80000
F80000
F81F00
F83E00
F87C00
F8F800
F9F000
FBE000
FFC000
FFE000
FFF000
FEF000
FCF800
FC7C00
F87C00
F83E00
F81F00
F81F00
000080
000000
01C000
03E000
07E000
07F000
03E000
03C000
ENDCHAR
STARTCHAR uni1E34
ENCODING 7732
SWIDTH 600 0
DWIDTH 19 0
BBX 17 27 2 -6
BITMAP
F81F00
F83E00
F87E00
F87C00
F8F800
F9F000
F9F000
FBE000
FFC000
FFE000
FFE000
FFF000
FEF000
FCF800
FC7800
F87C00
F83E00
F83E00
F81F00
F81F00
F80F80
000000
000000
000000
0FF800
0FF800
0FF800
ENDCHAR
STARTCHAR uni1E35
ENCODING 7733
SWIDTH 600 0
DWIDTH 19 0
BBX 17 29 2 -6
BITMAP
F80000
F80000
F80000
F80000
F80000
F80000
F80000
F81F00
F83E00
F87C00
F8F800
F9F000
FBE000
FFC000
FFE000
FFF000
FEF000
FCF800
FC7C00
F87C00
F83E00
F81F00
F81F00
000080
000000
000000
0FF800
0FF800
0FF800
ENDCHAR
STARTCHAR uni1E36
ENCODING 7734
SWIDTH 600 0
DWIDTH 19 0
BBX 14 29 3 -8
BITMAP
F800
F800
F800
F800
F800
F800
F800
F800
F800
F800
F800
F800
F800
F800
F800
F800
F800
FFFC
FFFC
FFFC
FFFC
0000
0000
03C0
07C0
07E0
07E0
07E0
03C0
ENDCHAR
STARTCHAR uni1E37
ENCODING 7735
SWIDTH 600 0
DWIDTH 19 0
BBX 15 31 2 -8
BITMAP
FF80
FF80
FF80
FF80
0780
0780
0780
0780
0780
0780
0780
0780
0780
0780
0780
0780
0780
0780
07C4
07FE
03FE
03FE
00FC
0000
0000
00F0
01F0
01F8
01F8
01F8
00F0
ENDCHAR
STARTCHAR uni1E38
ENCODING 7736
SWIDTH 600 0
DWIDTH 19 0
BBX 16 34 1 -8
BITMAP
FFC0
FFC0
FFC0
0000
0000
3E00
3E00
3E00
3E00
3E00
3E00
3E00
3E00
3E00
3E00
3E00
3E00
3E00
3E00
3E00
3E00
3E00
3FFF
3FFF
3FFF
3FFF
0000
0000
00F0
01F0
01F8
01F8
01F8
00F0
ENDCHAR
STARTCHAR uni1E39
ENCODING 7737
SWIDTH 600 0
DWIDTH 19 0
BBX 15 36 2 -8
BITMAP
3FF0
3FF0
3FF0
0000
0000
FF80
FF80
FF80
FF80
0780
0780
0780
0780
0780
0780
0780
0780
0780
0780
0780
0780
0780
0780
07C4
07FE
03FE
03FE
00FC
0000
0000
00F0
01F0
01F8
01F8
01F8
00F0
ENDCHAR
STARTCHAR uni1E3A
ENCODING 7738
SWIDTH 600 0
DWIDTH 19 0
BBX 14 27 3 -6
BITMAP
F800
F800
F800
F800
F800
F800
F800
F800
F800
F800
F800
F800
F800
F800
F800
F800
F800
FFFC
FFFC
FFFC
FFFC
0000
0000
0000
1FF0
1FF0
1FF0
ENDCHAR
STARTCHAR uni1E3B
ENCODING 7739
SWIDTH 600 0
DWIDTH 19 0
BBX 15 29 2 -6
BITMAP
FF80
FF80
FF80
FF80
0780
0780
0780
0780
0780
0780
0780
0780
0780
0780
0780
0780
0780
0780
07C4
07FE
03FE
03FE
00FC
0000
0000
0000
07FC
07FC
07FC
ENDCHAR
STARTCHAR uni1E3E
ENCODING 7742
SWIDTH 600 0
DWIDTH 19 0
BBX 15 29 2 0
BITMAP
0040
00E0
01F0
03F0
0FC0
0780
0200
0000
F83E
F83E
F83E
FC7E
FC7E
FC7E
EE6E
EEEE
EEEE
F6EE
F7CE
F7DE
F7DE
F39E
F39E
F01E
F01E
F01E
F01E
F01E
F01E
ENDCHAR
STARTCHAR uni1E3F
ENCODING 7743
SWIDTH 600 0
DWIDTH 19 0
BBX 17 26 1 0
BITMAP
001000
003800
003C00
007E00
00F800
01F000
00E000
004000
000000
000000
F38F00
F7DF80
FFFF80
FFFF80
F9E780
F9E780
F9E780
F9E780
F9E780
F9E780
F9E780
F9E780
F9E780
F9E780
F9E780
F9E780
ENDCHAR
STARTCHAR uni1E40
ENCODING 7744
SWIDTH 600 0
DWIDTH 19 0
BBX 15 28 2 0
BITMAP
0380
07C0
07C0
07C0
0380
0000
0000
F83E
F83E
F83E
FC7E
FC7E
FC7E
EE6E
EEEE
EEEE
F6EE
F7CE
F7DE
F7DE
F39E
F39E
F01E
F01E
F01E
F01E
F01E
F01E
ENDCHAR
STARTCHAR uni1E41
ENCODING 7745
SWIDTH 600 0
DWIDTH 19 0
BBX 17 24 1 0
BITMAP
01E000
03F000
03F000
03F000
03F000
01E000
000000
000000
F38F00
F7DF80
FFFF80
FFFF80
F9E780
F9E780
F9E780
F9E780
F9E780
F9E780
F9E780
F9E780
F9E780
F9E780
F9E780
F9E780
ENDCHAR
STARTCHAR uni1E42
ENCODING 7746
SWIDTH 600 0
DWIDTH 19 0
BBX 15 29 2 -8
BITMAP
F83E
F83E
F83E
FC7E
FC7E
FC7E
EE6E
EEEE
EEEE
F6EE
F7CE
F7DE
F7DE
F39E
F39E
F01E
F01E
F01E
F01E
F01E
F01E
0000
0000
0380
07C0
0FE0
0FE0
07C0
0380
ENDCHAR
STARTCHAR uni1E43
ENCODING 7747
SWIDTH 600 0
DWIDTH 19 0
BBX 17 24 1 -8
BITMAP
F38F00
F7DF80
FFFF80
FFFF80
F9E780
F9E780
F9E780
F9E780
F9E780
F9E780
F9E780
F9E780
F9E780
F9E780
F9E780
F9E780
000000
000000
01C000
03E000
03F000
03F000
03E000
01E000
ENDCHAR
STARTCHAR uni1E44
ENCODING 7748
SWIDTH 600 0
DWIDTH 19 0
BBX 15 28 2 0
BITMAP
03C0
07E0
07E0
07E0
03C0
0000
0000
F81E
FC1E
FC1E
FC1E
FE1E
FE1E
FF1E
F71E
F79E
F79E
F39E
FBDE
F9DE
F9FE
F8FE
F8FE
F8FE
F87E
F87E
F83E
F83E
ENDCHAR
STARTCHAR uni1E45
ENCODING 7749
SWIDTH 600 0
DWIDTH 19 0
BBX 15 24 2 0
BITMAP
03C0
07E0
07E0
07E0
07E0
03C0
0000
0000
F1F8
F3FC
FFFE
FFFE
FE3E
FC3E
F81E
F81E
F81E
F81E
F81E
F81E
F81E
F81E
F81E
F81E
ENDCHAR
STARTCHAR uni1E46
ENCODING 7750
SWIDTH 600 0
DWIDTH 19 0
BBX 15 29 2 -8
BITMAP
F81E
FC1E
FC1E
FC1E
FE1E
FE1E
FF1E
F71E
F79E
F79E
F39E
FBDE
F9DE
F9FE
F8FE
F8FE
F8FE
F87E
F87E
F83E
F83E
0000
0000
0380
07C0
0FE0
0FE0
07C0
0380
ENDCHAR
STARTCHAR uni1E47
ENCODING 7751
SWIDTH 600 0
DWIDTH 19 0
BBX 15 24 2 -8
BITMAP
F1F8
F3FC
FFFE
FFFE
FE3E
FC3E
F81E
F81E
F81E
F81E
F81E
F81E
F81E
F81E
F81E
F81E
0000
0000
03C0
07E0
07E0
07E0
07E0
03C0
ENDCHAR
STARTCHAR uni1E48
ENCODING 7752
SWIDTH 600 0
DWIDTH 19 0
BBX 15 27 2 -6
BITMAP
F81E
FC1E
FC1E
FC1E
FE1E
FE1E
FF1E
F71E
F79E
F79E
F39E
FBDE
F9DE
F9FE
F8FE
F8FE
F8FE
F87E
F87E
F83E
F83E
0000
0000
0000
1FF0
1FF0
1FF0
ENDCHAR
STARTCHAR uni1E49
ENCODING 7753
SWIDTH 600 0
DWIDTH 19 0
BBX 15 22 2 -6
BITMAP
F1F8
F3FC
FFFE
FFFE
FE3E
FC3E
F81E
F81E
F81E
F81E
F81E
F81E
F81E
F81E
F81E
F81E
0000
0000
0000
1FF8
1FF8
1FF8
ENDCHAR
STARTCHAR uni1E52
ENCODING 7762
SWIDTH 600 0
DWIDTH 19 0
BBX 17 33 1 0
BITMAP
002000
007000
00F800
03F000
01C000
010000
000000
0FF800
0FF800
0FF800
000000
000000
03F000
0FF800
1FFE00
3FFE00
7E3F00
7C1F00
7C0F80
F80F80
F80F80
F80F80
F80F80
F80F80
F80F80
F80F80
7C0F80
7C1F00
7E3F00
3FFE00
1FFE00
0FF800
03F000
ENDCHAR
STARTCHAR uni1E53
ENCODING 7763
SWIDTH 600 0
DWIDTH 19 0
BBX 17 28 1 0
BITMAP
002000
007000
01F800
03C000
018000
000000
0FF800
0FF800
0FF800
000000
000000
000000
03F000
0FF800
1FFE00
3FFE00
7E3F00
7C1F00
7C0F80
F80F80
780F80
7C0F80
7C1F00
7E3F00
3FFE00
1FFE00
0FF800
03F000
ENDCHAR
STARTCHAR uni1E58
ENCODING 7768
SWIDTH 600 0
DWIDTH 19 0
BBX 17 28 2 0
BITMAP
038000
07C000
07E000
07C000
038000
000000
000000
FFE000
FFFC00
FFFE00
FFFE00
F83F00
F81F00
F81F00
F81F00
F83E00
FFFE00
FFFC00
FFF800
FFF000
F8F800
F8F800
F87C00
F87C00
F83E00
F83E00
F81F00
F81F80
ENDCHAR
STARTCHAR uni1E59
ENCODING 7769
SWIDTH 600 0
DWIDTH 19 0
BBX 14 24 4 0
BITMAP
0780
0FC0
0FC0
0FC0
0FC0
0780
0000
0000
F0F8
F3FC
F7F8
FFF8
FE00
FC00
F800
F000
F000
F000
F000
F000
F000
F000
F000
F000
ENDCHAR
STARTCHAR uni1E5A
ENCODING 7770
SWIDTH 600 0
DWIDTH 19 0
BBX 17 29 2 -8
BITMAP
FFE000
FFFC00
FFFE00
FFFE00
F83F00
F81F00
F81F00
F81F00
F83E00
FFFE00
FFFC00
FFF800
FFF000
F8F800
F8F800
F87C00
F87C00
F83E00
F83E00
F81F00
F81F00
000080
000000
03C000
07E000
07E000
07E000
07E000
03C000
ENDCHAR
STARTCHAR uni1E5B
ENCODING 7771
SWIDTH 600 0
DWIDTH 19 0
BBX 15 24 3 -8
BITMAP
787C
79FE
7BFC
7FFC
7F00
7E00
7C00
7800
7800
7800
7800
7800
7800
7800
7800
7800
0000
0000
7800
FC00
FC00
FC00
FC00
7800
ENDCHAR
STARTCHAR uni1E5C
ENCODING 7772
SWIDTH 600 0
DWIDTH 19 0
BBX 17 34 2 -8
BITMAP
1FF000
1FF000
1FF000
000000
000000
FFE000
FFFC00
FFFE00
FFFE00
F83F00
F81F00
F81F00
F81F00
F83E00
FFFE00
FFFC00
FFF800
FFF000
F8F800
F8F800
F87C00
F87C00
F83E00
F83E00
F81F00
F81F00
000080
000000
03C000
07E000
07E000
07E000
07E000
03C000
ENDCHAR
STARTCHAR uni1E5D
ENCODING 7773
SWIDTH 600 0
DWIDTH 19 0
BBX 15 30 3 -8
BITMAP
1FF8
1FF8
1FF8
0000
0000
0000
787C
79FE
7BFC
7FFC
7F00
7E00
7C00
7800
7800
7800
7800
7800
7800
7800
7800
7800
0000
0000
7800
FC00
FC00
FC00
FC00
7800
ENDCHAR
STARTCHAR uni1E5E
ENCODING 7774
SWIDTH 600 0
DWIDTH 19 0
BBX 17 27 2 -6
BITMAP
FFE000
FFFC00
FFFE00
FFFE00
F83F00
F81F00
F81F00
F81F00
F83E00
FFFE00
FFFC00
FFF800
FFF000
F8F800
F8F800
F87C00
F87C00
F83E00
F83E00
F81F00
F81F00
000080
000000
000000
1FF800
1FF800
1FF800
ENDCHAR
STARTCHAR uni1E5F
ENCODING 7775
SWIDTH 600 0
DWIDTH 19 0
BBX 16 22 2 -6
BITMAP
3C3E
3CFF
3DFE
3FFE
3F80
3F00
3E00
3C00
3C00
3C00
3C00
3C00
3C00
3C00
3C00
3C00
0000
0000
0000
FF80
FF80
FF80
ENDCHAR
STARTCHAR uni1E60
ENCODING 7776
SWIDTH 600 0
DWIDTH 19 0
BBX 16 28 2 0
BITMAP
03C0
07E0
07E0
03E0
03C0
0000
0000
07E0
1FF8
3FFE
7FFC
7C1C
F808
F800
7E00
7F80
3FF0
1FFC
07FE
01FE
007F
001F
201F
783E
FFFE
FFFC
3FF8
0FE0
ENDCHAR
STARTCHAR uni1E61
ENCODING 7777
SWIDTH 600 0
DWIDTH 19 0
BBX 15 24 2 0
BITMAP
03C0
07E0
07E0
07E0
07E0
03C0
0000
0000
0FE0
3FF8
7FFE
7FFC
7C18
7C08
7FC0
3FF8
1FFC
01FE
403E
783E
FFFE
FFFC
3FF8
0FE0
ENDCHAR
STARTCHAR uni1E62
ENCODING 7778
SWIDTH 600 0
DWIDTH 19 0
BBX 16 29 2 -8
BITMAP
07E0
1FF8
3FFE
7FFC
7C1C
F808
F800
7E00
7F80
3FF0
1FFC
07FE
01FE
007F
001F
201F
783E
FFFE
FFFC
3FF8
0FE0
0000
0000
03C0
07C0
07E0
07E0
07E0
03C0
ENDCHAR
STARTCHAR uni1E63
ENCODING 7779
SWIDTH 600 0
DWIDTH 19 0
BBX 15 24 2 -8
BITMAP
0FE0
3FF8
7FFE
7FFC
7C18
7C08
7FC0
3FF8
1FFC
01FE
403E
783E
FFFE
FFFC
3FF8
0FE0
0000
0000
03C0
07E0
07E0
07E0
07E0
03C0
ENDCHAR
STARTCHAR uni1E6C
ENCODING 7788
SWIDTH 600 0
DWIDTH 19 0
BBX 17 29 1 -8
BITMAP
FFFF80
FFFF80
FFFF80
FFFF80
03E000
03E000
03E000
03E000
03E000
03E000
03E000
03E000
03E000
03E000
03E000
03E000
03E000
03E000
03E000
03E000
03E000
000000
000000
01C000
03E000
07F000
07F000
03E000
01C000
ENDCHAR
STARTCHAR uni1E6D
ENCODING 7789
SWIDTH 600 0
DWIDTH 19 0
BBX 16 29 2 -8
BITMAP
0F00
0F00
0F00
0F00
0F00
FFFE
FFFE
FFFE
FFFE
0F00
0F00
0F00
0F00
0F00
0F00
0F80
0F82
0FFE
07FE
07FE
01FD
0000
0000
00F0
01F8
01F8
01F8
01F8
00F0
ENDCHAR
STARTCHAR uni1E6E
ENCODING 7790
SWIDTH 600 0
DWIDTH 19 0
BBX 17 27 1 -6
BITMAP
FFFF80
FFFF80
FFFF80
FFFF80
03E000
03E000
03E000
03E000
03E000
03E000
03E000
03E000
03E000
03E000
03E000
03E000
03E000
03E000
03E000
03E000
03E000
000000
000000
000000
0FF800
0FF800
0FF800
ENDCHAR
STARTCHAR uni1E6F
ENCODING 7791
SWIDTH 600 0
DWIDTH 19 0
BBX 16 27 2 -6
BITMAP
0F00
0F00
0F00
0F00
0F00
FFFE
FFFE
FFFE
FFFE
0F00
0F00
0F00
0F00
0F00
0F00
0F80
0F82
0FFE
07FE
07FE
01FD
0000
0000
0000
07FE
07FE
07FE
ENDCHAR
STARTCHAR uni1E7E
ENCODING 7806
SWIDTH 600 0
DWIDTH 19 0
BBX 19 29 0 -8
BITMAP
FC03E0
7C03C0
7C07C0
3C07C0
3E0780
3E0780
3E0F80
1E0F00
1F0F00
1F0F00
0F1F00
0F1E00
0F9E00
079E00
07BC00
07BC00
07FC00
03FC00
03F800
03F800
01F800
000000
000000
00E000
01F000
01F800
03F800
01F000
00E000
ENDCHAR
STARTCHAR uni1E7F
ENCODING 7807
SWIDTH 600 0
DWIDTH 19 0
BBX 17 24 1 -8
BITMAP
F80780
780F80
7C0F00
7C0F00
3C1F00
3E1E00
3E1E00
1E3C00
1F3C00
0F3C00
0F7800
0F7800
07F800
07F000
07F000
03F000
000000
000000
01C000
03E000
07F000
07F000
03E000
01C000
ENDCHAR
STARTCHAR Wgrave
ENCODING 7808
SWIDTH 600 0
DWIDTH 19 0
BBX 19 29 0 0
BITMAP
010000
038000
07C000
07F000
01F800
00F000
002000
000000
F803E0
F803E0
F803E0
7803E0
7803E0
78E3C0
78F3C0
78F3C0
7CF3C0
7DF3C0
3DF3C0
3DBBC0
3DBBC0
3FBB80
3FBB80
3FBB80
3F9F80
3F1F80
1F1F80
1F1F80
1F1F80
ENDCHAR
STARTCHAR wgrave
ENCODING 7809
SWIDTH 600 0
DWIDTH 19 0
BBX 19 26 0 0
BITMAP
010000
030000
078000
0FC000
03E000
01F000
00E000
004000
000000
000000
F801E0
F801E0
78F3E0
78F3E0
78F3C0
79F3C0
7DB3C0
7DB3C0
7DBBC0
3DBBC0
3FBB80
3FBF80
3F9F80
3F9F80
3F1F80
1F1F80
ENDCHAR
STARTCHAR Wacute
ENCODING 7810
SWIDTH 600 0
DWIDTH 19 0
BBX 19 29 0 0
BITMAP
001000
003800
007C00
00FC00
03F000
01E000
008000
000000
F803E0
F803E0
F803E0
7803E0
7803E0
78E3C0
78F3C0
78F3C0
7CF3C0
7DF3C0
3DF3C0
3DBBC0
3DBBC0
3FBB80
3FBB80
3FBB80
3F9F80
3F1F80
1F1F80
1F1F80
1F1F80
ENDCHAR
STARTCHAR wacute
ENCODING 7811
SWIDTH 600 0
DWIDTH 19 0
BBX 19 26 0 0
BITMAP
000800
001C00
003E00
007E00
00FC00
01F000
00E000
004000
000000
000000
F801E0
F801E0
78F3E0
78F3E0
78F3C0
79F3C0
7DB3C0
7DB3C0
7DBBC0
3DBBC0
3FBB80
3FBF80
3F9F80
3F9F80
3F1F80
1F1F80
ENDCHAR
STARTCHAR Wdieresis
ENCODING 7812
SWIDTH 600 0
DWIDTH 19 0
BBX 19 27 0 0
BITMAP
070E00
0F1E00
0F1E00
0F1E00
070E00
000000
F803E0
F803E0
F803E0
7803E0
7803E0
78E3C0
78F3C0
78F3C0
7CF3C0
7DF3C0
3DF3C0
3DBBC0
3DBBC0
3FBB80
3FBB80
3FBB80
3F9F80
3F1F80
1F1F80
1F1F80
1F1F80
ENDCHAR
STARTCHAR wdieresis
ENCODING 7813
SWIDTH 600 0
DWIDTH 19 0
BBX 19 23 0 0
BITMAP
0F0E00
0F1F00
1F9F00
0F1F00
0F0E00
000000
000000
F801E0
F801E0
78F3E0
78F3E0
78F3C0
79F3C0
7DB3C0
7DB3C0
7DBBC0
3DBBC0
3FBB80
3FBF80
3F9F80
3F9F80
3F1F80
1F1F80
ENDCHAR
STARTCHAR uni1E8E
ENCODING 7822
SWIDTH 600 0
DWIDTH 19 0
BBX 18 28 1 0
BITMAP
01C000
03E000
03E000
03E000
01C000
000000
000000
F807C0
F80F80
7C0F80
7C1F00
3C1F00
3E3E00
1E3E00
1F3C00
0F7C00
0F7800
07F800
07F000
03F000
03E000
03E000
03E000
03E000
03E000
03E000
03E000
03E000
ENDCHAR
STARTCHAR uni1E8F
ENCODING 7823
SWIDTH 600 0
DWIDTH 19 0
BBX 17 31 1 -7
BITMAP
01E000
03F000
03F000
03F000
03F000
01E000
000000
000000
F80780
780F80
7C0F00
7C0F00
3C1F00
3E1E00
1E1E00
1E3C00
0F3C00
0F3C00
0F7800
07F800
07F800
03F000
03F000
01E000
01E000
03E000
07C000
3FC000
3F8000
7F0000
7E0000
ENDCHAR
STARTCHAR uni1E90
ENCODING 7824
SWIDTH 600 0
DWIDTH 19 0
BBX 16 27 2 0
BITMAP
07E0
0FF0
0F78
1E38
0810
0000
7FFE
7FFE
7FFE
7FFE
007C
007C
00F8
01F0
03F0
03E0
07C0
0F80
0F80
1F00
3E00
3E00
7C00
FFFF
FFFF
FFFF
FFFF
ENDCHAR
STARTCHAR uni1E91
ENCODING 7825
SWIDTH 600 0
DWIDTH 19 0
BBX 15 24 2 0
BITMAP
03E0
07F0
0FF8
1F7C
1C1C
0808
0000
0000
7FFE
7FFE
7FFE
7FFC
00FC
01F8
03F0
07E0
0FC0
0F80
1F00
3E00
7FFE
FFFE
FFFE
FFFE
ENDCHAR
STARTCHAR uni1E92
ENCODING 7826
SWIDTH 600 0
DWIDTH 19 0
BBX 16 29 2 -8
BITMAP
7FFE
7FFE
7FFE
7FFE
007C
007C
00F8
01F0
03F0
03E0
07C0
0F80
0F80
1F00
3E00
3E00
7C00
FFFF
FFFF
FFFF
FFFF
0000
0000
03C0
07E0
07E0
07E0
07E0
03C0
ENDCHAR
STARTCHAR uni1E93
ENCODING 7827
SWIDTH 600 0
DWIDTH 19 0
BBX 15 24 2 -8
BITMAP
7FFE
7FFE
7FFE
7FFC
00FC
01F8
03F0
07E0
0FC0
0F80
1F00
3E00
7FFE
FFFE
FFFE
FFFE
0000
0000
03C0
07E0
07E0
07E0
07E0
03C0
ENDCHAR
STARTCHAR uni1E94
ENCODING 7828
SWIDTH 600 0
DWIDTH 19 0
BBX 16 27 2 -6
BITMAP
7FFE
7FFE
7FFE
7FFE
007C
007C
00F8
01F0
03F0
03E0
07C0
0F80
0F80
1F00
3E00
3E00
7C00
FFFF
FFFF
FFFF
FFFF
0000
0000
0000
1FF8
1FF8
1FF8
ENDCHAR
STARTCHAR uni1E95
ENCODING 7829
SWIDTH 600 0
DWIDTH 19 0
BBX 15 22 2 -6
BITMAP
7FFE
7FFE
7FFE
7FFC
00FC
01F8
03F0
07E0
0FC0
0F80
1F00
3E00
7FFE
FFFE
FFFE
FFFE
0000
0000
0000
1FF8
1FF8
1FF8
ENDCHAR
STARTCHAR uni1E96
ENCODING 7830
SWIDTH 600 0
DWIDTH 19 0
BBX 15 29 2 -6
BITMAP
F800
F800
F800
F800
F800
F800
F800
F9F8
FBFC
FFFE
FFFE
FE3E
FC3E
F81E
F81E
F81E
F81E
F81E
F81E
F81E
F81E
F81E
F81E
0000
0000
0000
1FF8
1FF8
1FF8
ENDCHAR
STARTCHAR uni1E97
ENCODING 7831
SWIDTH 600 0
DWIDTH 19 0
BBX 16 28 2 0
BITMAP
78F0
78F0
FDF8
78F0
78F0
0000
0000
0F00
0F00
0F00
0F00
0F00
FFFE
FFFE
FFFE
FFFE
0F00
0F00
0F00
0F00
0F00
0F00
0F80
0F82
0FFE
07FE
07FE
01FD
ENDCHAR
STARTCHAR uni1E9E
ENCODING 7838
SWIDTH 600 0
DWIDTH 19 0
BBX 17 21 2 0
BITMAP
0FE000
1FF000
7FF800
7FFC00
FC7E00
F83E00
F83C00
F87C00
F8F800
F8F800
F8FC00
F8FE00
F87F00
F81F00
F80F80
F80F80
F91F00
F9FF00
FBFF00
FBFE00
F8F800
ENDCHAR
STARTCHAR uni1EA0
ENCODING 7840
SWIDTH 600 0
DWIDTH 19 0
BBX 19 29 0 -8
BITMAP
01F800
03F800
03F800
03FC00
07BC00
07BC00
07BC00
0F9E00
0F1E00
0F1E00
0F1F00
1E0F00
1FFF00
1FFF80
3FFF80
3FFF80
3C07C0
7C07C0
7C07C0
7803C0
F803E0
000000
000000
00E000
01F000
03F800
03F800
01F000
00E000
ENDCHAR
STARTCHAR uni1EA1
ENCODING 7841
SWIDTH 600 0
DWIDTH 19 0
BBX 15 24 2 -8
BITMAP
07E0
3FF8
7FFC
7FFC
307E
003E
03FE
1FFE
7FFE
FC3E
F83E
F87E
FFFE
FFFE
7FDE
1F1E
0000
0000
0380
07C0
0FE0
0FE0
07C0
0380
ENDCHAR
STARTCHAR uni1EA2
ENCODING 7842
SWIDTH 600 0
DWIDTH 19 0
BBX 19 28 0 0
BITMAP
01E000
01F000
007800
007800
00F000
00E000
000000
01F800
03F800
03F800
03FC00
07BC00
07BC00
07BC00
0F9E00
0F1E00
0F1E00
0F1F00
1E0F00
1FFF00
1FFF80
3FFF80
3FFF80
3C07C0
7C07C0
7C07C0
7803C0
F803E0
ENDCHAR
STARTCHAR uni1EA3
ENCODING 7843
SWIDTH 600 0
DWIDTH 19 0
BBX 15 25 2 0
BITMAP
0380
07E0
07E0
00E0
00E0
03E0
0180
0000
0000
07E0
3FF8
7FFC
7FFC
307E
003E
03FE
1FFE
7FFE
FC3E
F83E
F87E
FFFE
FFFE
7FDE
1F1E
ENDCHAR
STARTCHAR uni1EA4
ENCODING 7844
SWIDTH 600 0
DWIDTH 19 0
BBX 19 28 0 0
BITMAP
000080
0003C0
01F780
03FA00
07BC00
020A00
000000
01F800
03F800
03F800
03FC00
07BC00
07BC00
07BC00
0F9E00
0F1E00
0F1E00
0F1F00
1E0F00
1FFF00
1FFF80
3FFF80
3FFF80
3C07C0
7C07C0
7C07C0
7803C0
F803E0
ENDCHAR
STARTCHAR uni1EA5
ENCODING 7845
SWIDTH 600 0
DWIDTH 19 0
BBX 17 26 2 0
BITMAP
000200
000380
000700
03EE00
07F400
0FF000
1E7800
0C1000
000000
000000
07E000
3FF800
7FFC00
7FFC00
307E00
003E00
03FE00
1FFE00
7FFE00
FC3E00
F83E00
F87E00
FFFE00
FFFE00
7FDE00
1F1E00
ENDCHAR
STARTCHAR uni1EA6
ENCODING 7846
SWIDTH 600 0
DWIDTH 19 0
BBX 19 28 0 0
BITMAP
100000
380000
5DF000
0BF800
07BC00
020A00
000000
01F800
03F800
03F800
03FC00
07BC00
07BC00
07BC00
0F9E00
0F1E00
0F1E00
0F1F00
1E0F00
1FFF00
1FFF80
3FFF80
3FFF80
3C07C0
7C07C0
7C07C0
7803C0
F803E0
ENDCHAR
STARTCHAR uni1EA7
ENCODING 7847
SWIDTH 600 0
DWIDTH 19 0
BBX 16 26 1 0
BITMAP
2000
F000
7800
39F0
13F8
07F8
0F3C
0608
0000
0000
03F0
1FFC
3FFE
3FFE
183F
001F
01FF
0FFF
3FFF
7E1F
7C1F
7C3F
7FFF
7FFF
3FEF
0F8F
ENDCHAR
STARTCHAR uni1EA8
ENCODING 7848
SWIDTH 600 0
DWIDTH 19 0
BBX 19 30 0 0
BITMAP
000700
000780
0003C0
0001C0
01F380
03FB00
07BC00
020A00
000000
01F800
03F800
03F800
03FC00
07BC00
07BC00
07BC00
0F9E00
0F1E00
0F1E00
0F1F00
1E0F00
1FFF00
1FFF80
3FFF80
3FFF80
3C07C0
7C07C0
7C07C0
7803C0
F803E0
ENDCHAR
STARTCHAR uni1EA9
ENCODING 7849
SWIDTH 600 0
DWIDTH 19 0
BBX 16 26 2 0
BITMAP
000E
001F
0007
03E7
07FF
0FF6
1E78
0C10
0000
0000
07E0
3FF8
7FFC
7FFC
307E
003E
03FE
1FFE
7FFE
FC3E
F83E
F87E
FFFE
FFFE
7FDE
1F1E
ENDCHAR
STARTCHAR uni1EAA
ENCODING 7850
SWIDTH 600 0
DWIDTH 19 0
BBX 19 32 0 0
BITMAP
038800
07CE00
07FC00
067C00
063800
000000
01F000
03F800
07BC00
020A00
000000
01F800
03F800
03F800
03FC00
07BC00
07BC00
07BC00
0F9E00
0F1E00
0F1E00
0F1F00
1E0F00
1FFF00
1FFF80
3FFF80
3FFF80
3C07C0
7C07C0
7C07C0
7803C0
F803E0
ENDCHAR
STARTCHAR uni1EAB
ENCODING 7851
SWIDTH 600 0
DWIDTH 19 0
BBX 15 28 2 0
BITMAP
0710
0FB8
0FF8
0DF0
1C70
0000
03E0
07F0
1F78
0C10
0000
0000
07E0
3FF8
7FFC
7FFC
307E
003E
03FE
1FFE
7FFE
FC3E
F83E
F87E
FFFE
FFFE
7FDE
1F1E
ENDCHAR
STARTCHAR uni1EAC
ENCODING 7852
SWIDTH 600 0
DWIDTH 19 0
BBX 19 35 0 -8
BITMAP
01F800
03F800
07BC00
0F1E00
060C00
000000
01F800
03F800
03F800
03FC00
07BC00
07BC00
07BC00
0F9E00
0F1E00
0F1E00
0F1F00
1E0F00
1FFF00
1FFF80
3FFF80
3FFF80
3C07C0
7C07C0
7C07C0
7803C0
F803E0
000000
000000
00E000
01F000
03F800
03F800
01F000
00E000
ENDCHAR
STARTCHAR uni1EAD
ENCODING 7853
SWIDTH 600 0
DWIDTH 19 0
BBX 15 32 2 -8
BITMAP
07E0
07F0
0FF8
1E78
3C3C
0808
0000
0000
07E0
3FF8
7FFC
7FFC
307E
003E
03FE
1FFE
7FFE
FC3E
F83E
F87E
FFFE
FFFE
7FDE
1F1E
0000
0000
0380
07C0
0FE0
0FE0
07C0
0380
ENDCHAR
STARTCHAR uni1EAE
ENCODING 7854
SWIDTH 600 0
DWIDTH 19 0
BBX 19 32 0 0
BITMAP
001000
003800
007C00
00F000
00E000
0E6E00
071C00
07FC00
01F000
000000
000000
01F800
03F800
03F800
03FC00
07BC00
07BC00
07BC00
0F9E00
0F1E00
0F1E00
0F1F00
1E0F00
1FFF00
1FFF80
3FFF80
3FFF80
3C07C0
7C07C0
7C07C0
7803C0
F803E0
ENDCHAR
STARTCHAR uni1EAF
ENCODING 7855
SWIDTH 600 0
DWIDTH 19 0
BBX 15 28 2 0
BITMAP
0040
00E0
00F0
01E0
01C0
1E9C
1C38
1FF8
0FF0
03E0
0000
0000
07E0
3FF8
7FFC
7FFC
307E
003E
03FE
1FFE
7FFE
FC3E
F83E
F87E
FFFE
FFFE
7FDE
1F1E
ENDCHAR
STARTCHAR uni1EB0
ENCODING 7856
SWIDTH 600 0
DWIDTH 19 0
BBX 19 32 0 0
BITMAP
008000
038000
07C000
01E000
00E000
0E4E00
071C00
07FC00
01F000
000000
000000
01F800
03F800
03F800
03FC00
07BC00
07BC00
07BC00
0F9E00
0F1E00
0F1E00
0F1F00
1E0F00
1FFF00
1FFF80
3FFF80
3FFF80
3C07C0
7C07C0
7C07C0
7803C0
F803E0
ENDCHAR
STARTCHAR uni1EB1
ENCODING 7857
SWIDTH 600 0
DWIDTH 19 0
BBX 15 28 2 0
BITMAP
0200
0700
0F80
0380
03C0
1D9C
1C38
1FF8
0FF0
03E0
0000
0000
07E0
3FF8
7FFC
7FFC
307E
003E
03FE
1FFE
7FFE
FC3E
F83E
F87E
FFFE
FFFE
7FDE
1F1E
ENDCHAR
STARTCHAR uni1EB2
ENCODING 7858
SWIDTH 600 0
DWIDTH 19 0
BBX 19 32 0 0
BITMAP
01C000
01F000
007000
007000
00F000
0EEE00
071C00
07FC00
01F000
000000
000000
01F800
03F800
03F800
03FC00
07BC00
07BC00
07BC00
0F9E00
0F1E00
0F1E00
0F1F00
1E0F00
1FFF00
1FFF80
3FFF80
3FFF80
3C07C0
7C07C0
7C07C0
7803C0
F803E0
ENDCHAR
STARTCHAR uni1EB3
ENCODING 7859
SWIDTH 600 0
DWIDTH 19 0
BBX 15 29 2 0
BITMAP
0380
03C0
03E0
00E0
00E0
01C0
1D9C
1C38
1FF8
0FF0
03E0
0000
0000
07E0
3FF8
7FFC
7FFC
307E
003E
03FE
1FFE
7FFE
FC3E
F83E
F87E
FFFE
FFFE
7FDE
1F1E
ENDCHAR
STARTCHAR uni1EB4
ENCODING 7860
SWIDTH 600 0
DWIDTH 19 0
BBX 19 32 0 0
BITMAP
038800
07CE00
07FC00
067C00
063800
000000
070E00
07FC00
01F800
000000
000000
01F800
03F800
03F800
03FC00
07BC00
07BC00
07BC00
0F9E00
0F1E00
0F1E00
0F1F00
1E0F00
1FFF00
1FFF80
3FFF80
3FFF80
3C07C0
7C07C0
7C07C0
7803C0
F803E0
ENDCHAR
STARTCHAR uni1EB5
ENCODING 7861
SWIDTH 600 0
DWIDTH 19 0
BBX 15 28 2 0
BITMAP
0610
0FB8
0FF8
1DF8
1C70
0000
0000
1C38
0FF8
07E0
0000
0000
07E0
3FF8
7FFC
7FFC
307E
003E
03FE
1FFE
7FFE
FC3E
F83E
F87E
FFFE
FFFE
7FDE
1F1E
ENDCHAR
STARTCHAR uni1EB6
ENCODING 7862
SWIDTH 600 0
DWIDTH 19 0
BBX 19 35 0 -8
BITMAP
0E0E00
071E00
07FC00
03FC00
01F000
000000
01F800
03F800
03F800
03FC00
07BC00
07BC00
07BC00
0F9E00
0F1E00
0F1E00
0F1F00
1E0F00
1FFF00
1FFF80
3FFF80
3FFF80
3C07C0
7C07C0
7C07C0
7803C0
F803E0
000000
000000
00E000
01F000
03F800
03F800
01F000
00E000
ENDCHAR
STARTCHAR uni1EB7
ENCODING 7863
SWIDTH 600 0
DWIDTH 19 0
BBX 15 31 2 -8
BITMAP
1C1C
1E38
1FF8
0FF0
03E0
0000
0000
07E0
3FF8
7FFC
7FFC
307E
003E
03FE
1FFE
7FFE
FC3E
F83E
F87E
FFFE
FFFE
7FDE
1F1E
0000
0000
0380
07C0
0FE0
0FE0
07C0
0380
ENDCHAR
STARTCHAR uni1EB8
ENCODING 7864
SWIDTH 600 0
DWIDTH 19 0
BBX 14 29 3 -8
BITMAP
FFFC
FFFC
FFFC
FFFC
F800
F800
F800
F800
FFF0
FFF0
FFF0
FFF0
F800
F800
F800
F800
F800
FFFC
FFFC
FFFC
FFFC
0000
0000
0380
07C0
0FC0
0FE0
07C0
0780
ENDCHAR
STARTCHAR uni1EB9
ENCODING 7865
SWIDTH 600 0
DWIDTH 19 0
BBX 16 24 2 -8
BITMAP
07E0
1FF8
3FFC
7FFE
781E
FFFE
FFFE
FFFF
FFFE
F800
F800
FC0C
7FFC
3FFE
1FFC
07F0
0000
0000
03C0
07E0
07E0
07E0
07E0
03C0
ENDCHAR
STARTCHAR uni1EBA
ENCODING 7866
SWIDTH 600 0
DWIDTH 19 0
BBX 14 28 3 0
BITMAP
0780
07C0
09C0
01C0
03C0
0300
0000
FFFC
FFFC
FFFC
FFFC
F800
F800
F800
F800
FFF0
FFF0
FFF0
FFF0
F800
F800
F800
F800
F800
FFFC
FFFC
FFFC
FFFC
ENDCHAR
STARTCHAR uni1EBB
ENCODING 7867
SWIDTH 600 0
DWIDTH 19 0
BBX 16 25 2 0
BITMAP
0780
07C0
07E0
01E0
01E0
03C0
0180
0000
0000
07E0
1FF8
3FFC
7FFE
781E
FFFE
FFFE
FFFF
FFFE
F800
F800
FC0C
7FFC
3FFE
1FFC
07F0
ENDCHAR
STARTCHAR uni1EBC
ENCODING 7868
SWIDTH 600 0
DWIDTH 19 0
BBX 14 27 3 0
BITMAP
1E1C
3F3C
7FF8
73F8
70F0
0000
FFFC
FFFC
FFFC
FFFC
F800
F800
F800
F800
FFF0
FFF0
FFF0
FFF0
F800
F800
F800
F800
F800
FFFC
FFFC
FFFC
FFFC
ENDCHAR
STARTCHAR uni1EBD
ENCODING 7869
SWIDTH 600 0
DWIDTH 19 0
BBX 16 23 2 0
BITMAP
0E00
1F9C
3FFC
39F8
38F0
0000
0000
07E0
1FF8
3FFC
7FFE
781E
FFFE
FFFE
FFFF
FFFE
F800
F800
FC0C
7FFC
3FFE
1FFC
07F0
ENDCHAR
STARTCHAR uni1EBE
ENCODING 7870
SWIDTH 600 0
DWIDTH 19 0
BBX 16 28 3 0
BITMAP
0004
000E
07DD
0FE8
1CF0
3820
0000
FFFC
FFFC
FFFC
FFFC
F800
F800
F800
F800
FFF0
FFF0
FFF0
FFF0
F800
F800
F800
F800
F800
FFFC
FFFC
FFFC
FFFC
ENDCHAR
STARTCHAR uni1EBF
ENCODING 7871
SWIDTH 600 0
DWIDTH 19 0
BBX 17 26 2 0
BITMAP
000200
000780
000700
03CE00
07E400
0FF000
1E7800
081000
000000
000000
07E000
1FF800
3FFC00
7FFE00
781E00
FFFE00
FFFE00
FFFF00
FFFE00
F80000
F80000
FC0C00
7FFC00
3FFE00
1FFC00
07F000
ENDCHAR
STARTCHAR uni1EC0
ENCODING 7872
SWIDTH 600 0
DWIDTH 19 0
BBX 15 28 2 0
BITMAP
4000
F000
7BE0
17F0
0E78
1C10
0000
7FFE
7FFE
7FFE
7FFE
7C00
7C00
7C00
7C00
7FF8
7FF8
7FF8
7FF8
7C00
7C00
7C00
7C00
7C00
7FFE
7FFE
7FFE
7FFE
ENDCHAR
STARTCHAR uni1EC1
ENCODING 7873
SWIDTH 600 0
DWIDTH 19 0
BBX 17 26 1 0
BITMAP
200000
F00000
700000
39E000
13F000
07F800
0F3C00
040800
000000
000000
03F000
0FFC00
1FFE00
3FFF00
3C0F00
7FFF00
7FFF00
7FFF80
7FFF00
7C0000
7C0000
7E0600
3FFE00
1FFF00
0FFE00
03F800
ENDCHAR
STARTCHAR uni1EC2
ENCODING 7874
SWIDTH 600 0
DWIDTH 19 0
BBX 15 30 3 0
BITMAP
001C
003E
000E
000E
07DE
0FEC
1CF0
3820
0000
FFFC
FFFC
FFFC
FFFC
F800
F800
F800
F800
FFF0
FFF0
FFF0
FFF0
F800
F800
F800
F800
F800
FFFC
FFFC
FFFC
FFFC
ENDCHAR
STARTCHAR uni1EC3
ENCODING 7875
SWIDTH 600 0
DWIDTH 19 0
BBX 16 26 2 0
BITMAP
001C
001F
0007
03C7
07EF
0FFC
1E78
0810
0000
0000
07E0
1FF8
3FFC
7FFE
781E
FFFE
FFFE
FFFF
FFFE
F800
F800
FC0C
7FFC
3FFE
1FFC
07F0
ENDCHAR
STARTCHAR uni1EC4
ENCODING 7876
SWIDTH 600 0
DWIDTH 19 0
BBX 14 32 3 0
BITMAP
0E20
1F30
1FF0
3BF0
38E0
0000
07C0
0FE0
1EF0
2820
0000
FFFC
FFFC
FFFC
FFFC
F800
F800
F800
F800
FFF0
FFF0
FFF0
FFF0
F800
F800
F800
F800
F800
FFFC
FFFC
FFFC
FFFC
ENDCHAR
STARTCHAR uni1EC5
ENCODING 7877
SWIDTH 600 0
DWIDTH 19 0
BBX 16 28 2 0
BITMAP
0610
0FB8
0FF0
1DF0
18E0
0000
03C0
0FF0
1FF8
0C30
0000
0000
07E0
1FF8
3FFC
7FFE
781E
FFFE
FFFE
FFFF
FFFE
F800
F800
FC0C
7FFC
3FFE
1FFC
07F0
ENDCHAR
STARTCHAR uni1EC6
ENCODING 7878
SWIDTH 600 0
DWIDTH 19 0
BBX 14 35 3 -8
BITMAP
0FC0
0FE0
1EF0
3C78
1830
0000
FFFC
FFFC
FFFC
FFFC
F800
F800
F800
F800
FFF0
FFF0
FFF0
FFF0
F800
F800
F800
F800
F800
FFFC
FFFC
FFFC
FFFC
0000
0000
0380
07C0
0FC0
0FE0
07C0
0780
ENDCHAR
STARTCHAR uni1EC7
ENCODING 7879
SWIDTH 600 0
DWIDTH 19 0
BBX 16 32 2 -8
BITMAP
07E0
0FF0
0FF0
1E78
3C3C
1818
0000
0000
07E0
1FF8
3FFC
7FFE
781E
FFFE
FFFE
FFFF
FFFE
F800
F800
FC0C
7FFC
3FFE
1FFC
07F0
0000
0000
03C0
07E0
07E0
07E0
07E0
03C0
ENDCHAR
STARTCHAR uni1EC8
ENCODING 7880
SWIDTH 600 0
DWIDTH 19 0
BBX 15 28 2 0
BITMAP
0780
07C0
01E0
01E0
03C0
0380
0000
FFFE
FFFE
FFFE
FFFE
07C0
07C0
07C0
07C0
07C0
07C0
07C0
07C0
07C0
07C0
07C0
07C0
07C0
FFFE
FFFE
FFFE
FFFE
ENDCHAR
STARTCHAR uni1EC9
ENCODING 7881
SWIDTH 600 0
DWIDTH 19 0
BBX 11 25 3 0
BITMAP
0780
07C0
07E0
01E0
00E0
03E0
0180
0000
0000
FFE0
FFE0
FFE0
FFE0
03E0
03E0
03E0
03E0
03E0
03E0
03E0
03E0
03E0
03E0
03E0
03E0
ENDCHAR
STARTCHAR uni1ECA
ENCODING 7882
SWIDTH 600 0
DWIDTH 19 0
BBX 15 29 2 -8
BITMAP
FFFE
FFFE
FFFE
FFFE
07C0
07C0
07C0
07C0
07C0
07C0
07C0
07C0
07C0
07C0
07C0
07C0
07C0
FFFE
FFFE
FFFE
FFFE
0000
0000
0380
07C0
0FE0
0FE0
07C0
0380
ENDCHAR
STARTCHAR uni1ECB
ENCODING 7883
SWIDTH 600 0
DWIDTH 19 0
BBX 11 32 3 -8
BITMAP
03C0
07E0
07E0
07E0
07E0
03C0
0000
0000
FFE0
FFE0
FFE0
FFE0
03E0
03E0
03E0
03E0
03E0
03E0
03E0
03E0
03E0
03E0
03E0
03E0
0000
0000
03C0
07E0
07E0
07E0
07E0
03C0
ENDCHAR
STARTCHAR uni1ECC
ENCODING 7884
SWIDTH 600 0
DWIDTH 19 0
BBX 17 29 1 -8
BITMAP
03F000
0FF800
1FFE00
3FFE00
7E3F00
7C1F00
7C0F80
F80F80
F80F80
F80F80
F80F80
F80F80
F80F80
F80F80
7C0F80
7C1F00
7E3F00
3FFE00
1FFE00
0FF800
03F000
000000
000000
01C000
03E000
07F000
07F000
03E000
01C000
ENDCHAR
STARTCHAR uni1ECD
ENCODING 7885
SWIDTH 600 0
DWIDTH 19 0
BBX 17 24 1 -8
BITMAP
03F000
0FF800
1FFE00
3FFE00
7E3F00
7C1F00
7C0F80
F80F80
780F80
7C0F80
7C1F00
7E3F00
3FFE00
1FFE00
0FF800
03F000
000000
000000
01C000
03E000
07F000
07F000
03E000
01C000
ENDCHAR
STARTCHAR uni1ECE
ENCODING 7886
SWIDTH 600 0
DWIDTH 19 0
BBX 17 28 1 0
BITMAP
03C000
03E000
00F000
00F000
01E000
01C000
000000
03F000
0FF800
1FFE00
3FFE00
7E3F00
7C1F00
7C0F80
F80F80
F80F80
F80F80
F80F80
F80F80
F80F80
F80F80
7C0F80
7C1F00
7E3F00
3FFE00
1FFE00
0FF800
03F000
ENDCHAR
STARTCHAR uni1ECF
ENCODING 7887
SWIDTH 600 0
DWIDTH 19 0
BBX 17 25 1 0
BITMAP
038000
03E000
03E000
00F000
00F000
01E000
01C000
000000
000000
03F000
0FF800
1FFE00
3FFE00
7E3F00
7C1F00
7C0F80
F80F80
780F80
7C0F80
7C1F00
7E3F00
3FFE00
1FFE00
0FF800
03F000
ENDCHAR
STARTCHAR uni1ED0
ENCODING 7888
SWIDTH 600 0
DWIDTH 19 0
BBX 17 28 1 0
BITMAP
000100
000780
03EF00
07F400
0F7800
041400
000000
03F000
0FF800
1FFE00
3FFE00
7E3F00
7C1F00
7C0F80
F80F80
F80F80
F80F80
F80F80
F80F80
F80F80
F80F80
7C0F80
7C1F00
7E3F00
3FFE00
1FFE00
0FF800
03F000
ENDCHAR
STARTCHAR uni1ED1
ENCODING 7889
SWIDTH 600 0
DWIDTH 19 0
BBX 17 26 1 0
BITMAP
000100
000380
000780
03E700
07FA00
0FF800
0E3800
041000
000000
000000
03F000
0FF800
1FFE00
3FFE00
7E3F00
7C1F00
7C0F80
F80F80
780F80
7C0F80
7C1F00
7E3F00
3FFE00
1FFE00
0FF800
03F000
ENDCHAR
STARTCHAR uni1ED2
ENCODING 7890
SWIDTH 600 0
DWIDTH 19 0
BBX 17 28 1 0
BITMAP
200000
700000
BBE000
17F000
0F7800
041400
000000
03F000
0FF800
1FFE00
3FFE00
7E3F00
7C1F00
7C0F80
F80F80
F80F80
F80F80
F80F80
F80F80
F80F80
F80F80
7C0F80
7C1F00
7E3F00
3FFE00
1FFE00
0FF800
03F000
ENDCHAR
STARTCHAR uni1ED3
ENCODING 7891
SWIDTH 600 0
DWIDTH 19 0
BBX 17 26 1 0
BITMAP
400000
E00000
700000
3BE000
37F000
0FF800
0E3800
041000
000000
000000
03F000
0FF800
1FFE00
3FFE00
7E3F00
7C1F00
7C0F80
F80F80
780F80
7C0F80
7C1F00
7E3F00
3FFE00
1FFE00
0FF800
03F000
ENDCHAR
STARTCHAR uni1ED4
ENCODING 7892
SWIDTH 600 0
DWIDTH 19 0
BBX 17 30 1 0
BITMAP
000E00
000F00
000780
000380
03E700
07F600
0F7800
041400
000000
03F000
0FF800
1FFE00
3FFE00
7E3F00
7C1F00
7C0F80
F80F80
F80F80
F80F80
F80F80
F80F80
F80F80
F80F80
7C0F80
7C1F00
7E3F00
3FFE00
1FFE00
0FF800
03F000
ENDCHAR
STARTCHAR uni1ED5
ENCODING 7893
SWIDTH 600 0
DWIDTH 19 0
BBX 17 26 1 0
BITMAP
000E00
000F00
000780
03E380
07F700
0FFE00
0E3800
041000
000000
000000
03F000
0FF800
1FFE00
3FFE00
7E3F00
7C1F00
7C0F80
F80F80
780F80
7C0F80
7C1F00
7E3F00
3FFE00
1FFE00
0FF800
03F000
ENDCHAR
STARTCHAR uni1ED6
ENCODING 7894
SWIDTH 600 0
DWIDTH 19 0
BBX 17 32 1 0
BITMAP
071000
0F9C00
0FF800
0CF800
0C7000
000000
03E000
07F000
0F7800
041400
000000
03F000
0FF800
1FFE00
3FFE00
7E3F00
7C1F00
7C0F80
F80F80
F80F80
F80F80
F80F80
F80F80
F80F80
F80F80
7C0F80
7C1F00
7E3F00
3FFE00
1FFE00
0FF800
03F000
ENDCHAR
STARTCHAR uni1ED7
ENCODING 7895
SWIDTH 600 0
DWIDTH 19 0
BBX 17 28 1 0
BITMAP
031000
079800
0FF800
0EF800
0C7000
000000
03E000
07F000
0F7800
041000
000000
000000
03F000
0FF800
1FFE00
3FFE00
7E3F00
7C1F00
7C0F80
F80F80
780F80
7C0F80
7C1F00
7E3F00
3FFE00
1FFE00
0FF800
03F000
ENDCHAR
STARTCHAR uni1ED8
ENCODING 7896
SWIDTH 600 0
DWIDTH 19 0
BBX 17 35 1 -8
BITMAP
03F000
07F000
0F7800
1E3C00
0C1800
000000
03F000
0FF800
1FFE00
3FFE00
7E3F00
7C1F00
7C0F80
F80F80
F80F80
F80F80
F80F80
F80F80
F80F80
F80F80
7C0F80
7C1F00
7E3F00
3FFE00
1FFE00
0FF800
03F000
000000
000000
01C000
03E000
07F000
07F000
03E000
01C000
ENDCHAR
STARTCHAR uni1ED9
ENCODING 7897
SWIDTH 600 0
DWIDTH 19 0
BBX 17 32 1 -8
BITMAP
03E000
07F000
0FF800
1F7C00
1E1C00
080800
000000
000000
03F000
0FF800
1FFE00
3FFE00
7E3F00
7C1F00
7C0F80
F80F80
780F80
7C0F80
7C1F00
7E3F00
3FFE00
1FFE00
0FF800
03F000
000000
000000
01C000
03E000
07F000
07F000
03E000
01C000
ENDCHAR
STARTCHAR uni1EDA
ENCODING 7898
SWIDTH 600 0
DWIDTH 19 0
BBX 18 29 1 0
BITMAP
002000
007000
00F800
01F880
07E3C0
03C3C0
0103C0
0003C0
03F780
0FFF00
1FFC00
3FFE00
7E3F00
7C1F00
7C0F80
F80F80
F80F80
F80F80
F80F80
F80F80
F80F80
F80F80
7C0F80
7C1F00
7E3F00
3FFE00
1FFE00
0FF800
03F000
ENDCHAR
STARTCHAR uni1EDB
ENCODING 7899
SWIDTH 600 0
DWIDTH 19 0
BBX 18 26 1 0
BITMAP
001000
003800
007C00
00FC00
01F880
03E3C0
01C3C0
0083C0
0003C0
0003C0
03EF80
0FFF00
1FFC00
3FFE00
7E3F00
7C1F00
7C0F80
F80F80
780F80
7C0F80
7C1F00
7E3F00
3FFE00
1FFE00
0FF800
03F000
ENDCHAR
STARTCHAR uni1EDC
ENCODING 7900
SWIDTH 600 0
DWIDTH 19 0
BBX 18 29 1 0
BITMAP
020000
070000
0F8000
0FE080
03F3C0
01E3C0
0043C0
0003C0
03F780
0FFF00
1FFC00
3FFE00
7E3F00
7C1F00
7C0F80
F80F80
F80F80
F80F80
F80F80
F80F80
F80F80
F80F80
7C0F80
7C1F00
7E3F00
3FFE00
1FFE00
0FF800
03F000
ENDCHAR
STARTCHAR uni1EDD
ENCODING 7901
SWIDTH 600 0
DWIDTH 19 0
BBX 18 26 1 0
BITMAP
020000
060000
0F0000
1F8000
07C080
03E3C0
01C3C0
0083C0
0003C0
0003C0
03EF80
0FFF00
1FFC00
3FFE00
7E3F00
7C1F00
7C0F80
F80F80
780F80
7C0F80
7C1F00
7E3F00
3FFE00
1FFE00
0FF800
03F000
ENDCHAR
STARTCHAR uni1EDE
ENCODING 7902
SWIDTH 600 0
DWIDTH 19 0
BBX 18 28 1 0
BITMAP
03C000
03E000
00F080
00F3C0
01E3C0
01C3C0
0003C0
03F780
0FFF00
1FFC00
3FFE00
7E3F00
7C1F00
7C0F80
F80F80
F80F80
F80F80
F80F80
F80F80
F80F80
F80F80
7C0F80
7C1F00
7E3F00
3FFE00
1FFE00
0FF800
03F000
ENDCHAR
STARTCHAR uni1EDF
ENCODING 7903
SWIDTH 600 0
DWIDTH 19 0
BBX 18 25 1 0
BITMAP
038000
03E000
03E000
00F080
00F3C0
01E3C0
01C3C0
0003C0
0003C0
03EF80
0FFF00
1FFC00
3FFE00
7E3F00
7C1F00
7C0F80
F80F80
780F80
7C0F80
7C1F00
7E3F00
3FFE00
1FFE00
0FF800
03F000
ENDCHAR
STARTCHAR uni1EE0
ENCODING 7904
SWIDTH 600 0
DWIDTH 19 0
BBX 18 27 1 0
BITMAP
0F1C00
1F9C80
3FFFC0
39FBC0
38F3C0
0003C0
03F780
0FFF00
1FFC00
3FFE00
7E3F00
7C1F00
7C0F80
F80F80
F80F80
F80F80
F80F80
F80F80
F80F80
F80F80
7C0F80
7C1F00
7E3F00
3FFE00
1FFE00
0FF800
03F000
ENDCHAR
STARTCHAR uni1EE1
ENCODING 7905
SWIDTH 600 0
DWIDTH 19 0
BBX 18 23 1 0
BITMAP
0E0000
1F9C80
3FFFC0
39FBC0
38F3C0
0003C0
0003C0
03EF80
0FFF00
1FFC00
3FFE00
7E3F00
7C1F00
7C0F80
F80F80
780F80
7C0F80
7C1F00
7E3F00
3FFE00
1FFE00
0FF800
03F000
ENDCHAR
STARTCHAR uni1EE2
ENCODING 7906
SWIDTH 600 0
DWIDTH 19 0
BBX 18 34 1 -8
BITMAP
000080
0003C0
0003C0
0003C0
0003C0
03F780
0FFF00
1FFC00
3FFE00
7E3F00
7C1F00
7C0F80
F80F80
F80F80
F80F80
F80F80
F80F80
F80F80
F80F80
7C0F80
7C1F00
7E3F00
3FFE00
1FFE00
0FF800
03F000
000000
000000
01C000
03E000
07F000
07F000
03E000
01C000
ENDCHAR
STARTCHAR uni1EE3
ENCODING 7907
SWIDTH 600 0
DWIDTH 19 0
BBX 18 30 1 -8
BITMAP
000080
0003C0
0003C0
0003C0
0003C0
0003C0
03EF80
0FFF00
1FFC00
3FFE00
7E3F00
7C1F00
7C0F80
F80F80
780F80
7C0F80
7C1F00
7E3F00
3FFE00
1FFE00
0FF800
03F000
000000
000000
01C000
03E000
07F000
07F000
03E000
01C000
ENDCHAR
STARTCHAR uni1EE4
ENCODING 7908
SWIDTH 600 0
DWIDTH 19 0
BBX 15 29 2 -8
BITMAP
F81E
F81E
F81E
F81E
F81E
F81E
F81E
F81E
F81E
F81E
F81E
F81E
F81E
F81E
F83E
F83E
7C7E
7FFC
3FFC
1FF8
0FE0
0000
0000
0380
07C0
0FE0
0FE0
07C0
0380
ENDCHAR
STARTCHAR uni1EE5
ENCODING 7909
SWIDTH 600 0
DWIDTH 19 0
BBX 15 24 2 -8
BITMAP
F83E
F83E
F83E
F83E
F83E
F83E
F83E
F83E
F83E
F83E
F87E
F8FE
FFFE
7FDE
7F9E
1F1E
0000
0000
03C0
07E0
07E0
07E0
07E0
03C0
ENDCHAR
STARTCHAR uni1EE6
ENCODING 7910
SWIDTH 600 0
DWIDTH 19 0
BBX 15 28 2 0
BITMAP
0780
07C0
01E0
01E0
03C0
0380
0000
F81E
F81E
F81E
F81E
F81E
F81E
F81E
F81E
F81E
F81E
F81E
F81E
F81E
F81E
F83E
F83E
7C7E
7FFC
3FFC
1FF8
0FE0
ENDCHAR
STARTCHAR uni1EE7
ENCODING 7911
SWIDTH 600 0
DWIDTH 19 0
BBX 15 25 2 0
BITMAP
0700
07C0
07C0
01E0
01E0
03C0
0380
0000
0000
F83E
F83E
F83E
F83E
F83E
F83E
F83E
F83E
F83E
F83E
F87E
F8FE
FFFE
7FDE
7F9E
1F1E
ENDCHAR
STARTCHAR uni1EE8
ENCODING 7912
SWIDTH 600 0
DWIDTH 19 0
BBX 19 29 2 0
BITMAP
004000
00E000
01F040
03F1E0
0FC1E0
0781E0
0201E0
0003E0
F81FC0
F81F80
F81E00
F81E00
F81E00
F81E00
F81E00
F81E00
F81E00
F81E00
F81E00
F81E00
F81E00
F81E00
F83E00
F83E00
7C7E00
7FFC00
3FFC00
1FF800
0FE000
ENDCHAR
STARTCHAR uni1EE9
ENCODING 7913
SWIDTH 600 0
DWIDTH 19 0
BBX 18 26 2 0
BITMAP
004000
006000
00F800
01F880
03E3C0
07C7C0
0383C0
0103C0
000380
000780
F83F00
F83E00
F83E00
F83E00
F83E00
F83E00
F83E00
F83E00
F83E00
F83E00
F87E00
F8FE00
FFFE00
7FDE00
7F9E00
1F1E00
ENDCHAR
STARTCHAR uni1EEA
ENCODING 7914
SWIDTH 600 0
DWIDTH 19 0
BBX 19 29 2 0
BITMAP
040000
0E0000
1F0040
1FC1E0
07E1E0
03C1E0
0081E0
0003E0
F81FC0
F81F80
F81E00
F81E00
F81E00
F81E00
F81E00
F81E00
F81E00
F81E00
F81E00
F81E00
F81E00
F81E00
F83E00
F83E00
7C7E00
7FFC00
3FFC00
1FF800
0FE000
ENDCHAR
STARTCHAR uni1EEB
ENCODING 7915
SWIDTH 600 0
DWIDTH 19 0
BBX 18 26 2 0
BITMAP
040000
0C0000
1E0000
3F0080
0F83C0
07C7C0
0383C0
0103C0
000380
000780
F83F00
F83E00
F83E00
F83E00
F83E00
F83E00
F83E00
F83E00
F83E00
F83E00
F87E00
F8FE00
FFFE00
7FDE00
7F9E00
1F1E00
ENDCHAR
STARTCHAR uni1EEC
ENCODING 7916
SWIDTH 600 0
DWIDTH 19 0
BBX 19 28 2 0
BITMAP
078000
07C040
01E1E0
01E1E0
03C1E0
0381E0
0003E0
F81FC0
F81F80
F81E00
F81E00
F81E00
F81E00
F81E00
F81E00
F81E00
F81E00
F81E00
F81E00
F81E00
F81E00
F83E00
F83E00
7C7E00
7FFC00
3FFC00
1FF800
0FE000
ENDCHAR
STARTCHAR uni1EED
ENCODING 7917
SWIDTH 600 0
DWIDTH 19 0
BBX 18 25 2 0
BITMAP
070000
07C000
07C080
01E3C0
01E7C0
03C3C0
0383C0
000380
000780
F83F00
F83E00
F83E00
F83E00
F83E00
F83E00
F83E00
F83E00
F83E00
F83E00
F87E00
F8FE00
FFFE00
7FDE00
7F9E00
1F1E00
ENDCHAR
STARTCHAR uni1EEE
ENCODING 7918
SWIDTH 600 0
DWIDTH 19 0
BBX 19 27 2 0
BITMAP
1E1C40
3F9DE0
3FFDE0
79F9E0
70F1E0
0003E0
F81FC0
F81F80
F81E00
F81E00
F81E00
F81E00
F81E00
F81E00
F81E00
F81E00
F81E00
F81E00
F81E00
F81E00
F83E00
F83E00
7C7E00
7FFC00
3FFC00
1FF800
0FE000
ENDCHAR
STARTCHAR uni1EEF
ENCODING 7919
SWIDTH 600 0
DWIDTH 19 0
BBX 18 23 2 0
BITMAP
1C0080
3F3BC0
7FFFC0
73F3C0
71E3C0
000380
000780
F83F00
F83E00
F83E00
F83E00
F83E00
F83E00
F83E00
F83E00
F83E00
F83E00
F87E00
F8FE00
FFFE00
7FDE00
7F9E00
1F1E00
ENDCHAR
STARTCHAR uni1EF0
ENCODING 7920
SWIDTH 600 0
DWIDTH 19 0
BBX 19 35 2 -8
BITMAP
000040
0001E0
0001E0
0001E0
0001E0
0003E0
F81FC0
F81F80
F81E00
F81E00
F81E00
F81E00
F81E00
F81E00
F81E00
F81E00
F81E00
F81E00
F81E00
F81E00
F83E00
F83E00
7C7E00
7FFC00
3FFC00
1FF800
0FE000
000000
000000
038000
07C000
0FE000
0FE000
07C000
038000
ENDCHAR
STARTCHAR uni1EF1
ENCODING 7921
SWIDTH 600 0
DWIDTH 19 0
BBX 18 31 2 -8
BITMAP
000080
0003C0
0007C0
0003C0
0003C0
000380
000780
F83F00
F83E00
F83E00
F83E00
F83E00
F83E00
F83E00
F83E00
F83E00
F83E00
F87E00
F8FE00
FFFE00
7FDE00
7F9E00
1F1E00
000000
000000
03C000
07E000
07E000
07E000
07E000
03C000
ENDCHAR
STARTCHAR Ygrave
ENCODING 7922
SWIDTH 600 0
DWIDTH 19 0
BBX 18 29 1 0
BITMAP
020000
070000
0F8000
0FE000
03F000
01E000
004000
000000
F807C0
F80F80
7C0F80
7C1F00
3C1F00
3E3E00
1E3E00
1F3C00
0F7C00
0F7800
07F800
07F000
03F000
03E000
03E000
03E000
03E000
03E000
03E000
03E000
03E000
ENDCHAR
STARTCHAR ygrave
ENCODING 7923
SWIDTH 600 0
DWIDTH 19 0
BBX 17 33 1 -7
BITMAP
020000
070000
0F8000
1F8000
07C000
03E000
01E000
00C000
000000
000000
F80780
780F80
7C0F00
7C0F00
3C1F00
3E1E00
1E1E00
1E3C00
0F3C00
0F3C00
0F7800
07F800
07F800
03F000
03F000
01E000
01E000
03E000
07C000
3FC000
3F8000
7F0000
7E0000
ENDCHAR
ENDFONT
